SplineFontDB: 3.2
FontName: ApxNarrow
FullName: ApxNarrow
FamilyName: ApxNarrow
Weight: Bold
Copyright: Copyright (c) 2019 by Ryoichi Tsunekawa. All rights reserved. |DCNT
Version: 1.100;PS 001.100;hotconv 1.0.88;makeotf.lib2.5.64775
ItalicAngle: 0
UnderlinePosition: -240
UnderlineWidth: 80
Ascent: 700
Descent: 300
InvalidEm: 0
sfntRevision: 0x00010042
LayerCount: 2
Layer: 0 1 "Back" 1
Layer: 1 1 "Fore" 0
XUID: [1021 566 296935773 739102]
StyleMap: 0x0020
FSType: 0
OS2Version: 3
OS2_WeightWidthSlopeOnly: 0
OS2_UseTypoMetrics: 0
CreationTime: 1551428616
ModificationTime: 1602226204
PfmFamily: 17
TTFWeight: 700
TTFWidth: 5
LineGap: 27
VLineGap: 0
Panose: 2 11 6 6 2 2 2 5 2 1
OS2TypoAscent: 700
OS2TypoAOffset: 0
OS2TypoDescent: -300
OS2TypoDOffset: 0
OS2TypoLinegap: 53
OS2WinAscent: 910
OS2WinAOffset: 0
OS2WinDescent: 207
OS2WinDOffset: 0
HheadAscent: 910
HheadAOffset: 0
HheadDescent: -207
HheadDOffset: 0
OS2SubXSize: 650
OS2SubYSize: 600
OS2SubXOff: 0
OS2SubYOff: 75
OS2SupXSize: 650
OS2SupYSize: 600
OS2SupXOff: 0
OS2SupYOff: 350
OS2StrikeYSize: 60
OS2StrikeYPos: 301
OS2CapHeight: 700
OS2XHeight: 510
OS2Vendor: 'dhrm'
OS2CodePages: 20000097.00000000
OS2UnicodeRanges: 00000007.00000001.00000000.00000000
Lookup: 1 0 0 "'aalt' Access All Alternates in Latin lookup 0" { "'aalt' Access All Alternates in Latin lookup 0 subtable"  } ['aalt' ('DFLT' <'dflt' > 'latn' <'AZE ' 'CAT ' 'CRT ' 'KAZ ' 'MOL ' 'NLD ' 'ROM ' 'TAT ' 'TRK ' 'dflt' > ) ]
Lookup: 3 0 0 "'aalt' Access All Alternates in Latin lookup 1" { "'aalt' Access All Alternates in Latin lookup 1 subtable"  } ['aalt' ('DFLT' <'dflt' > 'latn' <'AZE ' 'CAT ' 'CRT ' 'KAZ ' 'MOL ' 'NLD ' 'ROM ' 'TAT ' 'TRK ' 'dflt' > ) ]

StartChar: .notdef
Encoding: 65536 -1 0
Width: 738
Flags: W
LayerCount: 2
Fore
SplineSet
54 0 m 1,0,-1
 54 700 l 1,1,-1
 684 700 l 1,2,-1
 684 0 l 1,3,-1
 54 0 l 1,0,-1
152 134 m 1,4,-1
 586 134 l 1,5,-1
 586 566 l 1,6,-1
 152 566 l 1,7,-1
 152 134 l 1,4,-1
168 550 m 1,8,-1
 282 550 l 1,9,-1
 282 438 l 1,10,-1
 168 438 l 1,11,-1
 168 550 l 1,8,-1
346 390 m 1,12,-1
 314 390 l 1,13,-1
 314 406 l 1,14,-1
 298 406 l 1,15,-1
 298 486 l 1,16,-1
 330 486 l 1,17,-1
 330 518 l 1,18,-1
 298 518 l 1,19,-1
 298 550 l 1,20,-1
 314 550 l 1,21,-1
 314 534 l 1,22,-1
 346 534 l 1,23,-1
 346 518 l 1,24,-1
 362 518 l 1,25,-1
 362 534 l 1,26,-1
 346 534 l 1,27,-1
 346 550 l 1,28,-1
 378 550 l 1,29,-1
 378 534 l 1,30,-1
 394 534 l 1,31,-1
 394 550 l 1,32,-1
 410 550 l 1,33,-1
 410 518 l 1,34,-1
 426 518 l 1,35,-1
 426 502 l 1,36,-1
 410 502 l 1,37,-1
 410 470 l 1,38,-1
 394 470 l 1,39,-1
 394 454 l 1,40,-1
 378 454 l 1,41,-1
 378 502 l 1,42,-1
 346 502 l 1,43,-1
 346 486 l 1,44,-1
 362 486 l 1,45,-1
 362 454 l 1,46,-1
 346 454 l 1,47,-1
 346 470 l 1,48,-1
 314 470 l 1,49,-1
 314 422 l 1,50,-1
 330 422 l 1,51,-1
 330 454 l 1,52,-1
 346 454 l 1,53,-1
 346 438 l 1,54,-1
 362 438 l 1,55,-1
 362 454 l 1,56,-1
 378 454 l 1,57,-1
 378 422 l 1,58,-1
 346 422 l 1,59,-1
 346 390 l 1,12,-1
426 550 m 1,60,-1
 442 550 l 1,61,-1
 442 518 l 1,62,-1
 426 518 l 1,63,-1
 426 550 l 1,60,-1
458 550 m 1,64,-1
 570 550 l 1,65,-1
 570 438 l 1,66,-1
 458 438 l 1,67,-1
 458 550 l 1,64,-1
184 454 m 1,68,-1
 266 454 l 1,69,-1
 266 534 l 1,70,-1
 184 534 l 1,71,-1
 184 454 l 1,68,-1
474 454 m 1,72,-1
 554 454 l 1,73,-1
 554 534 l 1,74,-1
 474 534 l 1,75,-1
 474 454 l 1,72,-1
200 518 m 1,76,-1
 250 518 l 1,77,-1
 250 470 l 1,78,-1
 200 470 l 1,79,-1
 200 518 l 1,76,-1
490 518 m 1,80,-1
 538 518 l 1,81,-1
 538 470 l 1,82,-1
 490 470 l 1,83,-1
 490 518 l 1,80,-1
410 454 m 1,84,-1
 410 422 l 1,85,-1
 394 422 l 1,86,-1
 394 454 l 1,87,-1
 410 454 l 1,84,-1
442 438 m 1,88,-1
 426 438 l 1,89,-1
 426 454 l 1,90,-1
 442 454 l 1,91,-1
 442 438 l 1,88,-1
200 406 m 1,92,-1
 200 390 l 1,93,-1
 217 390 l 1,94,-1
 217 374 l 1,95,-1
 184 374 l 1,96,-1
 184 390 l 1,97,-1
 168 390 l 1,98,-1
 168 422 l 1,99,-1
 217 422 l 1,100,-1
 217 406 l 1,101,-1
 200 406 l 1,92,-1
282 422 m 1,102,-1
 282 406 l 1,103,-1
 266 406 l 1,104,-1
 266 390 l 1,105,-1
 234 390 l 1,106,-1
 234 406 l 1,107,-1
 250 406 l 1,108,-1
 250 422 l 1,109,-1
 282 422 l 1,102,-1
426 390 m 1,110,-1
 426 374 l 1,111,-1
 410 374 l 1,112,-1
 410 422 l 1,113,-1
 426 422 l 1,114,-1
 426 406 l 1,115,-1
 442 406 l 1,116,-1
 442 390 l 1,117,-1
 426 390 l 1,110,-1
442 390 m 1,118,-1
 458 390 l 1,119,-1
 458 406 l 1,120,-1
 442 406 l 1,121,-1
 442 422 l 1,122,-1
 506 422 l 1,123,-1
 506 406 l 1,124,-1
 490 406 l 1,125,-1
 490 390 l 1,126,-1
 506 390 l 1,127,-1
 506 406 l 1,128,-1
 522 406 l 1,129,-1
 522 390 l 1,130,-1
 538 390 l 1,131,-1
 538 374 l 1,132,-1
 522 374 l 1,133,-1
 522 358 l 1,134,-1
 490 358 l 1,135,-1
 490 374 l 1,136,-1
 458 374 l 1,137,-1
 458 358 l 1,138,-1
 442 358 l 1,139,-1
 442 390 l 1,118,-1
570 374 m 1,140,-1
 554 374 l 1,141,-1
 554 390 l 1,142,-1
 538 390 l 1,143,-1
 538 422 l 1,144,-1
 570 422 l 1,145,-1
 570 374 l 1,140,-1
282 406 m 1,146,-1
 298 406 l 1,147,-1
 298 374 l 1,148,-1
 266 374 l 1,149,-1
 266 390 l 1,150,-1
 282 390 l 1,151,-1
 282 406 l 1,146,-1
378 406 m 1,152,-1
 394 406 l 1,153,-1
 394 390 l 1,154,-1
 378 390 l 1,155,-1
 378 406 l 1,152,-1
362 390 m 1,156,-1
 362 374 l 1,157,-1
 346 374 l 1,158,-1
 346 390 l 1,159,-1
 362 390 l 1,156,-1
217 358 m 1,160,-1
 217 374 l 1,161,-1
 234 374 l 1,162,-1
 234 358 l 1,163,-1
 217 358 l 1,160,-1
266 358 m 1,164,-1
 298 358 l 1,165,-1
 298 342 l 1,166,-1
 234 342 l 1,167,-1
 234 358 l 1,168,-1
 250 358 l 1,169,-1
 250 374 l 1,170,-1
 266 374 l 1,171,-1
 266 358 l 1,164,-1
314 326 m 1,172,-1
 314 374 l 1,173,-1
 330 374 l 1,174,-1
 330 326 l 1,175,-1
 314 326 l 1,172,-1
410 358 m 1,176,-1
 394 358 l 1,177,-1
 394 374 l 1,178,-1
 410 374 l 1,179,-1
 410 358 l 1,176,-1
168 358 m 1,180,-1
 184 358 l 1,181,-1
 184 326 l 1,182,-1
 168 326 l 1,183,-1
 168 358 l 1,180,-1
410 342 m 1,184,-1
 458 342 l 1,185,-1
 458 358 l 1,186,-1
 490 358 l 1,187,-1
 490 326 l 1,188,-1
 538 326 l 1,189,-1
 538 310 l 1,190,-1
 490 310 l 1,191,-1
 490 294 l 1,192,-1
 506 294 l 1,193,-1
 506 262 l 1,194,-1
 522 262 l 1,195,-1
 522 246 l 1,196,-1
 506 246 l 1,197,-1
 506 230 l 1,198,-1
 522 230 l 1,199,-1
 522 214 l 1,200,-1
 554 214 l 1,201,-1
 554 198 l 1,202,-1
 570 198 l 1,203,-1
 570 182 l 1,204,-1
 538 182 l 1,205,-1
 538 198 l 1,206,-1
 506 198 l 1,207,-1
 506 166 l 1,208,-1
 474 166 l 1,209,-1
 474 150 l 1,210,-1
 458 150 l 1,211,-1
 458 166 l 1,212,-1
 442 166 l 1,213,-1
 442 150 l 1,214,-1
 426 150 l 1,215,-1
 426 182 l 1,216,-1
 410 182 l 1,217,-1
 410 150 l 1,218,-1
 378 150 l 1,219,-1
 378 166 l 1,220,-1
 394 166 l 1,221,-1
 394 182 l 1,222,-1
 378 182 l 1,223,-1
 378 166 l 1,224,-1
 346 166 l 1,225,-1
 346 182 l 1,226,-1
 362 182 l 1,227,-1
 362 214 l 1,228,-1
 346 214 l 1,229,-1
 346 198 l 1,230,-1
 330 198 l 1,231,-1
 330 230 l 1,232,-1
 378 230 l 1,233,-1
 378 246 l 1,234,-1
 394 246 l 1,235,-1
 394 214 l 1,236,-1
 378 214 l 1,237,-1
 378 198 l 1,238,-1
 410 198 l 1,239,-1
 410 246 l 1,240,-1
 426 246 l 1,241,-1
 426 262 l 1,242,-1
 410 262 l 1,243,-1
 410 278 l 1,244,-1
 394 278 l 1,245,-1
 394 262 l 1,246,-1
 378 262 l 1,247,-1
 378 294 l 1,248,-1
 394 294 l 1,249,-1
 394 310 l 1,250,-1
 410 310 l 1,251,-1
 410 294 l 1,252,-1
 426 294 l 1,253,-1
 426 310 l 1,254,-1
 410 310 l 1,255,-1
 410 342 l 1,184,-1
378 310 m 1,256,-1
 378 294 l 1,257,-1
 346 294 l 1,258,-1
 346 310 l 1,259,-1
 362 310 l 1,260,-1
 362 342 l 1,261,-1
 346 342 l 1,262,-1
 346 358 l 1,263,-1
 378 358 l 1,264,-1
 378 342 l 1,265,-1
 394 342 l 1,266,-1
 394 310 l 1,267,-1
 378 310 l 1,256,-1
570 310 m 1,268,-1
 554 310 l 1,269,-1
 554 326 l 1,270,-1
 538 326 l 1,271,-1
 538 342 l 1,272,-1
 554 342 l 1,273,-1
 554 358 l 1,274,-1
 570 358 l 1,275,-1
 570 310 l 1,268,-1
234 294 m 1,276,-1
 217 294 l 1,277,-1
 217 310 l 1,278,-1
 200 310 l 1,279,-1
 200 326 l 1,280,-1
 217 326 l 1,281,-1
 217 342 l 1,282,-1
 234 342 l 1,283,-1
 234 310 l 1,284,-1
 250 310 l 1,285,-1
 250 278 l 1,286,-1
 234 278 l 1,287,-1
 234 294 l 1,276,-1
298 326 m 1,288,-1
 298 294 l 1,289,-1
 314 294 l 1,290,-1
 314 262 l 1,291,-1
 298 262 l 1,292,-1
 298 278 l 1,293,-1
 266 278 l 1,294,-1
 266 294 l 1,295,-1
 282 294 l 1,296,-1
 282 310 l 1,297,-1
 250 310 l 1,298,-1
 250 326 l 1,299,-1
 298 326 l 1,288,-1
330 326 m 1,300,-1
 346 326 l 1,301,-1
 346 310 l 1,302,-1
 330 310 l 1,303,-1
 330 326 l 1,300,-1
168 310 m 1,304,-1
 200 310 l 1,305,-1
 200 294 l 1,306,-1
 168 294 l 1,307,-1
 168 310 l 1,304,-1
314 310 m 1,308,-1
 330 310 l 1,309,-1
 330 294 l 1,310,-1
 314 294 l 1,311,-1
 314 310 l 1,308,-1
458 310 m 1,312,-1
 442 310 l 1,313,-1
 442 294 l 1,314,-1
 458 294 l 1,315,-1
 458 310 l 1,312,-1
217 278 m 1,316,-1
 200 278 l 1,317,-1
 200 294 l 1,318,-1
 217 294 l 1,319,-1
 217 278 l 1,316,-1
346 278 m 1,320,-1
 330 278 l 1,321,-1
 330 294 l 1,322,-1
 346 294 l 1,323,-1
 346 278 l 1,320,-1
538 294 m 1,324,-1
 554 294 l 1,325,-1
 554 278 l 1,326,-1
 538 278 l 1,327,-1
 538 294 l 1,324,-1
442 230 m 1,328,-1
 490 230 l 1,329,-1
 490 278 l 1,330,-1
 442 278 l 1,331,-1
 442 230 l 1,328,-1
522 278 m 1,332,-1
 538 278 l 1,333,-1
 538 262 l 1,334,-1
 522 262 l 1,335,-1
 522 278 l 1,332,-1
538 230 m 1,336,-1
 538 246 l 1,337,-1
 554 246 l 1,338,-1
 554 278 l 1,339,-1
 570 278 l 1,340,-1
 570 214 l 1,341,-1
 554 214 l 1,342,-1
 554 230 l 1,343,-1
 538 230 l 1,336,-1
168 262 m 1,344,-1
 282 262 l 1,345,-1
 282 150 l 1,346,-1
 168 150 l 1,347,-1
 168 262 l 1,344,-1
314 246 m 1,348,-1
 314 262 l 1,349,-1
 330 262 l 1,350,-1
 330 230 l 1,351,-1
 298 230 l 1,352,-1
 298 246 l 1,353,-1
 314 246 l 1,348,-1
362 246 m 1,354,-1
 346 246 l 1,355,-1
 346 262 l 1,356,-1
 362 262 l 1,357,-1
 362 246 l 1,354,-1
458 262 m 1,358,-1
 474 262 l 1,359,-1
 474 246 l 1,360,-1
 458 246 l 1,361,-1
 458 262 l 1,358,-1
184 166 m 1,362,-1
 266 166 l 1,363,-1
 266 246 l 1,364,-1
 184 246 l 1,365,-1
 184 166 l 1,362,-1
200 230 m 1,366,-1
 250 230 l 1,367,-1
 250 182 l 1,368,-1
 200 182 l 1,369,-1
 200 230 l 1,366,-1
426 198 m 1,370,-1
 442 198 l 1,371,-1
 442 214 l 1,372,-1
 426 214 l 1,373,-1
 426 198 l 1,370,-1
458 182 m 1,374,-1
 490 182 l 1,375,-1
 490 214 l 1,376,-1
 458 214 l 1,377,-1
 458 182 l 1,374,-1
298 198 m 1,378,-1
 330 198 l 1,379,-1
 330 166 l 1,380,-1
 346 166 l 1,381,-1
 346 150 l 1,382,-1
 298 150 l 1,383,-1
 298 198 l 1,378,-1
522 166 m 1,384,-1
 522 150 l 1,385,-1
 506 150 l 1,386,-1
 506 166 l 1,387,-1
 522 166 l 1,384,-1
570 150 m 1,388,-1
 554 150 l 1,389,-1
 554 166 l 1,390,-1
 570 166 l 1,391,-1
 570 150 l 1,388,-1
EndSplineSet
EndChar

StartChar: exclam
Encoding: 33 33 5
Width: 214
GlyphClass: 2
Flags: W
LayerCount: 2
Fore
SplineSet
148 185 m 1,0,-1
 66 185 l 1,1,-1
 52 408 l 1,2,-1
 52 700 l 1,3,-1
 162 700 l 1,4,-1
 162 408 l 1,5,-1
 148 185 l 1,0,-1
162 0 m 1,6,-1
 52 0 l 1,7,-1
 52 110 l 1,8,-1
 162 110 l 1,9,-1
 162 0 l 1,6,-1
EndSplineSet
EndChar

StartChar: quotedbl
Encoding: 34 34 6
Width: 324
GlyphClass: 2
Flags: W
LayerCount: 2
Fore
SplineSet
117 474 m 1,0,-1
 58 474 l 1,1,-1
 32 700 l 1,2,-1
 144 700 l 1,3,-1
 117 474 l 1,0,-1
265 474 m 1,4,-1
 206 474 l 1,5,-1
 180 700 l 1,6,-1
 292 700 l 1,7,-1
 265 474 l 1,4,-1
EndSplineSet
EndChar

StartChar: numbersign
Encoding: 35 35 7
Width: 400
GlyphClass: 2
Flags: W
LayerCount: 2
Fore
SplineSet
125 0 m 1,0,-1
 45 0 l 1,1,-1
 67 204 l 1,2,-1
 17 204 l 1,3,-1
 24 275 l 1,4,-1
 74 275 l 1,5,-1
 93 465 l 1,6,-1
 42 465 l 1,7,-1
 49 536 l 1,8,-1
 100 536 l 1,9,-1
 117 700 l 1,10,-1
 196 700 l 1,11,-1
 180 536 l 1,12,-1
 254 536 l 1,13,-1
 270 700 l 1,14,-1
 349 700 l 1,15,-1
 333 536 l 1,16,-1
 384 536 l 1,17,-1
 376 465 l 1,18,-1
 326 465 l 1,19,-1
 307 275 l 1,20,-1
 358 275 l 1,21,-1
 350 204 l 1,22,-1
 300 204 l 1,23,-1
 279 0 l 1,24,-1
 200 0 l 1,25,-1
 220 204 l 1,26,-1
 146 204 l 1,27,-1
 125 0 l 1,0,-1
172 465 m 1,28,-1
 153 275 l 1,29,-1
 228 275 l 1,30,-1
 246 465 l 1,31,-1
 172 465 l 1,28,-1
EndSplineSet
EndChar

StartChar: dollar
Encoding: 36 36 8
Width: 400
GlyphClass: 2
Flags: W
LayerCount: 2
Fore
SplineSet
364 182 m 0,0,1
 364 114 364 114 333.5 71 c 128,-1,2
 303 28 303 28 245 16 c 1,3,-1
 245 -55 l 1,4,-1
 155 -55 l 1,5,-1
 155 15 l 1,6,7
 36 38 36 38 36 180 c 2,8,-1
 36 226 l 1,9,-1
 140 226 l 1,10,-1
 140 173 l 2,11,12
 140 112 140 112 197 112 c 128,-1,13
 254 112 254 112 254 175 c 0,14,15
 254 214 254 214 233.5 245.5 c 128,-1,16
 213 277 213 277 160 319 c 0,17,18
 94 372 94 372 66.5 418 c 128,-1,19
 39 464 39 464 39 522 c 0,20,21
 39 658 39 658 155 684 c 1,22,-1
 155 745 l 1,23,-1
 245 745 l 1,24,-1
 245 685 l 1,25,26
 363 662 363 662 363 520 c 2,27,-1
 363 500 l 1,28,-1
 259 500 l 1,29,-1
 259 527 l 2,30,31
 259 589 259 589 204 589 c 128,-1,32
 149 589 149 589 149 529 c 0,33,34
 149 493 149 493 169.5 462 c 128,-1,35
 190 431 190 431 243 389 c 0,36,37
 310 335 310 335 337 288.5 c 128,-1,38
 364 242 364 242 364 182 c 0,0,1
EndSplineSet
EndChar

StartChar: percent
Encoding: 37 37 9
Width: 561
GlyphClass: 2
Flags: W
LayerCount: 2
Fore
SplineSet
21 423 m 2,0,-1
 21 598 l 2,1,2
 21 652 21 652 48 681 c 128,-1,3
 75 710 75 710 127 710 c 128,-1,4
 179 710 179 710 206 681 c 128,-1,5
 233 652 233 652 233 598 c 2,6,-1
 233 423 l 2,7,8
 233 369 233 369 206 340 c 128,-1,9
 179 311 179 311 127 311 c 128,-1,10
 75 311 75 311 48 340 c 128,-1,11
 21 369 21 369 21 423 c 2,0,-1
180 0 m 1,12,-1
 110 0 l 1,13,-1
 381 700 l 1,14,-1
 451 700 l 1,15,-1
 180 0 l 1,12,-1
163 418 m 2,16,-1
 163 603 l 2,17,18
 163 647 163 647 127 647 c 128,-1,19
 91 647 91 647 91 603 c 2,20,-1
 91 418 l 2,21,22
 91 374 91 374 127 374 c 128,-1,23
 163 374 163 374 163 418 c 2,16,-1
328 102 m 2,24,-1
 328 277 l 2,25,26
 328 331 328 331 355 360 c 128,-1,27
 382 389 382 389 434 389 c 128,-1,28
 486 389 486 389 513 360 c 128,-1,29
 540 331 540 331 540 277 c 2,30,-1
 540 102 l 2,31,32
 540 48 540 48 513 19 c 128,-1,33
 486 -10 486 -10 434 -10 c 128,-1,34
 382 -10 382 -10 355 19 c 128,-1,35
 328 48 328 48 328 102 c 2,24,-1
470 97 m 2,36,-1
 470 282 l 2,37,38
 470 326 470 326 434 326 c 128,-1,39
 398 326 398 326 398 282 c 2,40,-1
 398 97 l 2,41,42
 398 53 398 53 434 53 c 128,-1,43
 470 53 470 53 470 97 c 2,36,-1
EndSplineSet
EndChar

StartChar: ampersand
Encoding: 38 38 10
Width: 414
GlyphClass: 2
Flags: W
LayerCount: 2
Fore
SplineSet
394 406 m 1,0,-1
 394 308 l 1,1,-1
 363 308 l 1,2,-1
 363 147 l 2,3,4
 363 56 363 56 377 0 c 1,5,-1
 279 0 l 1,6,7
 272 10 272 10 270 61 c 1,8,9
 237 -10 237 -10 155 -10 c 0,10,11
 32 -10 32 -10 32 139 c 2,12,-1
 32 217 l 2,13,14
 32 331 32 331 113 361 c 1,15,-1
 113 363 l 1,16,17
 35 392 35 392 35 504 c 2,18,-1
 35 537 l 2,19,20
 35 621 35 621 76.5 665.5 c 128,-1,21
 118 710 118 710 199 710 c 128,-1,22
 280 710 280 710 321.5 665 c 128,-1,23
 363 620 363 620 363 536 c 2,24,-1
 363 510 l 1,25,-1
 261 510 l 1,26,-1
 261 545 l 2,27,28
 261 612 261 612 203 612 c 0,29,30
 143 612 143 612 143 540 c 2,31,-1
 143 481 l 2,32,33
 143 442 143 442 160 424 c 128,-1,34
 177 406 177 406 215 406 c 2,35,-1
 394 406 l 1,0,-1
257 166 m 2,36,-1
 257 308 l 1,37,-1
 213 308 l 2,38,39
 176 308 176 308 158 288 c 128,-1,40
 140 268 140 268 140 218 c 2,41,-1
 140 146 l 2,42,43
 140 85 140 85 192 85 c 0,44,45
 257 85 257 85 257 166 c 2,36,-1
EndSplineSet
PairPos2: "'kern' Horizontal Kerning in Latin lookup 0 per glyph data 0" seven dx=0 dy=0 dh=0 dv=0 dx=0 dy=0 dh=0 dv=0
EndChar

StartChar: quotesingle
Encoding: 39 39 11
Width: 176
GlyphClass: 2
Flags: W
LayerCount: 2
Fore
SplineSet
117 474 m 1,0,-1
 58 474 l 1,1,-1
 32 700 l 1,2,-1
 144 700 l 1,3,-1
 117 474 l 1,0,-1
EndSplineSet
EndChar

StartChar: parenleft
Encoding: 40 40 12
Width: 272
GlyphClass: 2
Flags: W
LayerCount: 2
Fore
SplineSet
238 -100 m 1,0,-1
 206 -100 l 2,1,2
 127 -100 127 -100 91 -66.5 c 128,-1,3
 55 -33 55 -33 55 50 c 2,4,-1
 55 550 l 2,5,6
 55 629 55 629 89 664.5 c 128,-1,7
 123 700 123 700 206 700 c 2,8,-1
 238 700 l 1,9,-1
 238 618 l 1,10,-1
 212 618 l 2,11,12
 182 618 182 618 168.5 603.5 c 128,-1,13
 155 589 155 589 155 550 c 2,14,-1
 155 50 l 2,15,16
 155 13 155 13 167.5 -2.5 c 128,-1,17
 180 -18 180 -18 212 -18 c 2,18,-1
 238 -18 l 1,19,-1
 238 -100 l 1,0,-1
EndSplineSet
EndChar

StartChar: parenright
Encoding: 41 41 13
Width: 272
GlyphClass: 2
Flags: W
LayerCount: 2
Fore
SplineSet
66 -100 m 2,0,-1
 33 -100 l 1,1,-1
 33 -18 l 1,2,-1
 59 -18 l 2,3,4
 89 -18 89 -18 102.5 -3.5 c 128,-1,5
 116 11 116 11 116 50 c 2,6,-1
 116 550 l 2,7,8
 116 587 116 587 103.5 602.5 c 128,-1,9
 91 618 91 618 59 618 c 2,10,-1
 33 618 l 1,11,-1
 33 700 l 1,12,-1
 66 700 l 2,13,14
 145 700 145 700 180.5 666.5 c 128,-1,15
 216 633 216 633 216 550 c 2,16,-1
 216 50 l 2,17,18
 216 -29 216 -29 182 -64.5 c 128,-1,19
 148 -100 148 -100 66 -100 c 2,0,-1
EndSplineSet
EndChar

StartChar: asterisk
Encoding: 42 42 14
Width: 424
GlyphClass: 2
Flags: W
LayerCount: 2
Fore
SplineSet
212 462 m 1,0,-1
 135 327 l 1,1,-1
 63 380 l 1,2,-1
 169 492 l 1,3,-1
 16 525 l 1,4,-1
 44 610 l 1,5,-1
 187 542 l 1,6,-1
 167 700 l 1,7,-1
 257 700 l 1,8,-1
 237 542 l 1,9,-1
 380 610 l 1,10,-1
 408 525 l 1,11,-1
 255 492 l 1,12,-1
 361 380 l 1,13,-1
 289 327 l 1,14,-1
 212 462 l 1,0,-1
EndSplineSet
PairPos2: "'kern' Horizontal Kerning in Latin lookup 0 per glyph data 0" four dx=0 dy=0 dh=0 dv=0 dx=0 dy=0 dh=0 dv=0
EndChar

StartChar: plus
Encoding: 43 43 15
Width: 400
GlyphClass: 2
Flags: W
LayerCount: 2
Fore
SplineSet
239 125 m 1,0,-1
 161 125 l 1,1,-1
 161 262 l 1,2,-1
 27 262 l 1,3,-1
 27 340 l 1,4,-1
 161 340 l 1,5,-1
 161 475 l 1,6,-1
 239 475 l 1,7,-1
 239 340 l 1,8,-1
 373 340 l 1,9,-1
 373 262 l 1,10,-1
 239 262 l 1,11,-1
 239 125 l 1,0,-1
EndSplineSet
EndChar

StartChar: comma
Encoding: 44 44 16
Width: 200
GlyphClass: 2
Flags: W
LayerCount: 2
Fore
SplineSet
92 -120 m 1,0,-1
 41 -120 l 1,1,-1
 83 0 l 1,2,-1
 45 0 l 1,3,-1
 45 110 l 1,4,-1
 155 110 l 1,5,-1
 155 11 l 1,6,-1
 92 -120 l 1,0,-1
EndSplineSet
EndChar

StartChar: hyphen
Encoding: 45 45 17
Width: 270
GlyphClass: 2
Flags: W
LayerCount: 2
Fore
SplineSet
245 255 m 1,0,-1
 25 255 l 1,1,-1
 25 345 l 1,2,-1
 245 345 l 1,3,-1
 245 255 l 1,0,-1
EndSplineSet
EndChar

StartChar: period
Encoding: 46 46 18
Width: 200
GlyphClass: 2
Flags: W
LayerCount: 2
Fore
SplineSet
155 0 m 1,0,-1
 45 0 l 1,1,-1
 45 110 l 1,2,-1
 155 110 l 1,3,-1
 155 0 l 1,0,-1
EndSplineSet
EndChar

StartChar: slash
Encoding: 47 47 19
Width: 387
GlyphClass: 2
Flags: W
LayerCount: 2
Fore
SplineSet
103 -100 m 1,0,-1
 8 -100 l 1,1,-1
 284 700 l 1,2,-1
 379 700 l 1,3,-1
 103 -100 l 1,0,-1
EndSplineSet
Substitution2: "'frac' Diagonal Fractions in Latin lookup 17 subtable" fraction
Substitution2: "'aalt' Access All Alternates in Latin lookup 0 subtable" fraction
PairPos2: "'kern' Horizontal Kerning in Latin lookup 0 per glyph data 0" four dx=0 dy=0 dh=0 dv=0 dx=0 dy=0 dh=0 dv=0
PairPos2: "'kern' Horizontal Kerning in Latin lookup 0 per glyph data 0" slash dx=0 dy=0 dh=0 dv=0 dx=0 dy=0 dh=0 dv=0
EndChar

StartChar: zero
Encoding: 48 48 20
Width: 400
GlyphClass: 2
Flags: W
LayerCount: 2
Fore
SplineSet
33 166 m 2,0,-1
 33 534 l 2,1,2
 33 618 33 618 76 664 c 128,-1,3
 119 710 119 710 200 710 c 128,-1,4
 281 710 281 710 324 664 c 128,-1,5
 367 618 367 618 367 534 c 2,6,-1
 367 166 l 2,7,8
 367 82 367 82 324 36 c 128,-1,9
 281 -10 281 -10 200 -10 c 128,-1,10
 119 -10 119 -10 76 36 c 128,-1,11
 33 82 33 82 33 166 c 2,0,-1
257 159 m 2,12,-1
 257 541 l 2,13,14
 257 610 257 610 200 610 c 128,-1,15
 143 610 143 610 143 541 c 2,16,-1
 143 159 l 2,17,18
 143 90 143 90 200 90 c 128,-1,19
 257 90 257 90 257 159 c 2,12,-1
EndSplineSet
Substitution2: "'tnum' Tabular Numbers in Latin lookup 23 subtable" zero.tnum
Substitution2: "'frac' Diagonal Fractions in Latin lookup 18 subtable" zero.numr
Substitution2: "'dnom' Denominators in Latin lookup 16 subtable" zero.dnom
Substitution2: "'numr' Numerators in Latin lookup 15 subtable" zero.numr
Substitution2: "'sups' Superscript in Latin lookup 14 subtable" uni2070
Substitution2: "'sinf' Scientific Inferiors in Latin lookup 13 subtable" uni2080
Substitution2: "'subs' Subscript in Latin lookup 12 subtable" uni2080
AlternateSubs2: "'aalt' Access All Alternates in Latin lookup 1 subtable" uni2080 uni2070 zero.numr zero.dnom zero.tnum
EndChar

StartChar: one
Encoding: 49 49 21
Width: 291
GlyphClass: 2
Flags: W
LayerCount: 2
Fore
SplineSet
243 0 m 1,0,-1
 133 0 l 1,1,-1
 133 534 l 1,2,-1
 18 534 l 1,3,-1
 18 612 l 1,4,5
 87 612 87 612 118 630 c 0,6,7
 150 650 150 650 169 700 c 1,8,-1
 243 700 l 1,9,-1
 243 0 l 1,0,-1
EndSplineSet
Substitution2: "'tnum' Tabular Numbers in Latin lookup 23 subtable" one.tnum
Substitution2: "'frac' Diagonal Fractions in Latin lookup 18 subtable" one.numr
Substitution2: "'dnom' Denominators in Latin lookup 16 subtable" one.dnom
Substitution2: "'numr' Numerators in Latin lookup 15 subtable" one.numr
Substitution2: "'sups' Superscript in Latin lookup 14 subtable" uni00B9
Substitution2: "'sinf' Scientific Inferiors in Latin lookup 13 subtable" uni2081
Substitution2: "'subs' Subscript in Latin lookup 12 subtable" uni2081
AlternateSubs2: "'aalt' Access All Alternates in Latin lookup 1 subtable" uni2081 uni00B9 one.numr one.dnom one.tnum
PairPos2: "'kern' Horizontal Kerning in Latin lookup 0 per glyph data 0" one dx=0 dy=0 dh=0 dv=0 dx=0 dy=0 dh=0 dv=0
EndChar

StartChar: two
Encoding: 50 50 22
Width: 371
GlyphClass: 2
Flags: W
LayerCount: 2
Fore
SplineSet
342 0 m 1,0,-1
 24 0 l 1,1,-1
 24 76 l 2,2,3
 24 154 24 154 48 209 c 128,-1,4
 72 264 72 264 134 329 c 0,5,6
 198 398 198 398 219 438 c 0,7,8
 242 482 242 482 242 530 c 0,9,10
 242 574 242 574 228 592 c 128,-1,11
 214 610 214 610 185 610 c 0,12,13
 128 610 128 610 128 541 c 2,14,-1
 128 466 l 1,15,-1
 24 466 l 1,16,-1
 24 534 l 2,17,18
 24 619 24 619 66 664.5 c 128,-1,19
 108 710 108 710 188 710 c 128,-1,20
 268 710 268 710 310 664.5 c 128,-1,21
 352 619 352 619 352 534 c 0,22,23
 352 469 352 469 321 410 c 0,24,25
 290 349 290 349 216 271 c 0,26,27
 168 220 168 220 150.5 187 c 128,-1,28
 133 154 133 154 133 115 c 2,29,-1
 133 100 l 1,30,-1
 342 100 l 1,31,-1
 342 0 l 1,0,-1
EndSplineSet
Substitution2: "'tnum' Tabular Numbers in Latin lookup 23 subtable" two.tnum
Substitution2: "'frac' Diagonal Fractions in Latin lookup 18 subtable" two.numr
Substitution2: "'dnom' Denominators in Latin lookup 16 subtable" two.dnom
Substitution2: "'numr' Numerators in Latin lookup 15 subtable" two.numr
Substitution2: "'sups' Superscript in Latin lookup 14 subtable" uni00B2
Substitution2: "'sinf' Scientific Inferiors in Latin lookup 13 subtable" uni2082
Substitution2: "'subs' Subscript in Latin lookup 12 subtable" uni2082
AlternateSubs2: "'aalt' Access All Alternates in Latin lookup 1 subtable" uni2082 uni00B2 two.numr two.dnom two.tnum
PairPos2: "'kern' Horizontal Kerning in Latin lookup 0 per glyph data 0" seven dx=0 dy=0 dh=0 dv=0 dx=0 dy=0 dh=0 dv=0
PairPos2: "'kern' Horizontal Kerning in Latin lookup 0 per glyph data 0" four dx=0 dy=0 dh=0 dv=0 dx=0 dy=0 dh=0 dv=0
PairPos2: "'kern' Horizontal Kerning in Latin lookup 0 per glyph data 0" two dx=0 dy=0 dh=0 dv=0 dx=0 dy=0 dh=0 dv=0
EndChar

StartChar: three
Encoding: 51 51 23
Width: 374
GlyphClass: 2
Flags: W
LayerCount: 2
Fore
SplineSet
20 164 m 2,0,-1
 20 221 l 1,1,-1
 124 221 l 1,2,-1
 124 159 l 2,3,4
 124 90 124 90 181 90 c 0,5,6
 210 90 210 90 224 108 c 128,-1,7
 238 126 238 126 238 169 c 2,8,-1
 238 226 l 2,9,10
 238 274 238 274 221 294.5 c 128,-1,11
 204 315 204 315 166 315 c 2,12,-1
 129 315 l 1,13,-1
 129 415 l 1,14,-1
 169 415 l 2,15,16
 203 415 203 415 219 432.5 c 128,-1,17
 235 450 235 450 235 489 c 2,18,-1
 235 540 l 2,19,20
 235 610 235 610 180 610 c 0,21,22
 127 610 127 610 127 545 c 2,23,-1
 127 499 l 1,24,-1
 23 499 l 1,25,-1
 23 536 l 2,26,27
 23 620 23 620 64.5 665 c 128,-1,28
 106 710 106 710 184 710 c 0,29,30
 263 710 263 710 304 665.5 c 128,-1,31
 345 621 345 621 345 537 c 2,32,-1
 345 512 l 2,33,34
 345 400 345 400 267 371 c 1,35,-1
 267 369 l 1,36,37
 348 339 348 339 348 225 c 2,38,-1
 348 163 l 2,39,40
 348 79 348 79 306.5 34.5 c 128,-1,41
 265 -10 265 -10 184 -10 c 128,-1,42
 103 -10 103 -10 61.5 35 c 128,-1,43
 20 80 20 80 20 164 c 2,0,-1
EndSplineSet
Substitution2: "'tnum' Tabular Numbers in Latin lookup 23 subtable" three.tnum
Substitution2: "'frac' Diagonal Fractions in Latin lookup 18 subtable" three.numr
Substitution2: "'dnom' Denominators in Latin lookup 16 subtable" three.dnom
Substitution2: "'numr' Numerators in Latin lookup 15 subtable" three.numr
Substitution2: "'sups' Superscript in Latin lookup 14 subtable" uni00B3
Substitution2: "'sinf' Scientific Inferiors in Latin lookup 13 subtable" uni2083
Substitution2: "'subs' Subscript in Latin lookup 12 subtable" uni2083
AlternateSubs2: "'aalt' Access All Alternates in Latin lookup 1 subtable" uni2083 uni00B3 three.numr three.dnom three.tnum
PairPos2: "'kern' Horizontal Kerning in Latin lookup 0 per glyph data 0" zero dx=0 dy=0 dh=0 dv=0 dx=0 dy=0 dh=0 dv=0
EndChar

StartChar: four
Encoding: 52 52 24
Width: 399
GlyphClass: 2
Flags: W
LayerCount: 2
Fore
SplineSet
334 0 m 1,0,-1
 224 0 l 1,1,-1
 224 127 l 1,2,-1
 14 127 l 1,3,-1
 14 227 l 1,4,-1
 214 700 l 1,5,-1
 334 700 l 1,6,-1
 334 227 l 1,7,-1
 386 227 l 1,8,-1
 386 127 l 1,9,-1
 334 127 l 1,10,-1
 334 0 l 1,0,-1
224 505 m 1,11,-1
 114 227 l 1,12,-1
 224 227 l 1,13,-1
 224 505 l 1,11,-1
EndSplineSet
Substitution2: "'tnum' Tabular Numbers in Latin lookup 23 subtable" four.tnum
Substitution2: "'frac' Diagonal Fractions in Latin lookup 18 subtable" four.numr
Substitution2: "'dnom' Denominators in Latin lookup 16 subtable" four.dnom
Substitution2: "'numr' Numerators in Latin lookup 15 subtable" four.numr
Substitution2: "'sups' Superscript in Latin lookup 14 subtable" uni2074
Substitution2: "'sinf' Scientific Inferiors in Latin lookup 13 subtable" uni2084
Substitution2: "'subs' Subscript in Latin lookup 12 subtable" uni2084
AlternateSubs2: "'aalt' Access All Alternates in Latin lookup 1 subtable" uni2084 uni2074 four.numr four.dnom four.tnum
PairPos2: "'kern' Horizontal Kerning in Latin lookup 0 per glyph data 0" seven dx=0 dy=0 dh=0 dv=0 dx=0 dy=0 dh=0 dv=0
PairPos2: "'kern' Horizontal Kerning in Latin lookup 0 per glyph data 0" one dx=0 dy=0 dh=0 dv=0 dx=0 dy=0 dh=0 dv=0
EndChar

StartChar: five
Encoding: 53 53 25
Width: 383
GlyphClass: 2
Flags: W
LayerCount: 2
Fore
SplineSet
29 166 m 2,0,-1
 29 221 l 1,1,-1
 133 221 l 1,2,-1
 133 158 l 2,3,4
 133 90 133 90 190 90 c 128,-1,5
 247 90 247 90 247 158 c 2,6,-1
 247 315 l 2,7,8
 247 384 247 384 190 384 c 128,-1,9
 133 384 133 384 133 315 c 2,10,-1
 133 309 l 1,11,-1
 29 309 l 1,12,-1
 49 700 l 1,13,-1
 339 700 l 1,14,-1
 339 600 l 1,15,-1
 147 600 l 1,16,-1
 138 433 l 1,17,18
 170 484 170 484 235 484 c 0,19,20
 357 484 357 484 357 324 c 2,21,-1
 357 166 l 2,22,23
 357 81 357 81 315 35.5 c 128,-1,24
 273 -10 273 -10 193 -10 c 128,-1,25
 113 -10 113 -10 71 35.5 c 128,-1,26
 29 81 29 81 29 166 c 2,0,-1
EndSplineSet
Substitution2: "'tnum' Tabular Numbers in Latin lookup 23 subtable" five.tnum
Substitution2: "'frac' Diagonal Fractions in Latin lookup 18 subtable" five.numr
Substitution2: "'dnom' Denominators in Latin lookup 16 subtable" five.dnom
Substitution2: "'numr' Numerators in Latin lookup 15 subtable" five.numr
Substitution2: "'sups' Superscript in Latin lookup 14 subtable" uni2075
Substitution2: "'sinf' Scientific Inferiors in Latin lookup 13 subtable" uni2085
Substitution2: "'subs' Subscript in Latin lookup 12 subtable" uni2085
AlternateSubs2: "'aalt' Access All Alternates in Latin lookup 1 subtable" uni2085 uni2075 five.numr five.dnom five.tnum
PairPos2: "'kern' Horizontal Kerning in Latin lookup 0 per glyph data 0" seven dx=0 dy=0 dh=0 dv=0 dx=0 dy=0 dh=0 dv=0
EndChar

StartChar: six
Encoding: 54 54 26
Width: 393
GlyphClass: 2
Flags: W
LayerCount: 2
Fore
SplineSet
33 166 m 2,0,-1
 33 528 l 2,1,2
 33 710 33 710 201 710 c 0,3,4
 281 710 281 710 323 664.5 c 128,-1,5
 365 619 365 619 365 534 c 2,6,-1
 365 521 l 1,7,-1
 261 521 l 1,8,-1
 261 541 l 2,9,10
 261 610 261 610 204 610 c 0,11,12
 172 610 172 610 157.5 590.5 c 128,-1,13
 143 571 143 571 143 524 c 2,14,-1
 143 390 l 1,15,16
 176 451 176 451 245 451 c 0,17,18
 367 451 367 451 367 291 c 2,19,-1
 367 166 l 2,20,21
 367 82 367 82 324 36 c 128,-1,22
 281 -10 281 -10 200 -10 c 128,-1,23
 119 -10 119 -10 76 36 c 128,-1,24
 33 82 33 82 33 166 c 2,0,-1
257 158 m 2,25,-1
 257 282 l 2,26,27
 257 351 257 351 200 351 c 128,-1,28
 143 351 143 351 143 282 c 2,29,-1
 143 158 l 2,30,31
 143 90 143 90 200 90 c 128,-1,32
 257 90 257 90 257 158 c 2,25,-1
EndSplineSet
Substitution2: "'tnum' Tabular Numbers in Latin lookup 23 subtable" six.tnum
Substitution2: "'frac' Diagonal Fractions in Latin lookup 18 subtable" six.numr
Substitution2: "'dnom' Denominators in Latin lookup 16 subtable" six.dnom
Substitution2: "'numr' Numerators in Latin lookup 15 subtable" six.numr
Substitution2: "'sups' Superscript in Latin lookup 14 subtable" uni2076
Substitution2: "'sinf' Scientific Inferiors in Latin lookup 13 subtable" uni2086
Substitution2: "'subs' Subscript in Latin lookup 12 subtable" uni2086
AlternateSubs2: "'aalt' Access All Alternates in Latin lookup 1 subtable" uni2086 uni2076 six.numr six.dnom six.tnum
EndChar

StartChar: seven
Encoding: 55 55 27
Width: 356
GlyphClass: 2
Flags: W
LayerCount: 2
Fore
SplineSet
170 0 m 1,0,-1
 55 0 l 1,1,-1
 234 600 l 1,2,-1
 12 600 l 1,3,-1
 12 700 l 1,4,-1
 342 700 l 1,5,-1
 342 604 l 1,6,-1
 170 0 l 1,0,-1
EndSplineSet
Substitution2: "'tnum' Tabular Numbers in Latin lookup 23 subtable" seven.tnum
Substitution2: "'frac' Diagonal Fractions in Latin lookup 18 subtable" seven.numr
Substitution2: "'dnom' Denominators in Latin lookup 16 subtable" seven.dnom
Substitution2: "'numr' Numerators in Latin lookup 15 subtable" seven.numr
Substitution2: "'sups' Superscript in Latin lookup 14 subtable" uni2077
Substitution2: "'sinf' Scientific Inferiors in Latin lookup 13 subtable" uni2087
Substitution2: "'subs' Subscript in Latin lookup 12 subtable" uni2087
AlternateSubs2: "'aalt' Access All Alternates in Latin lookup 1 subtable" uni2087 uni2077 seven.numr seven.dnom seven.tnum
PairPos2: "'kern' Horizontal Kerning in Latin lookup 0 per glyph data 0" at dx=0 dy=0 dh=0 dv=0 dx=0 dy=0 dh=0 dv=0
PairPos2: "'kern' Horizontal Kerning in Latin lookup 0 per glyph data 0" seven dx=0 dy=0 dh=0 dv=0 dx=0 dy=0 dh=0 dv=0
PairPos2: "'kern' Horizontal Kerning in Latin lookup 0 per glyph data 0" four dx=0 dy=0 dh=0 dv=0 dx=0 dy=0 dh=0 dv=0
PairPos2: "'kern' Horizontal Kerning in Latin lookup 0 per glyph data 0" slash dx=0 dy=0 dh=0 dv=0 dx=0 dy=0 dh=0 dv=0
PairPos2: "'kern' Horizontal Kerning in Latin lookup 0 per glyph data 0" ampersand dx=0 dy=0 dh=0 dv=0 dx=0 dy=0 dh=0 dv=0
EndChar

StartChar: eight
Encoding: 56 56 28
Width: 396
GlyphClass: 2
Flags: W
LayerCount: 2
Fore
SplineSet
26 163 m 2,0,-1
 26 225 l 2,1,2
 26 330 26 330 98 368 c 1,3,-1
 98 370 l 1,4,5
 30 408 30 408 30 508 c 2,6,-1
 30 539 l 2,7,8
 30 622 30 622 73.5 666 c 128,-1,9
 117 710 117 710 198 710 c 128,-1,10
 279 710 279 710 322.5 666 c 128,-1,11
 366 622 366 622 366 539 c 2,12,-1
 366 508 l 2,13,14
 366 408 366 408 298 370 c 1,15,-1
 298 368 l 1,16,17
 370 330 370 330 370 225 c 2,18,-1
 370 163 l 2,19,20
 370 79 370 79 325.5 34.5 c 128,-1,21
 281 -10 281 -10 198 -10 c 128,-1,22
 115 -10 115 -10 70.5 34.5 c 128,-1,23
 26 79 26 79 26 163 c 2,0,-1
256 485 m 2,24,-1
 256 542 l 2,25,26
 256 610 256 610 198 610 c 128,-1,27
 140 610 140 610 140 542 c 2,28,-1
 140 485 l 2,29,30
 140 415 140 415 198 415 c 128,-1,31
 256 415 256 415 256 485 c 2,24,-1
260 169 m 2,32,-1
 260 236 l 2,33,34
 260 315 260 315 198 315 c 128,-1,35
 136 315 136 315 136 236 c 2,36,-1
 136 169 l 2,37,38
 136 90 136 90 198 90 c 128,-1,39
 260 90 260 90 260 169 c 2,32,-1
EndSplineSet
Substitution2: "'tnum' Tabular Numbers in Latin lookup 23 subtable" eight.tnum
Substitution2: "'frac' Diagonal Fractions in Latin lookup 18 subtable" eight.numr
Substitution2: "'dnom' Denominators in Latin lookup 16 subtable" eight.dnom
Substitution2: "'numr' Numerators in Latin lookup 15 subtable" eight.numr
Substitution2: "'sups' Superscript in Latin lookup 14 subtable" uni2078
Substitution2: "'sinf' Scientific Inferiors in Latin lookup 13 subtable" uni2088
Substitution2: "'subs' Subscript in Latin lookup 12 subtable" uni2088
AlternateSubs2: "'aalt' Access All Alternates in Latin lookup 1 subtable" uni2088 uni2078 eight.numr eight.dnom eight.tnum
EndChar

StartChar: nine
Encoding: 57 57 29
Width: 393
GlyphClass: 2
Flags: W
LayerCount: 2
Fore
SplineSet
192 -10 m 0,0,1
 112 -10 112 -10 70 35.5 c 128,-1,2
 28 81 28 81 28 166 c 2,3,-1
 28 179 l 1,4,-1
 132 179 l 1,5,-1
 132 159 l 2,6,7
 132 90 132 90 189 90 c 0,8,9
 221 90 221 90 235.5 109.5 c 128,-1,10
 250 129 250 129 250 176 c 2,11,-1
 250 310 l 1,12,13
 217 249 217 249 148 249 c 0,14,15
 26 249 26 249 26 409 c 2,16,-1
 26 534 l 2,17,18
 26 618 26 618 69 664 c 128,-1,19
 112 710 112 710 193 710 c 128,-1,20
 274 710 274 710 317 664 c 128,-1,21
 360 618 360 618 360 534 c 2,22,-1
 360 172 l 2,23,24
 360 -10 360 -10 192 -10 c 0,0,1
250 418 m 2,25,-1
 250 542 l 2,26,27
 250 610 250 610 193 610 c 128,-1,28
 136 610 136 610 136 542 c 2,29,-1
 136 418 l 2,30,31
 136 349 136 349 193 349 c 128,-1,32
 250 349 250 349 250 418 c 2,25,-1
EndSplineSet
Substitution2: "'tnum' Tabular Numbers in Latin lookup 23 subtable" nine.tnum
Substitution2: "'frac' Diagonal Fractions in Latin lookup 18 subtable" nine.numr
Substitution2: "'dnom' Denominators in Latin lookup 16 subtable" nine.dnom
Substitution2: "'numr' Numerators in Latin lookup 15 subtable" nine.numr
Substitution2: "'sups' Superscript in Latin lookup 14 subtable" uni2079
Substitution2: "'sinf' Scientific Inferiors in Latin lookup 13 subtable" uni2089
Substitution2: "'subs' Subscript in Latin lookup 12 subtable" uni2089
AlternateSubs2: "'aalt' Access All Alternates in Latin lookup 1 subtable" uni2089 uni2079 nine.numr nine.dnom nine.tnum
EndChar

StartChar: colon
Encoding: 58 58 30
Width: 200
GlyphClass: 2
Flags: W
LayerCount: 2
Fore
SplineSet
155 381 m 1,0,-1
 45 381 l 1,1,-1
 45 491 l 1,2,-1
 155 491 l 1,3,-1
 155 381 l 1,0,-1
155 0 m 1,4,-1
 45 0 l 1,5,-1
 45 110 l 1,6,-1
 155 110 l 1,7,-1
 155 0 l 1,4,-1
EndSplineSet
EndChar

StartChar: semicolon
Encoding: 59 59 31
Width: 200
GlyphClass: 2
Flags: W
LayerCount: 2
Fore
SplineSet
155 381 m 1,0,-1
 45 381 l 1,1,-1
 45 491 l 1,2,-1
 155 491 l 1,3,-1
 155 381 l 1,0,-1
92 -120 m 1,4,-1
 41 -120 l 1,5,-1
 83 0 l 1,6,-1
 45 0 l 1,7,-1
 45 110 l 1,8,-1
 155 110 l 1,9,-1
 155 11 l 1,10,-1
 92 -120 l 1,4,-1
EndSplineSet
EndChar

StartChar: less
Encoding: 60 60 32
Width: 400
GlyphClass: 2
Flags: W
LayerCount: 2
Fore
SplineSet
348 211 m 1,0,-1
 348 131 l 1,1,-1
 42 263 l 1,2,-1
 42 337 l 1,3,-1
 348 469 l 1,4,-1
 348 389 l 1,5,-1
 137 300 l 1,6,-1
 348 211 l 1,0,-1
EndSplineSet
EndChar

StartChar: equal
Encoding: 61 61 33
Width: 400
GlyphClass: 2
Flags: W
LayerCount: 2
Fore
SplineSet
363 342 m 1,0,-1
 37 342 l 1,1,-1
 37 420 l 1,2,-1
 363 420 l 1,3,-1
 363 342 l 1,0,-1
363 180 m 1,4,-1
 37 180 l 1,5,-1
 37 258 l 1,6,-1
 363 258 l 1,7,-1
 363 180 l 1,4,-1
EndSplineSet
EndChar

StartChar: greater
Encoding: 62 62 34
Width: 400
GlyphClass: 2
Flags: W
LayerCount: 2
Fore
SplineSet
358 263 m 1,0,-1
 52 131 l 1,1,-1
 52 211 l 1,2,-1
 263 300 l 1,3,-1
 52 389 l 1,4,-1
 52 469 l 1,5,-1
 358 337 l 1,6,-1
 358 263 l 1,0,-1
EndSplineSet
EndChar

StartChar: question
Encoding: 63 63 35
Width: 360
GlyphClass: 2
Flags: W
LayerCount: 2
Fore
SplineSet
212 185 m 1,0,-1
 116 185 l 1,1,-1
 116 227 l 2,2,3
 116 302 116 302 170 379 c 0,4,5
 206 429 206 429 219 464 c 128,-1,6
 232 499 232 499 232 541 c 0,7,8
 232 610 232 610 177 610 c 128,-1,9
 122 610 122 610 122 541 c 2,10,-1
 122 465 l 1,11,-1
 18 465 l 1,12,-1
 18 534 l 2,13,14
 18 619 18 619 59.5 664.5 c 128,-1,15
 101 710 101 710 179 710 c 0,16,17
 259 710 259 710 300.5 664.5 c 128,-1,18
 342 619 342 619 342 534 c 0,19,20
 342 447 342 447 269 350 c 0,21,22
 212 274 212 274 212 223 c 2,23,-1
 212 185 l 1,0,-1
219 0 m 1,24,-1
 109 0 l 1,25,-1
 109 110 l 1,26,-1
 219 110 l 1,27,-1
 219 0 l 1,24,-1
EndSplineSet
EndChar

StartChar: at
Encoding: 64 64 36
Width: 692
GlyphClass: 2
Flags: W
LayerCount: 2
Fore
SplineSet
421 497 m 1,0,-1
 518 497 l 1,1,-1
 488 227 l 2,2,3
 487 222 487 222 487 215 c 0,4,5
 487 189 487 189 512 189 c 0,6,7
 547 189 547 189 567 261 c 0,8,9
 586 331 586 331 586 418 c 0,10,11
 586 515 586 515 529.5 570 c 128,-1,12
 473 625 473 625 372 625 c 0,13,14
 118 625 118 625 118 245 c 0,15,16
 118 123 118 123 185 58.5 c 128,-1,17
 252 -6 252 -6 376 -6 c 0,18,19
 476 -6 476 -6 556 53 c 1,20,-1
 548 -43 l 1,21,22
 472 -90 472 -90 374 -90 c 0,23,24
 208 -90 208 -90 116 0 c 128,-1,25
 24 90 24 90 24 255 c 0,26,27
 24 464 24 464 112 586 c 0,28,29
 200 710 200 710 369 710 c 0,30,31
 513 710 513 710 591 634 c 128,-1,32
 669 558 669 558 669 416 c 0,33,34
 669 295 669 295 631 204 c 0,35,36
 612 155 612 155 575.5 127 c 128,-1,37
 539 99 539 99 491 99 c 0,38,39
 413 99 413 99 400 166 c 1,40,41
 366 99 366 99 300 99 c 0,42,43
 197 99 197 99 197 214 c 0,44,45
 197 217 197 217 199 243 c 2,46,-1
 212 375 l 2,47,48
 226 507 226 507 326 507 c 0,49,50
 390 507 390 507 417 457 c 1,51,-1
 421 497 l 1,0,-1
337 184 m 0,52,53
 386 184 386 184 397 261 c 2,54,-1
 406 349 l 1,55,-1
 406 356 l 2,56,57
 406 423 406 423 355 423 c 0,58,59
 312 423 312 423 307 363 c 2,60,-1
 295 246 l 2,61,62
 294 243 294 243 294 232 c 0,63,64
 294 184 294 184 337 184 c 0,52,53
EndSplineSet
PairPos2: "'kern' Horizontal Kerning in Latin lookup 0 per glyph data 0" seven dx=0 dy=0 dh=0 dv=0 dx=0 dy=0 dh=0 dv=0
EndChar

StartChar: A
Encoding: 65 65 37
Width: 399
GlyphClass: 2
Flags: W
AnchorPoint: "Anchor-11" 0 0 basechar 0
AnchorPoint: "Anchor-10" 0 0 basechar 0
AnchorPoint: "Anchor-9" 200 690 basechar 0
AnchorPoint: "Anchor-8" 388 0 basechar 0
AnchorPoint: "Anchor-7" 200 0 basechar 0
LayerCount: 2
Fore
SplineSet
388 0 m 1,0,-1
 278 0 l 1,1,-1
 259 137 l 1,2,-1
 132 137 l 1,3,-1
 113 0 l 1,4,-1
 11 0 l 1,5,-1
 125 700 l 1,6,-1
 274 700 l 1,7,-1
 388 0 l 1,0,-1
195 585 m 1,8,-1
 146 232 l 1,9,-1
 245 232 l 1,10,-1
 195 585 l 1,8,-1
EndSplineSet
Substitution2: "<11,2> Diagonal Fractions lookup 30 nested-substitutions 0 subtable" ordfeminine
Substitution2: "<11,2> Diagonal Fractions lookup 28 nested-substitutions 0 subtable" ordfeminine
Substitution2: "Single Substitution lookup 27 subtable" ordfeminine
Substitution2: "'aalt' Access All Alternates in Latin lookup 0 subtable" ordfeminine
EndChar

StartChar: B
Encoding: 66 66 38
Width: 404
GlyphClass: 2
Flags: W
AnchorPoint: "Anchor-11" 0 0 basechar 0
AnchorPoint: "Anchor-10" 0 0 basechar 0
AnchorPoint: "Anchor-9" 191 690 basechar 0
AnchorPoint: "Anchor-8" 0 0 basechar 0
AnchorPoint: "Anchor-7" 191 0 basechar 0
LayerCount: 2
Fore
SplineSet
214 0 m 2,0,-1
 41 0 l 1,1,-1
 41 700 l 1,2,-1
 207 700 l 2,3,4
 291 700 291 700 330.5 660.5 c 128,-1,5
 370 621 370 621 370 539 c 2,6,-1
 370 511 l 2,7,8
 370 403 370 403 299 374 c 1,9,-1
 299 372 l 1,10,11
 381 344 381 344 381 226 c 2,12,-1
 381 166 l 2,13,14
 381 85 381 85 338.5 42.5 c 128,-1,15
 296 0 296 0 214 0 c 2,0,-1
151 600 m 1,16,-1
 151 415 l 1,17,-1
 194 415 l 2,18,19
 228 415 228 415 244 432.5 c 128,-1,20
 260 450 260 450 260 489 c 2,21,-1
 260 528 l 2,22,23
 260 600 260 600 204 600 c 2,24,-1
 151 600 l 1,16,-1
151 315 m 1,25,-1
 151 100 l 1,26,-1
 214 100 l 2,27,28
 244 100 244 100 257.5 115.5 c 128,-1,29
 271 131 271 131 271 169 c 2,30,-1
 271 230 l 2,31,32
 271 277 271 277 255 296 c 128,-1,33
 239 315 239 315 200 315 c 2,34,-1
 151 315 l 1,25,-1
EndSplineSet
EndChar

StartChar: C
Encoding: 67 67 39
Width: 381
GlyphClass: 2
Flags: W
AnchorPoint: "Anchor-11" 0 0 basechar 0
AnchorPoint: "Anchor-10" 0 0 basechar 0
AnchorPoint: "Anchor-9" 194 690 basechar 0
AnchorPoint: "Anchor-8" 0 0 basechar 0
AnchorPoint: "Anchor-7" 198 0 basechar 0
LayerCount: 2
Fore
SplineSet
33 162 m 2,0,-1
 33 538 l 2,1,2
 33 620 33 620 75 665 c 128,-1,3
 117 710 117 710 195 710 c 128,-1,4
 273 710 273 710 315 665 c 128,-1,5
 357 620 357 620 357 538 c 2,6,-1
 357 464 l 1,7,-1
 253 464 l 1,8,-1
 253 545 l 2,9,10
 253 610 253 610 198 610 c 128,-1,11
 143 610 143 610 143 545 c 2,12,-1
 143 154 l 2,13,14
 143 90 143 90 198 90 c 128,-1,15
 253 90 253 90 253 154 c 2,16,-1
 253 256 l 1,17,-1
 357 256 l 1,18,-1
 357 162 l 2,19,20
 357 80 357 80 315 35 c 128,-1,21
 273 -10 273 -10 195 -10 c 128,-1,22
 117 -10 117 -10 75 35 c 128,-1,23
 33 80 33 80 33 162 c 2,0,-1
EndSplineSet
EndChar

StartChar: D
Encoding: 68 68 40
Width: 406
GlyphClass: 2
Flags: W
AnchorPoint: "Anchor-11" 0 0 basechar 0
AnchorPoint: "Anchor-10" 101 365 basechar 0
AnchorPoint: "Anchor-9" 194 690 basechar 0
AnchorPoint: "Anchor-8" 0 0 basechar 0
AnchorPoint: "Anchor-7" 194 0 basechar 0
LayerCount: 2
Fore
SplineSet
209 0 m 2,0,-1
 41 0 l 1,1,-1
 41 700 l 1,2,-1
 209 700 l 2,3,4
 373 700 373 700 373 527 c 2,5,-1
 373 173 l 2,6,7
 373 0 373 0 209 0 c 2,0,-1
151 600 m 1,8,-1
 151 100 l 1,9,-1
 207 100 l 2,10,11
 263 100 263 100 263 168 c 2,12,-1
 263 532 l 2,13,14
 263 600 263 600 207 600 c 2,15,-1
 151 600 l 1,8,-1
EndSplineSet
EndChar

StartChar: E
Encoding: 69 69 41
Width: 359
GlyphClass: 2
Flags: W
AnchorPoint: "Anchor-11" 0 0 basechar 0
AnchorPoint: "Anchor-10" 0 0 basechar 0
AnchorPoint: "Anchor-9" 191 690 basechar 0
AnchorPoint: "Anchor-8" 341 0 basechar 0
AnchorPoint: "Anchor-7" 191 0 basechar 0
LayerCount: 2
Fore
SplineSet
341 0 m 1,0,-1
 41 0 l 1,1,-1
 41 700 l 1,2,-1
 341 700 l 1,3,-1
 341 600 l 1,4,-1
 151 600 l 1,5,-1
 151 415 l 1,6,-1
 302 415 l 1,7,-1
 302 315 l 1,8,-1
 151 315 l 1,9,-1
 151 100 l 1,10,-1
 341 100 l 1,11,-1
 341 0 l 1,0,-1
EndSplineSet
EndChar

StartChar: F
Encoding: 70 70 42
Width: 344
GlyphClass: 2
Flags: W
AnchorPoint: "Anchor-11" 0 0 basechar 0
AnchorPoint: "Anchor-10" 0 0 basechar 0
AnchorPoint: "Anchor-9" 186 690 basechar 0
AnchorPoint: "Anchor-8" 0 0 basechar 0
AnchorPoint: "Anchor-7" 172 0 basechar 0
LayerCount: 2
Fore
SplineSet
151 0 m 1,0,-1
 41 0 l 1,1,-1
 41 700 l 1,2,-1
 332 700 l 1,3,-1
 332 600 l 1,4,-1
 151 600 l 1,5,-1
 151 405 l 1,6,-1
 293 405 l 1,7,-1
 293 305 l 1,8,-1
 151 305 l 1,9,-1
 151 0 l 1,0,-1
EndSplineSet
EndChar

StartChar: G
Encoding: 71 71 43
Width: 392
GlyphClass: 2
Flags: W
AnchorPoint: "Anchor-11" 0 0 basechar 0
AnchorPoint: "Anchor-10" 0 0 basechar 0
AnchorPoint: "Anchor-9" 196 690 basechar 0
AnchorPoint: "Anchor-8" 0 0 basechar 0
AnchorPoint: "Anchor-7" 197 0 basechar 0
LayerCount: 2
Fore
SplineSet
33 166 m 2,0,-1
 33 534 l 2,1,2
 33 619 33 619 75 664.5 c 128,-1,3
 117 710 117 710 197 710 c 128,-1,4
 277 710 277 710 319 664.5 c 128,-1,5
 361 619 361 619 361 534 c 2,6,-1
 361 474 l 1,7,-1
 257 474 l 1,8,-1
 257 541 l 2,9,10
 257 610 257 610 200 610 c 128,-1,11
 143 610 143 610 143 541 c 2,12,-1
 143 158 l 2,13,14
 143 90 143 90 200 90 c 128,-1,15
 257 90 257 90 257 158 c 2,16,-1
 257 295 l 1,17,-1
 202 295 l 1,18,-1
 202 395 l 1,19,-1
 361 395 l 1,20,-1
 361 166 l 2,21,22
 361 81 361 81 319 35.5 c 128,-1,23
 277 -10 277 -10 197 -10 c 128,-1,24
 117 -10 117 -10 75 35.5 c 128,-1,25
 33 81 33 81 33 166 c 2,0,-1
EndSplineSet
EndChar

StartChar: H
Encoding: 72 72 44
Width: 420
GlyphClass: 2
Flags: W
AnchorPoint: "Anchor-11" 0 0 basechar 0
AnchorPoint: "Anchor-10" 210 542 basechar 0
AnchorPoint: "Anchor-9" 210 690 basechar 0
AnchorPoint: "Anchor-8" 0 0 basechar 0
AnchorPoint: "Anchor-7" 210 0 basechar 0
LayerCount: 2
Fore
SplineSet
151 0 m 1,0,-1
 41 0 l 1,1,-1
 41 700 l 1,2,-1
 151 700 l 1,3,-1
 151 415 l 1,4,-1
 269 415 l 1,5,-1
 269 700 l 1,6,-1
 379 700 l 1,7,-1
 379 0 l 1,8,-1
 269 0 l 1,9,-1
 269 315 l 1,10,-1
 151 315 l 1,11,-1
 151 0 l 1,0,-1
EndSplineSet
EndChar

StartChar: I
Encoding: 73 73 45
Width: 192
GlyphClass: 2
Flags: W
AnchorPoint: "Anchor-11" 0 0 basechar 0
AnchorPoint: "Anchor-10" 0 0 basechar 0
AnchorPoint: "Anchor-9" 96 690 basechar 0
AnchorPoint: "Anchor-8" 173 0 basechar 0
AnchorPoint: "Anchor-7" 96 0 basechar 0
LayerCount: 2
Fore
SplineSet
151 0 m 1,0,-1
 41 0 l 1,1,-1
 41 700 l 1,2,-1
 151 700 l 1,3,-1
 151 0 l 1,0,-1
EndSplineSet
EndChar

StartChar: J
Encoding: 74 74 46
Width: 259
GlyphClass: 2
Flags: W
AnchorPoint: "Anchor-11" 0 0 basechar 0
AnchorPoint: "Anchor-10" 0 0 basechar 0
AnchorPoint: "Anchor-9" 162 690 basechar 0
AnchorPoint: "Anchor-8" 0 0 basechar 0
AnchorPoint: "Anchor-7" 130 0 basechar 0
LayerCount: 2
Fore
SplineSet
62 -4 m 0,0,1
 30 -4 30 -4 11 0 c 1,2,-1
 11 100 l 1,3,4
 26 96 26 96 47 96 c 0,5,6
 112 96 112 96 112 163 c 2,7,-1
 112 700 l 1,8,-1
 222 700 l 1,9,-1
 222 166 l 2,10,11
 222 -4 222 -4 62 -4 c 0,0,1
EndSplineSet
Substitution2: "Single Substitution lookup 25 subtable" J.aalt
Substitution2: "'aalt' Access All Alternates in Latin lookup 0 subtable" J.aalt
EndChar

StartChar: K
Encoding: 75 75 47
Width: 414
GlyphClass: 2
Flags: W
AnchorPoint: "Anchor-11" 0 0 basechar 0
AnchorPoint: "Anchor-10" 0 0 basechar 0
AnchorPoint: "Anchor-9" 207 690 basechar 0
AnchorPoint: "Anchor-8" 0 0 basechar 0
AnchorPoint: "Anchor-7" 217 0 basechar 0
LayerCount: 2
Fore
SplineSet
403 0 m 1,0,-1
 288 0 l 1,1,-1
 196 308 l 1,2,-1
 151 220 l 1,3,-1
 151 0 l 1,4,-1
 41 0 l 1,5,-1
 41 700 l 1,6,-1
 151 700 l 1,7,-1
 151 399 l 1,8,-1
 289 700 l 1,9,-1
 401 700 l 1,10,-1
 270 443 l 1,11,-1
 403 0 l 1,0,-1
EndSplineSet
EndChar

StartChar: L
Encoding: 76 76 48
Width: 344
GlyphClass: 2
Flags: W
AnchorPoint: "Anchor-11" 260 700 basechar 0
AnchorPoint: "Anchor-10" 172 350 basechar 0
AnchorPoint: "Anchor-9" 106 690 basechar 0
AnchorPoint: "Anchor-8" 0 0 basechar 0
AnchorPoint: "Anchor-7" 187 0 basechar 0
LayerCount: 2
Fore
SplineSet
332 0 m 1,0,-1
 41 0 l 1,1,-1
 41 700 l 1,2,-1
 151 700 l 1,3,-1
 151 100 l 1,4,-1
 332 100 l 1,5,-1
 332 0 l 1,0,-1
EndSplineSet
EndChar

StartChar: M
Encoding: 77 77 49
Width: 538
GlyphClass: 2
Flags: W
AnchorPoint: "Anchor-11" 0 0 basechar 0
AnchorPoint: "Anchor-10" 0 0 basechar 0
AnchorPoint: "Anchor-9" 269 690 basechar 0
AnchorPoint: "Anchor-8" 0 0 basechar 0
AnchorPoint: "Anchor-7" 269 0 basechar 0
LayerCount: 2
Fore
SplineSet
137 0 m 1,0,-1
 41 0 l 1,1,-1
 41 700 l 1,2,-1
 196 700 l 1,3,-1
 269 192 l 1,4,-1
 342 700 l 1,5,-1
 497 700 l 1,6,-1
 497 0 l 1,7,-1
 393 0 l 1,8,-1
 393 530 l 1,9,-1
 311 0 l 1,10,-1
 219 0 l 1,11,-1
 137 530 l 1,12,-1
 137 0 l 1,0,-1
EndSplineSet
EndChar

StartChar: N
Encoding: 78 78 50
Width: 427
GlyphClass: 2
Flags: W
AnchorPoint: "Anchor-11" 0 0 basechar 0
AnchorPoint: "Anchor-10" 0 0 basechar 0
AnchorPoint: "Anchor-9" 214 690 basechar 0
AnchorPoint: "Anchor-8" 0 0 basechar 0
AnchorPoint: "Anchor-7" 214 0 basechar 0
LayerCount: 2
Fore
SplineSet
139 0 m 1,0,-1
 41 0 l 1,1,-1
 41 700 l 1,2,-1
 177 700 l 1,3,-1
 288 281 l 1,4,-1
 288 700 l 1,5,-1
 386 700 l 1,6,-1
 386 0 l 1,7,-1
 275 0 l 1,8,-1
 139 511 l 1,9,-1
 139 0 l 1,0,-1
EndSplineSet
EndChar

StartChar: O
Encoding: 79 79 51
Width: 400
GlyphClass: 2
Flags: W
AnchorPoint: "Anchor-11" 0 0 basechar 0
AnchorPoint: "Anchor-10" 200 350 basechar 0
AnchorPoint: "Anchor-9" 200 690 basechar 0
AnchorPoint: "Anchor-8" 359 10 basechar 0
AnchorPoint: "Anchor-7" 200 0 basechar 0
LayerCount: 2
Fore
SplineSet
33 166 m 2,0,-1
 33 534 l 2,1,2
 33 618 33 618 76 664 c 128,-1,3
 119 710 119 710 200 710 c 128,-1,4
 281 710 281 710 324 664 c 128,-1,5
 367 618 367 618 367 534 c 2,6,-1
 367 166 l 2,7,8
 367 82 367 82 324 36 c 128,-1,9
 281 -10 281 -10 200 -10 c 128,-1,10
 119 -10 119 -10 76 36 c 128,-1,11
 33 82 33 82 33 166 c 2,0,-1
257 159 m 2,12,-1
 257 541 l 2,13,14
 257 610 257 610 200 610 c 128,-1,15
 143 610 143 610 143 541 c 2,16,-1
 143 159 l 2,17,18
 143 90 143 90 200 90 c 128,-1,19
 257 90 257 90 257 159 c 2,12,-1
EndSplineSet
Substitution2: "<11,2> Diagonal Fractions lookup 30 nested-substitutions 0 subtable" ordmasculine
Substitution2: "<11,2> Diagonal Fractions lookup 28 nested-substitutions 0 subtable" ordmasculine
Substitution2: "Single Substitution lookup 27 subtable" ordmasculine
Substitution2: "'aalt' Access All Alternates in Latin lookup 0 subtable" ordmasculine
EndChar

StartChar: P
Encoding: 80 80 52
Width: 385
GlyphClass: 2
Flags: W
AnchorPoint: "Anchor-11" 0 0 basechar 0
AnchorPoint: "Anchor-10" 0 0 basechar 0
AnchorPoint: "Anchor-9" 191 690 basechar 0
AnchorPoint: "Anchor-8" 0 0 basechar 0
AnchorPoint: "Anchor-7" 193 0 basechar 0
LayerCount: 2
Fore
SplineSet
151 0 m 1,0,-1
 41 0 l 1,1,-1
 41 700 l 1,2,-1
 203 700 l 2,3,4
 367 700 367 700 367 527 c 2,5,-1
 367 458 l 2,6,7
 367 285 367 285 203 285 c 2,8,-1
 151 285 l 1,9,-1
 151 0 l 1,0,-1
151 600 m 1,10,-1
 151 385 l 1,11,-1
 203 385 l 2,12,13
 231 385 231 385 244 400.5 c 128,-1,14
 257 416 257 416 257 451 c 2,15,-1
 257 534 l 2,16,17
 257 569 257 569 244 584.5 c 128,-1,18
 231 600 231 600 203 600 c 2,19,-1
 151 600 l 1,10,-1
EndSplineSet
EndChar

StartChar: Q
Encoding: 81 81 53
Width: 400
GlyphClass: 2
Flags: W
AnchorPoint: "Anchor-11" 0 0 basechar 0
AnchorPoint: "Anchor-10" 200 350 basechar 0
AnchorPoint: "Anchor-9" 200 690 basechar 0
AnchorPoint: "Anchor-8" 359 10 basechar 0
AnchorPoint: "Anchor-7" 200 0 basechar 0
LayerCount: 2
Fore
SplineSet
377 35 m 2,0,-1
 394 35 l 1,1,-1
 394 -65 l 1,2,-1
 365 -65 l 2,3,4
 289 -65 289 -65 273 2 c 1,5,6
 242 -10 242 -10 200 -10 c 0,7,8
 119 -10 119 -10 76 36 c 128,-1,9
 33 82 33 82 33 166 c 2,10,-1
 33 534 l 2,11,12
 33 618 33 618 76 664 c 128,-1,13
 119 710 119 710 200 710 c 128,-1,14
 281 710 281 710 324 664 c 128,-1,15
 367 618 367 618 367 534 c 2,16,-1
 367 166 l 2,17,18
 367 95 367 95 336 51 c 1,19,20
 345 35 345 35 377 35 c 2,0,-1
257 159 m 2,21,-1
 257 541 l 2,22,23
 257 610 257 610 200 610 c 128,-1,24
 143 610 143 610 143 541 c 2,25,-1
 143 159 l 2,26,27
 143 90 143 90 200 90 c 128,-1,28
 257 90 257 90 257 159 c 2,21,-1
EndSplineSet
EndChar

StartChar: R
Encoding: 82 82 54
Width: 403
GlyphClass: 2
Flags: W
AnchorPoint: "Anchor-11" 0 0 basechar 0
AnchorPoint: "Anchor-10" 0 0 basechar 0
AnchorPoint: "Anchor-9" 191 690 basechar 0
AnchorPoint: "Anchor-8" 0 0 basechar 0
AnchorPoint: "Anchor-7" 207 0 basechar 0
LayerCount: 2
Fore
SplineSet
151 0 m 1,0,-1
 41 0 l 1,1,-1
 41 700 l 1,2,-1
 204 700 l 2,3,4
 288 700 288 700 327.5 660.5 c 128,-1,5
 367 621 367 621 367 539 c 2,6,-1
 367 496 l 2,7,8
 367 386 367 386 295 358 c 1,9,-1
 295 356 l 1,10,11
 368 334 368 334 368 208 c 2,12,-1
 368 85 l 2,13,14
 368 28 368 28 380 0 c 1,15,-1
 268 0 l 1,16,17
 258 29 258 29 258 86 c 2,18,-1
 258 214 l 2,19,20
 258 262 258 262 242.5 281 c 128,-1,21
 227 300 227 300 189 300 c 2,22,-1
 151 300 l 1,23,-1
 151 0 l 1,0,-1
151 600 m 1,24,-1
 151 400 l 1,25,-1
 191 400 l 2,26,27
 225 400 225 400 241 417.5 c 128,-1,28
 257 435 257 435 257 474 c 2,29,-1
 257 528 l 2,30,31
 257 600 257 600 201 600 c 2,32,-1
 151 600 l 1,24,-1
EndSplineSet
EndChar

StartChar: S
Encoding: 83 83 55
Width: 371
GlyphClass: 2
Flags: W
AnchorPoint: "Anchor-11" 0 0 basechar 0
AnchorPoint: "Anchor-10" 0 0 basechar 0
AnchorPoint: "Anchor-9" 185 690 basechar 0
AnchorPoint: "Anchor-8" 0 0 basechar 0
AnchorPoint: "Anchor-7" 185 0 basechar 0
LayerCount: 2
Fore
SplineSet
184 -10 m 0,0,1
 104 -10 104 -10 63 35.5 c 128,-1,2
 22 81 22 81 22 166 c 2,3,-1
 22 206 l 1,4,-1
 126 206 l 1,5,-1
 126 158 l 2,6,7
 126 90 126 90 183 90 c 0,8,9
 241 90 241 90 241 160 c 0,10,11
 241 203 241 203 220 236 c 0,12,13
 200 269 200 269 145 317 c 0,14,15
 77 378 77 378 49 426 c 0,16,17
 22 476 22 476 22 536 c 0,18,19
 22 620 22 620 64 665 c 128,-1,20
 106 710 106 710 186 710 c 0,21,22
 264 710 264 710 305 664.5 c 128,-1,23
 346 619 346 619 346 534 c 2,24,-1
 346 505 l 1,25,-1
 242 505 l 1,26,-1
 242 541 l 2,27,28
 242 610 242 610 187 610 c 0,29,30
 131 610 131 610 131 543 c 0,31,32
 131 504 131 504 152 473 c 0,33,34
 174 439 174 439 228 393 c 0,35,36
 297 333 297 333 323 283 c 0,37,38
 350 234 350 234 350 168 c 0,39,40
 350 82 350 82 307.5 36 c 128,-1,41
 265 -10 265 -10 184 -10 c 0,0,1
EndSplineSet
EndChar

StartChar: T
Encoding: 84 84 56
Width: 364
GlyphClass: 2
Flags: W
AnchorPoint: "Anchor-11" 0 0 basechar 0
AnchorPoint: "Anchor-10" 182 350 basechar 0
AnchorPoint: "Anchor-9" 182 690 basechar 0
AnchorPoint: "Anchor-8" 0 0 basechar 0
AnchorPoint: "Anchor-7" 182 0 basechar 0
LayerCount: 2
Fore
SplineSet
237 0 m 1,0,-1
 127 0 l 1,1,-1
 127 600 l 1,2,-1
 12 600 l 1,3,-1
 12 700 l 1,4,-1
 352 700 l 1,5,-1
 352 600 l 1,6,-1
 237 600 l 1,7,-1
 237 0 l 1,0,-1
EndSplineSet
EndChar

StartChar: U
Encoding: 85 85 57
Width: 402
GlyphClass: 2
Flags: W
AnchorPoint: "Anchor-11" 0 0 basechar 0
AnchorPoint: "Anchor-10" 0 0 basechar 0
AnchorPoint: "Anchor-9" 201 690 basechar 0
AnchorPoint: "Anchor-8" 302 0 basechar 0
AnchorPoint: "Anchor-7" 201 0 basechar 0
LayerCount: 2
Fore
SplineSet
37 166 m 2,0,-1
 37 700 l 1,1,-1
 147 700 l 1,2,-1
 147 158 l 2,3,4
 147 90 147 90 203 90 c 128,-1,5
 259 90 259 90 259 158 c 2,6,-1
 259 700 l 1,7,-1
 365 700 l 1,8,-1
 365 166 l 2,9,10
 365 81 365 81 323 35.5 c 128,-1,11
 281 -10 281 -10 201 -10 c 128,-1,12
 121 -10 121 -10 79 35.5 c 128,-1,13
 37 81 37 81 37 166 c 2,0,-1
EndSplineSet
EndChar

StartChar: V
Encoding: 86 86 58
Width: 382
GlyphClass: 2
Flags: W
AnchorPoint: "Anchor-11" 0 0 basechar 0
AnchorPoint: "Anchor-10" 0 0 basechar 0
AnchorPoint: "Anchor-9" 191 690 basechar 0
AnchorPoint: "Anchor-8" 0 0 basechar 0
AnchorPoint: "Anchor-7" 191 0 basechar 0
LayerCount: 2
Fore
SplineSet
264 0 m 1,0,-1
 118 0 l 1,1,-1
 12 700 l 1,2,-1
 123 700 l 1,3,-1
 196 150 l 1,4,-1
 269 700 l 1,5,-1
 370 700 l 1,6,-1
 264 0 l 1,0,-1
EndSplineSet
EndChar

StartChar: W
Encoding: 87 87 59
Width: 557
GlyphClass: 2
Flags: W
AnchorPoint: "Anchor-11" 0 0 basechar 0
AnchorPoint: "Anchor-10" 0 0 basechar 0
AnchorPoint: "Anchor-9" 279 690 basechar 0
AnchorPoint: "Anchor-8" 0 0 basechar 0
AnchorPoint: "Anchor-7" 279 0 basechar 0
LayerCount: 2
Fore
SplineSet
232 0 m 1,0,-1
 86 0 l 1,1,-1
 15 700 l 1,2,-1
 121 700 l 1,3,-1
 171 152 l 1,4,-1
 224 700 l 1,5,-1
 344 700 l 1,6,-1
 397 152 l 1,7,-1
 447 700 l 1,8,-1
 542 700 l 1,9,-1
 471 0 l 1,10,-1
 334 0 l 1,11,-1
 283 481 l 1,12,-1
 232 0 l 1,0,-1
EndSplineSet
EndChar

StartChar: X
Encoding: 88 88 60
Width: 404
GlyphClass: 2
Flags: W
AnchorPoint: "Anchor-11" 0 0 basechar 0
AnchorPoint: "Anchor-10" 0 0 basechar 0
AnchorPoint: "Anchor-9" 202 700 basechar 0
AnchorPoint: "Anchor-8" 0 0 basechar 0
AnchorPoint: "Anchor-7" 202 0 basechar 0
LayerCount: 2
Fore
SplineSet
114 0 m 1,0,-1
 10 0 l 1,1,-1
 137 358 l 1,2,-1
 16 700 l 1,3,-1
 132 700 l 1,4,-1
 207 471 l 1,5,-1
 284 700 l 1,6,-1
 388 700 l 1,7,-1
 267 358 l 1,8,-1
 394 0 l 1,9,-1
 278 0 l 1,10,-1
 197 247 l 1,11,-1
 114 0 l 1,0,-1
EndSplineSet
EndChar

StartChar: Y
Encoding: 89 89 61
Width: 392
GlyphClass: 2
Flags: W
AnchorPoint: "Anchor-11" 0 0 basechar 0
AnchorPoint: "Anchor-10" 0 0 basechar 0
AnchorPoint: "Anchor-9" 196 690 basechar 0
AnchorPoint: "Anchor-8" 0 0 basechar 0
AnchorPoint: "Anchor-7" 196 0 basechar 0
LayerCount: 2
Fore
SplineSet
251 0 m 1,0,-1
 141 0 l 1,1,-1
 141 298 l 1,2,-1
 8 700 l 1,3,-1
 125 700 l 1,4,-1
 201 439 l 1,5,-1
 277 700 l 1,6,-1
 384 700 l 1,7,-1
 251 298 l 1,8,-1
 251 0 l 1,0,-1
EndSplineSet
EndChar

StartChar: Z
Encoding: 90 90 62
Width: 358
GlyphClass: 2
Flags: W
AnchorPoint: "Anchor-11" 0 0 basechar 0
AnchorPoint: "Anchor-10" 0 0 basechar 0
AnchorPoint: "Anchor-9" 183 690 basechar 0
AnchorPoint: "Anchor-8" 0 0 basechar 0
AnchorPoint: "Anchor-7" 178 0 basechar 0
LayerCount: 2
Fore
SplineSet
339 0 m 1,0,-1
 17 0 l 1,1,-1
 17 98 l 1,2,-1
 221 600 l 1,3,-1
 27 600 l 1,4,-1
 27 700 l 1,5,-1
 339 700 l 1,6,-1
 339 602 l 1,7,-1
 135 100 l 1,8,-1
 339 100 l 1,9,-1
 339 0 l 1,0,-1
EndSplineSet
EndChar

StartChar: bracketleft
Encoding: 91 91 63
Width: 272
GlyphClass: 2
Flags: W
LayerCount: 2
Fore
SplineSet
239 -100 m 1,0,-1
 61 -100 l 1,1,-1
 61 700 l 1,2,-1
 239 700 l 1,3,-1
 239 618 l 1,4,-1
 161 618 l 1,5,-1
 161 -18 l 1,6,-1
 239 -18 l 1,7,-1
 239 -100 l 1,0,-1
EndSplineSet
EndChar

StartChar: backslash
Encoding: 92 92 64
Width: 387
GlyphClass: 2
Flags: W
LayerCount: 2
Fore
SplineSet
379 -100 m 1,0,-1
 284 -100 l 1,1,-1
 8 700 l 1,2,-1
 103 700 l 1,3,-1
 379 -100 l 1,0,-1
EndSplineSet
EndChar

StartChar: bracketright
Encoding: 93 93 65
Width: 272
GlyphClass: 2
Flags: W
LayerCount: 2
Fore
SplineSet
211 -100 m 1,0,-1
 33 -100 l 1,1,-1
 33 -18 l 1,2,-1
 111 -18 l 1,3,-1
 111 618 l 1,4,-1
 33 618 l 1,5,-1
 33 700 l 1,6,-1
 211 700 l 1,7,-1
 211 -100 l 1,0,-1
EndSplineSet
EndChar

StartChar: asciicircum
Encoding: 94 94 66
Width: 400
GlyphClass: 2
Flags: W
LayerCount: 2
Fore
SplineSet
110 430 m 1,0,-1
 20 430 l 1,1,-1
 163 700 l 1,2,-1
 237 700 l 1,3,-1
 380 430 l 1,4,-1
 290 430 l 1,5,-1
 200 600 l 1,6,-1
 110 430 l 1,0,-1
EndSplineSet
EndChar

StartChar: underscore
Encoding: 95 95 67
Width: 300
GlyphClass: 2
Flags: W
LayerCount: 2
Fore
SplineSet
300 -112 m 1,0,-1
 0 -112 l 1,1,-1
 0 -42 l 1,2,-1
 300 -42 l 1,3,-1
 300 -112 l 1,0,-1
EndSplineSet
EndChar

StartChar: grave
Encoding: 96 96 68
Width: 500
GlyphClass: 4
Flags: W
AnchorPoint: "Anchor-13" 250 698 basemark 0
LayerCount: 2
Fore
SplineSet
310 563 m 1,0,-1
 227 563 l 1,1,-1
 120 698 l 1,2,-1
 240 698 l 1,3,-1
 310 563 l 1,0,-1
EndSplineSet
EndChar

StartChar: a
Encoding: 97 97 69
Width: 372
GlyphClass: 2
Flags: W
AnchorPoint: "Anchor-11" 0 0 basechar 0
AnchorPoint: "Anchor-10" 0 0 basechar 0
AnchorPoint: "Anchor-9" 181 510 basechar 0
AnchorPoint: "Anchor-8" 343 0 basechar 0
AnchorPoint: "Anchor-7" 0 0 basechar 0
LayerCount: 2
Fore
SplineSet
344 0 m 1,0,-1
 247 0 l 1,1,2
 241 12 241 12 239 60 c 1,3,4
 209 -10 209 -10 131 -10 c 0,5,6
 80 -10 80 -10 50 24.5 c 128,-1,7
 20 59 20 59 20 118 c 0,8,9
 20 178 20 178 48 216.5 c 128,-1,10
 76 255 76 255 143 288 c 0,11,12
 198 315 198 315 212 327 c 0,13,14
 226 341 226 341 226 361 c 2,15,-1
 226 371 l 2,16,17
 226 429 226 429 183 429 c 0,18,19
 135 429 135 429 135 370 c 2,20,-1
 135 351 l 1,21,-1
 35 351 l 1,22,-1
 35 364 l 2,23,24
 35 439 35 439 73.5 479.5 c 128,-1,25
 112 520 112 520 184 520 c 0,26,27
 261 520 261 520 296.5 479.5 c 128,-1,28
 332 439 332 439 332 352 c 2,29,-1
 332 147 l 2,30,31
 332 50 332 50 344 0 c 1,0,-1
171 81 m 0,32,33
 226 81 226 81 226 166 c 2,34,-1
 226 253 l 1,35,36
 219 244 219 244 174 215 c 0,37,38
 126 185 126 185 126 136 c 0,39,40
 126 81 126 81 171 81 c 0,32,33
EndSplineSet
Substitution2: "<11,2> Diagonal Fractions lookup 30 nested-substitutions 0 subtable" ordfeminine
Substitution2: "<11,2> Diagonal Fractions lookup 28 nested-substitutions 0 subtable" ordfeminine
Substitution2: "Single Substitution lookup 27 subtable" ordfeminine
Substitution2: "'aalt' Access All Alternates in Latin lookup 0 subtable" ordfeminine
EndChar

StartChar: b
Encoding: 98 98 70
Width: 387
GlyphClass: 2
Flags: W
AnchorPoint: "Anchor-11" 0 0 basechar 0
AnchorPoint: "Anchor-10" 0 0 basechar 0
AnchorPoint: "Anchor-9" 94 690 basechar 0
AnchorPoint: "Anchor-8" 0 0 basechar 0
AnchorPoint: "Anchor-7" 194 0 basechar 0
LayerCount: 2
Fore
SplineSet
237 520 m 0,0,1
 353 520 353 520 353 371 c 2,2,-1
 353 139 l 2,3,4
 353 -10 353 -10 237 -10 c 0,5,6
 200 -10 200 -10 172.5 10.5 c 128,-1,7
 145 31 145 31 132 68 c 1,8,-1
 118 0 l 1,9,-1
 41 0 l 1,10,-1
 41 700 l 1,11,-1
 147 700 l 1,12,-1
 147 473 l 1,13,14
 180 520 180 520 237 520 c 0,0,1
247 146 m 2,15,-1
 247 364 l 2,16,17
 247 426 247 426 202 426 c 0,18,19
 147 426 147 426 147 344 c 2,20,-1
 147 166 l 2,21,22
 147 84 147 84 202 84 c 0,23,24
 247 84 247 84 247 146 c 2,15,-1
EndSplineSet
EndChar

StartChar: c
Encoding: 99 99 71
Width: 362
GlyphClass: 2
Flags: W
AnchorPoint: "Anchor-11" 0 0 basechar 0
AnchorPoint: "Anchor-10" 0 0 basechar 0
AnchorPoint: "Anchor-9" 184 510 basechar 0
AnchorPoint: "Anchor-8" 0 0 basechar 0
AnchorPoint: "Anchor-7" 186 0 basechar 0
LayerCount: 2
Fore
SplineSet
31 154 m 2,0,-1
 31 356 l 2,1,2
 31 435 31 435 71 477.5 c 128,-1,3
 111 520 111 520 186 520 c 0,4,5
 260 520 260 520 298.5 477 c 128,-1,6
 337 434 337 434 337 356 c 2,7,-1
 337 325 l 1,8,-1
 235 325 l 1,9,-1
 235 366 l 2,10,11
 235 426 235 426 186 426 c 128,-1,12
 137 426 137 426 137 366 c 2,13,-1
 137 144 l 2,14,15
 137 84 137 84 186 84 c 128,-1,16
 235 84 235 84 235 144 c 2,17,-1
 235 195 l 1,18,-1
 337 195 l 1,19,-1
 337 154 l 2,20,21
 337 76 337 76 298.5 33 c 128,-1,22
 260 -10 260 -10 186 -10 c 0,23,24
 111 -10 111 -10 71 32.5 c 128,-1,25
 31 75 31 75 31 154 c 2,0,-1
EndSplineSet
EndChar

StartChar: d
Encoding: 100 100 72
Width: 387
GlyphClass: 2
Flags: W
AnchorPoint: "Anchor-11" 0 0 basechar 0
AnchorPoint: "Anchor-10" 280 601 basechar 0
AnchorPoint: "Anchor-9" 293 690 basechar 0
AnchorPoint: "Anchor-8" 0 0 basechar 0
AnchorPoint: "Anchor-7" 182 0 basechar 0
LayerCount: 2
Fore
SplineSet
358 0 m 1,0,-1
 261 0 l 1,1,2
 255 12 255 12 252 60 c 1,3,4
 224 -10 224 -10 149 -10 c 0,5,6
 34 -10 34 -10 34 139 c 2,7,-1
 34 371 l 2,8,9
 34 520 34 520 149 520 c 0,10,11
 207 520 207 520 240 473 c 1,12,-1
 240 700 l 1,13,-1
 346 700 l 1,14,-1
 346 147 l 2,15,16
 346 50 346 50 358 0 c 1,0,-1
185 84 m 0,17,18
 240 84 240 84 240 166 c 2,19,-1
 240 344 l 2,20,21
 240 426 240 426 185 426 c 0,22,23
 140 426 140 426 140 364 c 2,24,-1
 140 146 l 2,25,26
 140 84 140 84 185 84 c 0,17,18
EndSplineSet
EndChar

StartChar: e
Encoding: 101 101 73
Width: 374
GlyphClass: 2
Flags: W
AnchorPoint: "Anchor-11" 0 0 basechar 0
AnchorPoint: "Anchor-10" 0 0 basechar 0
AnchorPoint: "Anchor-9" 187 510 basechar 0
AnchorPoint: "Anchor-8" 329 0 basechar 0
AnchorPoint: "Anchor-7" 187 0 basechar 0
LayerCount: 2
Fore
SplineSet
345 354 m 2,0,-1
 345 232 l 1,1,-1
 137 232 l 1,2,-1
 137 146 l 2,3,4
 137 84 137 84 190 84 c 128,-1,5
 243 84 243 84 243 146 c 2,6,-1
 243 165 l 1,7,-1
 345 165 l 1,8,-1
 345 156 l 2,9,10
 345 76 345 76 304.5 33 c 128,-1,11
 264 -10 264 -10 188 -10 c 128,-1,12
 112 -10 112 -10 71.5 33 c 128,-1,13
 31 76 31 76 31 156 c 2,14,-1
 31 354 l 2,15,16
 31 434 31 434 71.5 477 c 128,-1,17
 112 520 112 520 188 520 c 128,-1,18
 264 520 264 520 304.5 477 c 128,-1,19
 345 434 345 434 345 354 c 2,0,-1
137 364 m 2,20,-1
 137 316 l 1,21,-1
 241 316 l 1,22,-1
 241 364 l 2,23,24
 241 426 241 426 189 426 c 128,-1,25
 137 426 137 426 137 364 c 2,20,-1
EndSplineSet
EndChar

StartChar: f
Encoding: 102 102 74
Width: 265
GlyphClass: 2
Flags: W
AnchorPoint: "Anchor-11" 0 0 basechar 0
AnchorPoint: "Anchor-10" 0 0 basechar 0
AnchorPoint: "Anchor-9" 154 690 basechar 0
AnchorPoint: "Anchor-8" 0 0 basechar 0
AnchorPoint: "Anchor-7" 134 0 basechar 0
LayerCount: 2
Fore
SplineSet
218 616 m 0,0,1
 196 616 196 616 186.5 606 c 128,-1,2
 177 596 177 596 177 572 c 2,3,-1
 177 510 l 1,4,-1
 254 510 l 1,5,-1
 254 420 l 1,6,-1
 177 420 l 1,7,-1
 177 0 l 1,8,-1
 71 0 l 1,9,-1
 71 420 l 1,10,-1
 13 420 l 1,11,-1
 13 510 l 1,12,-1
 71 510 l 1,13,-1
 71 586 l 2,14,15
 71 710 71 710 196 710 c 0,16,17
 230 710 230 710 254 700 c 1,18,-1
 254 610 l 1,19,20
 234 616 234 616 218 616 c 0,0,1
EndSplineSet
EndChar

StartChar: g
Encoding: 103 103 75
Width: 385
GlyphClass: 2
Flags: W
AnchorPoint: "Anchor-11" 0 0 basechar 0
AnchorPoint: "Anchor-10" 0 0 basechar 0
AnchorPoint: "Anchor-9" 183 510 basechar 0
AnchorPoint: "Anchor-8" 0 0 basechar 0
AnchorPoint: "Anchor-7" 193 -155 basechar 0
LayerCount: 2
Fore
SplineSet
250 450 m 1,0,-1
 252 510 l 1,1,-1
 344 510 l 1,2,-1
 344 -7 l 2,3,4
 344 -87 344 -87 307 -126 c 128,-1,5
 270 -165 270 -165 187 -165 c 0,6,7
 112 -165 112 -165 73.5 -130 c 128,-1,8
 35 -95 35 -95 35 -28 c 2,9,-1
 35 -25 l 1,10,-1
 137 -25 l 1,11,-1
 137 -33 l 2,12,13
 137 -78 137 -78 185 -78 c 0,14,15
 238 -78 238 -78 238 -15 c 2,16,-1
 238 62 l 1,17,18
 205 15 205 15 148 15 c 0,19,20
 32 15 32 15 32 164 c 2,21,-1
 32 371 l 2,22,23
 32 520 32 520 148 520 c 0,24,25
 222 520 222 520 250 450 c 1,0,-1
183 109 m 0,26,27
 238 109 238 109 238 191 c 2,28,-1
 238 344 l 2,29,30
 238 426 238 426 183 426 c 0,31,32
 138 426 138 426 138 364 c 2,33,-1
 138 171 l 2,34,35
 138 109 138 109 183 109 c 0,26,27
EndSplineSet
EndChar

StartChar: h
Encoding: 104 104 76
Width: 389
GlyphClass: 2
Flags: W
AnchorPoint: "Anchor-11" 0 0 basechar 0
AnchorPoint: "Anchor-10" 107 601 basechar 0
AnchorPoint: "Anchor-9" 94 690 basechar 0
AnchorPoint: "Anchor-8" 0 0 basechar 0
AnchorPoint: "Anchor-7" 195 0 basechar 0
LayerCount: 2
Fore
SplineSet
237 520 m 0,0,1
 351 520 351 520 351 371 c 2,2,-1
 351 0 l 1,3,-1
 245 0 l 1,4,-1
 245 359 l 2,5,6
 245 426 245 426 201 426 c 0,7,8
 147 426 147 426 147 344 c 2,9,-1
 147 0 l 1,10,-1
 41 0 l 1,11,-1
 41 700 l 1,12,-1
 147 700 l 1,13,-1
 147 474 l 1,14,15
 178 520 178 520 237 520 c 0,0,1
EndSplineSet
EndChar

StartChar: i
Encoding: 105 105 77
Width: 188
GlyphClass: 2
Flags: W
AnchorPoint: "Anchor-11" 0 0 basechar 0
AnchorPoint: "Anchor-10" 0 0 basechar 0
AnchorPoint: "Anchor-9" 94 689 basechar 0
AnchorPoint: "Anchor-8" 171 0 basechar 0
AnchorPoint: "Anchor-7" 94 0 basechar 0
LayerCount: 2
Fore
SplineSet
147 573 m 1,0,-1
 41 573 l 1,1,-1
 41 689 l 1,2,-1
 147 689 l 1,3,-1
 147 573 l 1,0,-1
147 0 m 1,4,-1
 41 0 l 1,5,-1
 41 510 l 1,6,-1
 147 510 l 1,7,-1
 147 0 l 1,4,-1
EndSplineSet
Substitution2: "Single Substitution lookup 25 subtable" dotlessi
Substitution2: "'locl' Localized Forms in Latin lookup 11 subtable" i.aalt
Substitution2: "'locl' Localized Forms in Latin lookup 10 subtable" i.aalt
Substitution2: "'locl' Localized Forms in Latin lookup 9 subtable" i.aalt
Substitution2: "'locl' Localized Forms in Latin lookup 8 subtable" i.aalt
Substitution2: "'locl' Localized Forms in Latin lookup 7 subtable" i.aalt
Substitution2: "'aalt' Access All Alternates in Latin lookup 0 subtable" i.aalt
EndChar

StartChar: j
Encoding: 106 106 78
Width: 188
GlyphClass: 2
Flags: W
AnchorPoint: "Anchor-11" 0 0 basechar 0
AnchorPoint: "Anchor-10" 0 0 basechar 0
AnchorPoint: "Anchor-9" 94 689 basechar 0
AnchorPoint: "Anchor-8" 0 0 basechar 0
AnchorPoint: "Anchor-7" 94 -155 basechar 0
LayerCount: 2
Fore
SplineSet
147 573 m 1,0,-1
 41 573 l 1,1,-1
 41 689 l 1,2,-1
 147 689 l 1,3,-1
 147 573 l 1,0,-1
38 -165 m 0,4,5
 5 -165 5 -165 -15 -155 c 1,6,-1
 -15 -66 l 1,7,8
 2 -71 2 -71 15 -71 c 0,9,10
 41 -71 41 -71 41 -43 c 2,11,-1
 41 510 l 1,12,-1
 147 510 l 1,13,-1
 147 -54 l 2,14,15
 147 -165 147 -165 38 -165 c 0,4,5
EndSplineSet
Substitution2: "Single Substitution lookup 25 subtable" uni0237
EndChar

StartChar: k
Encoding: 107 107 79
Width: 394
GlyphClass: 2
Flags: W
AnchorPoint: "Anchor-11" 0 0 basechar 0
AnchorPoint: "Anchor-10" 0 0 basechar 0
AnchorPoint: "Anchor-9" 0 0 basechar 0
AnchorPoint: "Anchor-8" 0 0 basechar 0
AnchorPoint: "Anchor-7" 208 0 basechar 0
LayerCount: 2
Fore
SplineSet
384 0 m 1,0,-1
 270 0 l 1,1,-1
 189 214 l 1,2,-1
 147 147 l 1,3,-1
 147 0 l 1,4,-1
 41 0 l 1,5,-1
 41 700 l 1,6,-1
 147 700 l 1,7,-1
 147 296 l 1,8,-1
 265 510 l 1,9,-1
 378 510 l 1,10,-1
 260 322 l 1,11,-1
 384 0 l 1,0,-1
EndSplineSet
EndChar

StartChar: l
Encoding: 108 108 80
Width: 188
GlyphClass: 2
Flags: W
AnchorPoint: "Anchor-11" 228 700 basechar 0
AnchorPoint: "Anchor-10" 94 350 basechar 0
AnchorPoint: "Anchor-9" 94 690 basechar 0
AnchorPoint: "Anchor-8" 0 0 basechar 0
AnchorPoint: "Anchor-7" 94 0 basechar 0
LayerCount: 2
Fore
SplineSet
147 0 m 1,0,-1
 41 0 l 1,1,-1
 41 700 l 1,2,-1
 147 700 l 1,3,-1
 147 0 l 1,0,-1
EndSplineSet
EndChar

StartChar: m
Encoding: 109 109 81
Width: 589
GlyphClass: 2
Flags: W
AnchorPoint: "Anchor-11" 0 0 basechar 0
AnchorPoint: "Anchor-10" 0 0 basechar 0
AnchorPoint: "Anchor-9" 295 510 basechar 0
AnchorPoint: "Anchor-8" 0 0 basechar 0
AnchorPoint: "Anchor-7" 295 0 basechar 0
LayerCount: 2
Fore
SplineSet
437 520 m 0,0,1
 551 520 551 520 551 371 c 2,2,-1
 551 0 l 1,3,-1
 445 0 l 1,4,-1
 445 364 l 2,5,6
 445 426 445 426 402 426 c 0,7,8
 349 426 349 426 349 344 c 2,9,-1
 349 0 l 1,10,-1
 243 0 l 1,11,-1
 243 364 l 2,12,13
 243 426 243 426 200 426 c 0,14,15
 147 426 147 426 147 344 c 2,16,-1
 147 0 l 1,17,-1
 41 0 l 1,18,-1
 41 510 l 1,19,-1
 133 510 l 1,20,-1
 135 451 l 1,21,22
 164 520 164 520 235 520 c 0,23,24
 311 520 311 520 337 452 c 1,25,26
 350 484 350 484 376.5 502 c 128,-1,27
 403 520 403 520 437 520 c 0,0,1
EndSplineSet
EndChar

StartChar: n
Encoding: 110 110 82
Width: 389
GlyphClass: 2
Flags: W
AnchorPoint: "Anchor-11" 0 0 basechar 0
AnchorPoint: "Anchor-10" 0 0 basechar 0
AnchorPoint: "Anchor-9" 195 510 basechar 0
AnchorPoint: "Anchor-8" 0 0 basechar 0
AnchorPoint: "Anchor-7" 195 0 basechar 0
LayerCount: 2
Fore
SplineSet
237 520 m 0,0,1
 351 520 351 520 351 371 c 2,2,-1
 351 0 l 1,3,-1
 245 0 l 1,4,-1
 245 359 l 2,5,6
 245 426 245 426 201 426 c 0,7,8
 147 426 147 426 147 344 c 2,9,-1
 147 0 l 1,10,-1
 41 0 l 1,11,-1
 41 510 l 1,12,-1
 133 510 l 1,13,-1
 135 451 l 1,14,15
 164 520 164 520 237 520 c 0,0,1
EndSplineSet
EndChar

StartChar: o
Encoding: 111 111 83
Width: 374
GlyphClass: 2
Flags: W
AnchorPoint: "Anchor-11" 354 510 basechar 0
AnchorPoint: "Anchor-10" 187 255 basechar 0
AnchorPoint: "Anchor-9" 187 510 basechar 0
AnchorPoint: "Anchor-8" 337 10 basechar 0
AnchorPoint: "Anchor-7" 187 0 basechar 0
LayerCount: 2
Fore
SplineSet
31 156 m 2,0,-1
 31 354 l 2,1,2
 31 434 31 434 71.5 477 c 128,-1,3
 112 520 112 520 187 520 c 128,-1,4
 262 520 262 520 302.5 477 c 128,-1,5
 343 434 343 434 343 354 c 2,6,-1
 343 156 l 2,7,8
 343 76 343 76 302.5 33 c 128,-1,9
 262 -10 262 -10 187 -10 c 128,-1,10
 112 -10 112 -10 71.5 33 c 128,-1,11
 31 76 31 76 31 156 c 2,0,-1
237 146 m 2,12,-1
 237 364 l 2,13,14
 237 426 237 426 187 426 c 128,-1,15
 137 426 137 426 137 364 c 2,16,-1
 137 146 l 2,17,18
 137 84 137 84 187 84 c 128,-1,19
 237 84 237 84 237 146 c 2,12,-1
EndSplineSet
Substitution2: "<11,2> Diagonal Fractions lookup 30 nested-substitutions 0 subtable" ordmasculine
Substitution2: "<11,2> Diagonal Fractions lookup 28 nested-substitutions 0 subtable" ordmasculine
Substitution2: "Single Substitution lookup 27 subtable" ordmasculine
Substitution2: "'aalt' Access All Alternates in Latin lookup 0 subtable" ordmasculine
EndChar

StartChar: p
Encoding: 112 112 84
Width: 387
GlyphClass: 2
Flags: W
AnchorPoint: "Anchor-11" 0 0 basechar 0
AnchorPoint: "Anchor-10" 0 0 basechar 0
AnchorPoint: "Anchor-9" 197 510 basechar 0
AnchorPoint: "Anchor-8" 0 0 basechar 0
AnchorPoint: "Anchor-7" 194 0 basechar 0
LayerCount: 2
Fore
SplineSet
237 520 m 0,0,1
 353 520 353 520 353 371 c 2,2,-1
 353 139 l 2,3,4
 353 -10 353 -10 237 -10 c 0,5,6
 180 -10 180 -10 147 37 c 1,7,-1
 147 -155 l 1,8,-1
 41 -155 l 1,9,-1
 41 510 l 1,10,-1
 133 510 l 1,11,-1
 135 450 l 1,12,13
 163 520 163 520 237 520 c 0,0,1
247 146 m 2,14,-1
 247 364 l 2,15,16
 247 426 247 426 202 426 c 0,17,18
 147 426 147 426 147 344 c 2,19,-1
 147 166 l 2,20,21
 147 84 147 84 202 84 c 0,22,23
 247 84 247 84 247 146 c 2,14,-1
EndSplineSet
EndChar

StartChar: q
Encoding: 113 113 85
Width: 387
GlyphClass: 2
Flags: W
LayerCount: 2
Fore
SplineSet
255 442 m 1,0,-1
 269 510 l 1,1,-1
 346 510 l 1,2,-1
 346 -155 l 1,3,-1
 240 -155 l 1,4,-1
 240 37 l 1,5,6
 207 -10 207 -10 150 -10 c 0,7,8
 34 -10 34 -10 34 139 c 2,9,-1
 34 371 l 2,10,11
 34 520 34 520 150 520 c 0,12,13
 187 520 187 520 214.5 499.5 c 128,-1,14
 242 479 242 479 255 442 c 1,0,-1
185 84 m 0,15,16
 240 84 240 84 240 166 c 2,17,-1
 240 344 l 2,18,19
 240 426 240 426 185 426 c 0,20,21
 140 426 140 426 140 364 c 2,22,-1
 140 146 l 2,23,24
 140 84 140 84 185 84 c 0,15,16
EndSplineSet
EndChar

StartChar: r
Encoding: 114 114 86
Width: 272
GlyphClass: 2
Flags: W
AnchorPoint: "Anchor-11" 0 0 basechar 0
AnchorPoint: "Anchor-10" 0 0 basechar 0
AnchorPoint: "Anchor-9" 146 510 basechar 0
AnchorPoint: "Anchor-8" 0 0 basechar 0
AnchorPoint: "Anchor-7" 94 0 basechar 0
LayerCount: 2
Fore
SplineSet
234 520 m 0,0,1
 252 520 252 520 264 514 c 1,2,-1
 264 411 l 1,3,4
 252 414 252 414 237 414 c 0,5,6
 147 414 147 414 147 294 c 2,7,-1
 147 0 l 1,8,-1
 41 0 l 1,9,-1
 41 510 l 1,10,-1
 133 510 l 1,11,-1
 135 424 l 1,12,13
 156 520 156 520 234 520 c 0,0,1
EndSplineSet
EndChar

StartChar: s
Encoding: 115 115 87
Width: 342
GlyphClass: 2
Flags: W
AnchorPoint: "Anchor-11" 0 0 basechar 0
AnchorPoint: "Anchor-10" 0 0 basechar 0
AnchorPoint: "Anchor-9" 168 510 basechar 0
AnchorPoint: "Anchor-8" 0 0 basechar 0
AnchorPoint: "Anchor-7" 171 0 basechar 0
LayerCount: 2
Fore
SplineSet
175 -10 m 0,0,1
 102 -10 102 -10 61.5 31 c 128,-1,2
 21 72 21 72 21 146 c 2,3,-1
 21 162 l 1,4,-1
 123 162 l 1,5,-1
 123 143 l 2,6,7
 123 81 123 81 170 81 c 0,8,9
 216 81 216 81 216 136 c 0,10,11
 216 154 216 154 204 169 c 0,12,13
 193 184 193 184 182 192 c 128,-1,14
 171 200 171 200 142 217 c 0,15,16
 108 236 108 236 100 243 c 0,17,18
 77 261 77 261 65 272 c 0,19,20
 26 311 26 311 26 379 c 0,21,22
 26 445 26 445 63.5 482.5 c 128,-1,23
 101 520 101 520 169 520 c 0,24,25
 235 520 235 520 273.5 480 c 128,-1,26
 312 440 312 440 312 371 c 2,27,-1
 312 360 l 1,28,-1
 212 360 l 1,29,-1
 212 374 l 2,30,31
 212 429 212 429 170 429 c 0,32,33
 129 429 129 429 129 381 c 0,34,35
 129 355 129 355 147 335.5 c 128,-1,36
 165 316 165 316 207 294 c 0,37,38
 256 267 256 267 283 240 c 0,39,40
 321 205 321 205 321 138 c 0,41,42
 321 68 321 68 283 29 c 128,-1,43
 245 -10 245 -10 175 -10 c 0,0,1
EndSplineSet
EndChar

StartChar: t
Encoding: 116 116 88
Width: 271
GlyphClass: 2
Flags: W
AnchorPoint: "Anchor-11" 0 0 basechar 0
AnchorPoint: "Anchor-10" 130 260 basechar 0
AnchorPoint: "Anchor-9" 130 638 basechar 0
AnchorPoint: "Anchor-8" 0 0 basechar 0
AnchorPoint: "Anchor-7" 161 0 basechar 0
LayerCount: 2
Fore
SplineSet
253 510 m 1,0,-1
 253 420 l 1,1,-1
 176 420 l 1,2,-1
 176 128 l 2,3,4
 176 104 176 104 185.5 94 c 128,-1,5
 195 84 195 84 217 84 c 0,6,7
 234 84 234 84 253 90 c 1,8,-1
 253 0 l 1,9,10
 229 -10 229 -10 195 -10 c 0,11,12
 70 -10 70 -10 70 114 c 2,13,-1
 70 420 l 1,14,-1
 12 420 l 1,15,-1
 12 510 l 1,16,-1
 75 510 l 1,17,-1
 85 648 l 1,18,-1
 176 648 l 1,19,-1
 176 510 l 1,20,-1
 253 510 l 1,0,-1
EndSplineSet
EndChar

StartChar: u
Encoding: 117 117 89
Width: 389
GlyphClass: 2
Flags: W
AnchorPoint: "Anchor-11" 369 510 basechar 0
AnchorPoint: "Anchor-10" 0 0 basechar 0
AnchorPoint: "Anchor-9" 193 510 basechar 0
AnchorPoint: "Anchor-8" 348 0 basechar 0
AnchorPoint: "Anchor-7" 195 0 basechar 0
LayerCount: 2
Fore
SplineSet
242 166 m 2,0,-1
 242 510 l 1,1,-1
 348 510 l 1,2,-1
 348 0 l 1,3,-1
 256 0 l 1,4,-1
 254 59 l 1,5,6
 226 -10 226 -10 152 -10 c 0,7,8
 38 -10 38 -10 38 139 c 2,9,-1
 38 510 l 1,10,-1
 144 510 l 1,11,-1
 144 151 l 2,12,13
 144 84 144 84 188 84 c 0,14,15
 242 84 242 84 242 166 c 2,0,-1
EndSplineSet
EndChar

StartChar: v
Encoding: 118 118 90
Width: 360
GlyphClass: 2
Flags: W
AnchorPoint: "Anchor-11" 0 0 basechar 0
AnchorPoint: "Anchor-10" 0 0 basechar 0
AnchorPoint: "Anchor-9" 180 510 basechar 0
AnchorPoint: "Anchor-8" 0 0 basechar 0
AnchorPoint: "Anchor-7" 180 0 basechar 0
LayerCount: 2
Fore
SplineSet
245 0 m 1,0,-1
 115 0 l 1,1,-1
 12 510 l 1,2,-1
 120 510 l 1,3,-1
 185 143 l 1,4,-1
 249 510 l 1,5,-1
 348 510 l 1,6,-1
 245 0 l 1,0,-1
EndSplineSet
EndChar

StartChar: w
Encoding: 119 119 91
Width: 541
GlyphClass: 2
Flags: W
AnchorPoint: "Anchor-11" 0 0 basechar 0
AnchorPoint: "Anchor-10" 0 0 basechar 0
AnchorPoint: "Anchor-9" 271 510 basechar 0
AnchorPoint: "Anchor-8" 0 0 basechar 0
AnchorPoint: "Anchor-7" 271 0 basechar 0
LayerCount: 2
Fore
SplineSet
226 0 m 1,0,-1
 91 0 l 1,1,-1
 14 510 l 1,2,-1
 118 510 l 1,3,-1
 172 143 l 1,4,-1
 222 510 l 1,5,-1
 329 510 l 1,6,-1
 379 143 l 1,7,-1
 433 510 l 1,8,-1
 527 510 l 1,9,-1
 450 0 l 1,10,-1
 322 0 l 1,11,-1
 274 314 l 1,12,-1
 226 0 l 1,0,-1
EndSplineSet
EndChar

StartChar: x
Encoding: 120 120 92
Width: 376
GlyphClass: 2
Flags: W
AnchorPoint: "Anchor-11" 0 0 basechar 0
AnchorPoint: "Anchor-10" 0 0 basechar 0
AnchorPoint: "Anchor-9" 198 686 basechar 0
AnchorPoint: "Anchor-8" 0 0 basechar 0
AnchorPoint: "Anchor-7" 198 0 basechar 0
LayerCount: 2
Fore
SplineSet
115 0 m 1,0,-1
 10 0 l 1,1,-1
 124 262 l 1,2,-1
 16 510 l 1,3,-1
 132 510 l 1,4,-1
 193 351 l 1,5,-1
 255 510 l 1,6,-1
 360 510 l 1,7,-1
 252 262 l 1,8,-1
 366 0 l 1,9,-1
 250 0 l 1,10,-1
 183 175 l 1,11,-1
 115 0 l 1,0,-1
EndSplineSet
EndChar

StartChar: y
Encoding: 121 121 93
Width: 359
GlyphClass: 2
Flags: W
AnchorPoint: "Anchor-11" 0 0 basechar 0
AnchorPoint: "Anchor-10" 0 0 basechar 0
AnchorPoint: "Anchor-9" 180 510 basechar 0
AnchorPoint: "Anchor-8" 0 0 basechar 0
AnchorPoint: "Anchor-7" 180 0 basechar 0
LayerCount: 2
Fore
SplineSet
94 -165 m 0,0,1
 58 -165 58 -165 37 -155 c 1,2,-1
 37 -65 l 1,3,4
 55 -71 55 -71 76 -71 c 0,5,6
 103 -71 103 -71 115 -62 c 128,-1,7
 127 -53 127 -53 132 -28 c 2,8,-1
 134 -21 l 1,9,-1
 11 510 l 1,10,-1
 119 510 l 1,11,-1
 187 159 l 1,12,-1
 248 510 l 1,13,-1
 347 510 l 1,14,-1
 234 -44 l 2,15,16
 221 -109 221 -109 188.5 -137 c 128,-1,17
 156 -165 156 -165 94 -165 c 0,0,1
EndSplineSet
EndChar

StartChar: z
Encoding: 122 122 94
Width: 332
GlyphClass: 2
Flags: W
AnchorPoint: "Anchor-11" 0 0 basechar 0
AnchorPoint: "Anchor-10" 166 255 basechar 0
AnchorPoint: "Anchor-9" 169 510 basechar 0
AnchorPoint: "Anchor-8" 0 0 basechar 0
AnchorPoint: "Anchor-7" 166 0 basechar 0
LayerCount: 2
Fore
SplineSet
310 0 m 1,0,-1
 19 0 l 1,1,-1
 19 88 l 1,2,-1
 198 420 l 1,3,-1
 29 420 l 1,4,-1
 29 510 l 1,5,-1
 310 510 l 1,6,-1
 310 422 l 1,7,-1
 131 90 l 1,8,-1
 310 90 l 1,9,-1
 310 0 l 1,0,-1
EndSplineSet
EndChar

StartChar: braceleft
Encoding: 123 123 95
Width: 272
GlyphClass: 2
Flags: W
LayerCount: 2
Fore
SplineSet
249 -100 m 1,0,-1
 192 -100 l 2,1,2
 142 -100 142 -100 111.5 -71 c 128,-1,3
 81 -42 81 -42 81 11 c 2,4,-1
 81 200 l 2,5,6
 81 234 81 234 68 246.5 c 128,-1,7
 55 259 55 259 18 259 c 1,8,-1
 18 341 l 1,9,10
 55 341 55 341 68 353.5 c 128,-1,11
 81 366 81 366 81 400 c 2,12,-1
 81 589 l 2,13,14
 81 642 81 642 111.5 671 c 128,-1,15
 142 700 142 700 192 700 c 2,16,-1
 249 700 l 1,17,-1
 249 618 l 1,18,-1
 233 618 l 2,19,20
 203 618 203 618 192 605.5 c 128,-1,21
 181 593 181 593 181 558 c 2,22,-1
 181 389 l 2,23,24
 181 319 181 319 119 301 c 1,25,-1
 119 299 l 1,26,27
 181 281 181 281 181 211 c 2,28,-1
 181 42 l 2,29,30
 181 7 181 7 192 -5.5 c 128,-1,31
 203 -18 203 -18 233 -18 c 2,32,-1
 249 -18 l 1,33,-1
 249 -100 l 1,0,-1
EndSplineSet
EndChar

StartChar: bar
Encoding: 124 124 96
Width: 300
GlyphClass: 2
Flags: W
LayerCount: 2
Fore
SplineSet
195 -200 m 1,0,-1
 105 -200 l 1,1,-1
 105 800 l 1,2,-1
 195 800 l 1,3,-1
 195 -200 l 1,0,-1
EndSplineSet
EndChar

StartChar: braceright
Encoding: 125 125 97
Width: 272
GlyphClass: 2
Flags: W
LayerCount: 2
Fore
SplineSet
79 -100 m 2,0,-1
 22 -100 l 1,1,-1
 22 -18 l 1,2,-1
 38 -18 l 2,3,4
 68 -18 68 -18 79 -5.5 c 128,-1,5
 90 7 90 7 90 42 c 2,6,-1
 90 211 l 2,7,8
 90 281 90 281 152 299 c 1,9,-1
 152 301 l 1,10,11
 90 319 90 319 90 389 c 2,12,-1
 90 558 l 2,13,14
 90 593 90 593 79 605.5 c 128,-1,15
 68 618 68 618 38 618 c 2,16,-1
 22 618 l 1,17,-1
 22 700 l 1,18,-1
 79 700 l 2,19,20
 129 700 129 700 159.5 671 c 128,-1,21
 190 642 190 642 190 589 c 2,22,-1
 190 400 l 2,23,24
 190 366 190 366 203 353.5 c 128,-1,25
 216 341 216 341 253 341 c 1,26,-1
 253 259 l 1,27,28
 216 259 216 259 203 246.5 c 128,-1,29
 190 234 190 234 190 200 c 2,30,-1
 190 11 l 2,31,32
 190 -42 190 -42 159.5 -71 c 128,-1,33
 129 -100 129 -100 79 -100 c 2,0,-1
EndSplineSet
EndChar

StartChar: asciitilde
Encoding: 126 126 98
Width: 400
GlyphClass: 2
Flags: W
LayerCount: 2
Fore
SplineSet
69 227 m 1,0,-1
 12 270 l 1,1,2
 44 325 44 325 70.5 347.5 c 128,-1,3
 97 370 97 370 133 370 c 0,4,5
 163 370 163 370 207 341 c 0,6,7
 251 313 251 313 266 313 c 0,8,9
 282 313 282 313 293.5 324 c 128,-1,10
 305 335 305 335 331 373 c 1,11,-1
 388 330 l 1,12,13
 356 275 356 275 329.5 252.5 c 128,-1,14
 303 230 303 230 267 230 c 0,15,16
 239 230 239 230 193 259 c 0,17,18
 150 287 150 287 134 287 c 128,-1,19
 118 287 118 287 106.5 276 c 128,-1,20
 95 265 95 265 69 227 c 1,0,-1
EndSplineSet
EndChar

StartChar: exclamdown
Encoding: 161 161 100
Width: 214
GlyphClass: 2
Flags: W
LayerCount: 2
Fore
SplineSet
162 400 m 1,0,-1
 52 400 l 1,1,-1
 52 510 l 1,2,-1
 162 510 l 1,3,-1
 162 400 l 1,0,-1
162 -190 m 1,4,-1
 52 -190 l 1,5,-1
 52 102 l 1,6,-1
 66 325 l 1,7,-1
 148 325 l 1,8,-1
 162 102 l 1,9,-1
 162 -190 l 1,4,-1
EndSplineSet
EndChar

StartChar: cent
Encoding: 162 162 101
Width: 400
GlyphClass: 2
Flags: W
LayerCount: 2
Fore
SplineSet
366 476 m 2,0,-1
 366 442 l 1,1,-1
 262 442 l 1,2,-1
 262 483 l 2,3,4
 262 548 262 548 207 548 c 128,-1,5
 152 548 152 548 152 483 c 2,6,-1
 152 217 l 2,7,8
 152 152 152 152 207 152 c 128,-1,9
 262 152 262 152 262 217 c 2,10,-1
 262 278 l 1,11,-1
 366 278 l 1,12,-1
 366 224 l 2,13,14
 366 81 366 81 248 56 c 1,15,-1
 248 -20 l 1,16,-1
 158 -20 l 1,17,-1
 158 57 l 1,18,19
 101 69 101 69 71.5 112 c 128,-1,20
 42 155 42 155 42 224 c 2,21,-1
 42 476 l 2,22,23
 42 545 42 545 71.5 588 c 128,-1,24
 101 631 101 631 158 643 c 1,25,-1
 158 710 l 1,26,-1
 248 710 l 1,27,-1
 248 644 l 1,28,29
 366 619 366 619 366 476 c 2,0,-1
EndSplineSet
EndChar

StartChar: sterling
Encoding: 163 163 102
Width: 400
GlyphClass: 2
Flags: W
LayerCount: 2
Fore
SplineSet
363 0 m 1,0,-1
 36 0 l 1,1,-1
 36 94 l 1,2,3
 80 115 80 115 105.5 153.5 c 128,-1,4
 131 192 131 192 131 238 c 0,5,6
 131 255 131 255 128 270 c 1,7,-1
 36 270 l 1,8,-1
 36 355 l 1,9,-1
 110 355 l 1,10,-1
 75 420 l 2,11,12
 46 480 46 480 46 551 c 0,13,14
 46 624 46 624 88.5 667 c 128,-1,15
 131 710 131 710 208 710 c 0,16,17
 288 710 288 710 329 664.5 c 128,-1,18
 370 619 370 619 370 534 c 2,19,-1
 370 493 l 1,20,-1
 266 493 l 1,21,-1
 266 541 l 2,22,23
 266 610 266 610 211 610 c 128,-1,24
 156 610 156 610 156 541 c 0,25,26
 156 506 156 506 165 471 c 0,27,28
 176 436 176 436 192 399 c 2,29,-1
 212 355 l 1,30,-1
 334 355 l 1,31,-1
 334 270 l 1,32,-1
 231 270 l 1,33,34
 232 265 232 265 232 247 c 0,35,36
 232 164 232 164 162 100 c 1,37,-1
 363 100 l 1,38,-1
 363 0 l 1,0,-1
EndSplineSet
EndChar

StartChar: currency
Encoding: 164 164 103
Width: 400
GlyphClass: 2
Flags: W
LayerCount: 2
Fore
SplineSet
312 284 m 1,0,-1
 370 230 l 1,1,-1
 321 181 l 1,2,-1
 268 240 l 1,3,4
 201 201 201 201 134 240 c 1,5,-1
 81 181 l 1,6,-1
 32 230 l 1,7,-1
 90 284 l 1,8,9
 72 315 72 315 72 350 c 128,-1,10
 72 385 72 385 90 416 c 1,11,-1
 32 470 l 1,12,-1
 81 519 l 1,13,-1
 134 460 l 1,14,15
 201 499 201 499 268 460 c 1,16,-1
 321 519 l 1,17,-1
 370 470 l 1,18,-1
 312 416 l 1,19,20
 330 385 330 385 330 350 c 128,-1,21
 330 315 330 315 312 284 c 1,0,-1
162 311 m 0,22,23
 177 297 177 297 201 297 c 128,-1,24
 225 297 225 297 239 311 c 0,25,26
 254 326 254 326 254 350 c 128,-1,27
 254 374 254 374 239 388 c 0,28,29
 225 403 225 403 201 403 c 128,-1,30
 177 403 177 403 162 388 c 0,31,32
 148 374 148 374 148 350 c 128,-1,33
 148 326 148 326 162 311 c 0,22,23
EndSplineSet
EndChar

StartChar: yen
Encoding: 165 165 104
Width: 400
GlyphClass: 2
Flags: W
LayerCount: 2
Fore
SplineSet
281 700 m 1,0,-1
 388 700 l 1,1,-1
 263 323 l 1,2,-1
 348 323 l 1,3,-1
 348 254 l 1,4,-1
 255 254 l 1,5,-1
 255 181 l 1,6,-1
 348 181 l 1,7,-1
 348 112 l 1,8,-1
 255 112 l 1,9,-1
 255 0 l 1,10,-1
 145 0 l 1,11,-1
 145 112 l 1,12,-1
 56 112 l 1,13,-1
 56 181 l 1,14,-1
 145 181 l 1,15,-1
 145 254 l 1,16,-1
 56 254 l 1,17,-1
 56 323 l 1,18,-1
 137 323 l 1,19,-1
 12 700 l 1,20,-1
 129 700 l 1,21,-1
 205 439 l 1,22,-1
 281 700 l 1,0,-1
EndSplineSet
EndChar

StartChar: brokenbar
Encoding: 166 166 105
Width: 300
GlyphClass: 2
Flags: W
LayerCount: 2
Fore
SplineSet
195 400 m 1,0,-1
 105 400 l 1,1,-1
 105 800 l 1,2,-1
 195 800 l 1,3,-1
 195 400 l 1,0,-1
195 -200 m 1,4,-1
 105 -200 l 1,5,-1
 105 200 l 1,6,-1
 195 200 l 1,7,-1
 195 -200 l 1,4,-1
EndSplineSet
EndChar

StartChar: section
Encoding: 167 167 106
Width: 414
GlyphClass: 2
Flags: W
LayerCount: 2
Fore
SplineSet
318 158 m 1,0,1
 365 113 365 113 365 44 c 128,-1,2
 365 -25 365 -25 323 -66 c 128,-1,3
 281 -107 281 -107 207 -107 c 0,4,5
 136 -107 136 -107 92.5 -63.5 c 128,-1,6
 49 -20 49 -20 49 52 c 2,7,-1
 49 65 l 1,8,-1
 150 65 l 1,9,-1
 150 49 l 2,10,11
 150 -16 150 -16 206 -16 c 0,12,13
 230 -16 230 -16 245.5 -0.5 c 128,-1,14
 261 15 261 15 261 42 c 0,15,16
 261 78 261 78 230 100 c 0,17,18
 207 119 207 119 163 140 c 0,19,20
 102 172 102 172 71 198 c 0,21,22
 25 238 25 238 25 309 c 0,23,24
 25 406 25 406 96 445 c 1,25,26
 49 490 49 490 49 559 c 128,-1,27
 49 628 49 628 91 669 c 128,-1,28
 133 710 133 710 207 710 c 0,29,30
 278 710 278 710 321.5 667 c 128,-1,31
 365 624 365 624 365 551 c 2,32,-1
 365 538 l 1,33,-1
 264 538 l 1,34,-1
 264 554 l 2,35,36
 264 619 264 619 208 619 c 0,37,38
 184 619 184 619 168.5 603.5 c 128,-1,39
 153 588 153 588 153 561 c 0,40,41
 153 526 153 526 183 502 c 0,42,43
 211 482 211 482 251 463 c 0,44,45
 279 449 279 449 301 435 c 0,46,47
 321 424 321 424 343 404 c 0,48,49
 389 365 389 365 389 294 c 0,50,51
 389 197 389 197 318 158 c 1,0,1
131 321 m 0,52,53
 131 283 131 283 161 259 c 0,54,55
 185 240 185 240 229 217 c 2,56,-1
 241 211 l 1,57,58
 283 224 283 224 283 282 c 0,59,60
 283 320 283 320 253 344 c 0,61,62
 229 363 229 363 185 386 c 2,63,-1
 173 392 l 1,64,65
 131 378 131 378 131 321 c 0,52,53
EndSplineSet
EndChar

StartChar: dieresis
Encoding: 168 168 107
Width: 500
GlyphClass: 4
Flags: W
AnchorPoint: "Anchor-13" 250 689 basemark 0
LayerCount: 2
Fore
SplineSet
227 573 m 1,0,-1
 132 573 l 1,1,-1
 132 689 l 1,2,-1
 227 689 l 1,3,-1
 227 573 l 1,0,-1
368 573 m 1,4,-1
 273 573 l 1,5,-1
 273 689 l 1,6,-1
 368 689 l 1,7,-1
 368 573 l 1,4,-1
EndSplineSet
EndChar

StartChar: copyright
Encoding: 169 169 108
Width: 740
GlyphClass: 2
Flags: W
LayerCount: 2
Fore
SplineSet
619 92 m 0,0,1
 520 -10 520 -10 370 -10 c 128,-1,2
 220 -10 220 -10 121 92 c 0,3,4
 22 196 22 196 22 350 c 0,5,6
 22 505 22 505 121 607 c 0,7,8
 220 710 220 710 370 710 c 128,-1,9
 520 710 520 710 619 607 c 0,10,11
 718 505 718 505 718 350 c 0,12,13
 718 196 718 196 619 92 c 0,0,1
171 141 m 0,14,15
 249 60 249 60 370 60 c 0,16,17
 492 60 492 60 568 141 c 0,18,19
 646 224 646 224 646 350 c 0,20,21
 646 477 646 477 568 558 c 0,22,23
 492 640 492 640 370 640 c 0,24,25
 249 640 249 640 171 558 c 0,26,27
 94 476 94 476 94 350 c 128,-1,28
 94 224 94 224 171 141 c 0,14,15
253 252 m 2,29,-1
 253 446 l 2,30,31
 253 570 253 570 366 570 c 128,-1,32
 479 570 479 570 479 446 c 2,33,-1
 479 410 l 1,34,-1
 407 410 l 1,35,-1
 407 452 l 2,36,37
 407 500 407 500 368 500 c 128,-1,38
 329 500 329 500 329 452 c 2,39,-1
 329 248 l 2,40,41
 329 201 329 201 368 201 c 128,-1,42
 407 201 407 201 407 248 c 2,43,-1
 407 308 l 1,44,-1
 479 308 l 1,45,-1
 479 252 l 2,46,47
 479 130 479 130 366 130 c 128,-1,48
 253 130 253 130 253 252 c 2,29,-1
EndSplineSet
EndChar

StartChar: ordfeminine
Encoding: 170 170 109
Width: 276
GlyphClass: 2
Flags: W
LayerCount: 2
Fore
SplineSet
108 544 m 0,0,1
 147 563 147 563 158 572.5 c 128,-1,2
 169 582 169 582 169 598 c 2,3,-1
 169 605 l 2,4,5
 169 650 169 650 135 650 c 0,6,7
 97 650 97 650 97 604 c 2,8,-1
 97 592 l 1,9,-1
 30 592 l 1,10,-1
 30 601 l 2,11,12
 30 652 30 652 57 681 c 128,-1,13
 84 710 84 710 135 710 c 0,14,15
 240 710 240 710 240 593 c 2,16,-1
 240 444 l 2,17,18
 240 372 240 372 247 340 c 1,19,-1
 183 340 l 1,20,21
 180 348 180 348 177 385 c 1,22,23
 158 333 158 333 100 333 c 0,24,25
 62 333 62 333 41 357 c 128,-1,26
 20 381 20 381 20 424 c 0,27,28
 20 466 20 466 40 493.5 c 128,-1,29
 60 521 60 521 108 544 c 0,0,1
125 394 m 0,30,31
 169 394 169 394 169 459 c 2,32,-1
 169 523 l 1,33,34
 163 515 163 515 129 496 c 0,35,36
 90 474 90 474 90 436 c 0,37,38
 90 394 90 394 125 394 c 0,30,31
240 219 m 1,39,-1
 28 219 l 1,40,-1
 28 282 l 1,41,-1
 240 282 l 1,42,-1
 240 219 l 1,39,-1
EndSplineSet
EndChar

StartChar: guillemotleft
Encoding: 171 171 110
Width: 344
GlyphClass: 2
Flags: W
LayerCount: 2
Fore
SplineSet
175 184 m 1,0,-1
 95 184 l 1,1,-1
 18 300 l 1,2,-1
 95 410 l 1,3,-1
 175 410 l 1,4,-1
 118 300 l 1,5,-1
 175 184 l 1,0,-1
323 184 m 1,6,-1
 243 184 l 1,7,-1
 167 300 l 1,8,-1
 243 410 l 1,9,-1
 323 410 l 1,10,-1
 267 300 l 1,11,-1
 323 184 l 1,6,-1
EndSplineSet
EndChar

StartChar: logicalnot
Encoding: 172 172 111
Width: 400
GlyphClass: 2
Flags: W
LayerCount: 2
Fore
SplineSet
363 164 m 1,0,-1
 285 164 l 1,1,-1
 285 301 l 1,2,-1
 17 301 l 1,3,-1
 17 379 l 1,4,-1
 363 379 l 1,5,-1
 363 164 l 1,0,-1
EndSplineSet
EndChar

StartChar: uni00AD
Encoding: 173 173 112
Width: 270
GlyphClass: 2
Flags: W
LayerCount: 2
Fore
SplineSet
245 255 m 1,0,-1
 25 255 l 1,1,-1
 25 345 l 1,2,-1
 245 345 l 1,3,-1
 245 255 l 1,0,-1
EndSplineSet
EndChar

StartChar: registered
Encoding: 174 174 113
Width: 740
GlyphClass: 2
Flags: W
LayerCount: 2
Fore
SplineSet
619 92 m 0,0,1
 520 -10 520 -10 370 -10 c 128,-1,2
 220 -10 220 -10 121 92 c 0,3,4
 22 196 22 196 22 350 c 0,5,6
 22 505 22 505 121 607 c 0,7,8
 220 710 220 710 370 710 c 128,-1,9
 520 710 520 710 619 607 c 0,10,11
 718 505 718 505 718 350 c 0,12,13
 718 196 718 196 619 92 c 0,0,1
171 141 m 0,14,15
 249 60 249 60 370 60 c 0,16,17
 492 60 492 60 568 141 c 0,18,19
 646 224 646 224 646 350 c 0,20,21
 646 477 646 477 568 558 c 0,22,23
 492 640 492 640 370 640 c 0,24,25
 249 640 249 640 171 558 c 0,26,27
 94 476 94 476 94 350 c 128,-1,28
 94 224 94 224 171 141 c 0,14,15
336 136 m 1,29,-1
 260 136 l 1,30,-1
 260 564 l 1,31,-1
 376 564 l 2,32,33
 489 564 489 564 489 452 c 2,34,-1
 489 443 l 2,35,36
 489 372 489 372 437 350 c 1,37,-1
 437 348 l 1,38,39
 489 332 489 332 489 256 c 2,40,-1
 489 195 l 2,41,42
 489 156 489 156 498 136 c 1,43,-1
 420 136 l 1,44,45
 413 153 413 153 413 196 c 2,46,-1
 413 251 l 2,47,48
 413 284 413 284 403 296.5 c 128,-1,49
 393 309 393 309 366 309 c 2,50,-1
 336 309 l 1,51,-1
 336 136 l 1,29,-1
336 494 m 1,52,-1
 336 379 l 1,53,-1
 367 379 l 2,54,55
 413 379 413 379 413 430 c 2,56,-1
 413 443 l 2,57,58
 413 494 413 494 372 494 c 2,59,-1
 336 494 l 1,52,-1
EndSplineSet
EndChar

StartChar: macron
Encoding: 175 175 114
Width: 500
GlyphClass: 4
Flags: W
AnchorPoint: "Anchor-13" 250 670 basemark 0
LayerCount: 2
Fore
SplineSet
365 592 m 1,0,-1
 135 592 l 1,1,-1
 135 670 l 1,2,-1
 365 670 l 1,3,-1
 365 592 l 1,0,-1
EndSplineSet
EndChar

StartChar: degree
Encoding: 176 176 115
Width: 400
GlyphClass: 2
Flags: W
LayerCount: 2
Fore
SplineSet
290 493 m 128,-1,1
 253 456 253 456 200 456 c 128,-1,2
 147 456 147 456 110 493 c 128,-1,3
 73 530 73 530 73 583 c 128,-1,4
 73 636 73 636 110 673 c 128,-1,5
 147 710 147 710 200 710 c 128,-1,6
 253 710 253 710 290 673 c 128,-1,7
 327 636 327 636 327 583 c 128,-1,0
 327 530 327 530 290 493 c 128,-1,1
163 546 m 128,-1,9
 178 531 178 531 200 531 c 128,-1,10
 222 531 222 531 237 546 c 0,11,12
 253 561 253 561 253 583 c 128,-1,13
 253 605 253 605 237 620 c 0,14,15
 222 636 222 636 200 636 c 128,-1,16
 178 636 178 636 163 620 c 0,17,18
 148 605 148 605 148 583 c 128,-1,8
 148 561 148 561 163 546 c 128,-1,9
EndSplineSet
EndChar

StartChar: plusminus
Encoding: 177 177 116
Width: 400
GlyphClass: 2
Flags: W
LayerCount: 2
Fore
SplineSet
363 104 m 1,0,-1
 37 104 l 1,1,-1
 37 182 l 1,2,-1
 161 182 l 1,3,-1
 161 297 l 1,4,-1
 37 297 l 1,5,-1
 37 375 l 1,6,-1
 161 375 l 1,7,-1
 161 494 l 1,8,-1
 239 494 l 1,9,-1
 239 375 l 1,10,-1
 363 375 l 1,11,-1
 363 297 l 1,12,-1
 239 297 l 1,13,-1
 239 182 l 1,14,-1
 363 182 l 1,15,-1
 363 104 l 1,0,-1
EndSplineSet
EndChar

StartChar: uni00B2
Encoding: 178 178 117
Width: 278
GlyphClass: 2
Flags: W
LayerCount: 2
Fore
SplineSet
239 351 m 1,0,-1
 37 351 l 1,1,-1
 37 401 l 2,2,3
 37 450 37 450 52 486 c 128,-1,4
 67 522 67 522 106 563 c 0,5,6
 145 602 145 602 160 631.5 c 128,-1,7
 175 661 175 661 175 695 c 0,8,9
 175 742 175 742 139 742 c 128,-1,10
 103 742 103 742 103 698 c 2,11,-1
 103 657 l 1,12,-1
 37 657 l 1,13,-1
 37 694 l 2,14,15
 37 805 37 805 141 805 c 0,16,17
 192 805 192 805 218.5 777 c 128,-1,18
 245 749 245 749 245 697 c 0,19,20
 245 654 245 654 225.5 615.5 c 128,-1,21
 206 577 206 577 159 527 c 0,22,23
 128 494 128 494 117 473 c 128,-1,24
 106 452 106 452 106 426 c 2,25,-1
 106 414 l 1,26,-1
 239 414 l 1,27,-1
 239 351 l 1,0,-1
EndSplineSet
EndChar

StartChar: uni00B3
Encoding: 179 179 118
Width: 278
GlyphClass: 2
Flags: W
LayerCount: 2
Fore
SplineSet
32 453 m 2,0,-1
 32 490 l 1,1,-1
 98 490 l 1,2,-1
 98 448 l 2,3,4
 98 404 98 404 134 404 c 128,-1,5
 170 404 170 404 170 455 c 2,6,-1
 170 495 l 2,7,8
 170 526 170 526 159.5 538.5 c 128,-1,9
 149 551 149 551 125 551 c 2,10,-1
 101 551 l 1,11,-1
 101 614 l 1,12,-1
 128 614 l 2,13,14
 170 614 170 614 170 662 c 2,15,-1
 170 691 l 2,16,17
 170 742 170 742 134 742 c 128,-1,18
 98 742 98 742 98 698 c 2,19,-1
 98 671 l 1,20,-1
 32 671 l 1,21,-1
 32 693 l 2,22,23
 32 805 32 805 136 805 c 128,-1,24
 240 805 240 805 240 693 c 2,25,-1
 240 674 l 2,26,27
 240 607 240 607 191 585 c 1,28,-1
 191 583 l 1,29,30
 240 562 240 562 240 490 c 2,31,-1
 240 453 l 2,32,33
 240 341 240 341 136 341 c 128,-1,34
 32 341 32 341 32 453 c 2,0,-1
EndSplineSet
EndChar

StartChar: acute
Encoding: 180 180 119
Width: 500
GlyphClass: 4
Flags: W
AnchorPoint: "Anchor-13" 250 698 basemark 0
LayerCount: 2
Fore
SplineSet
273 563 m 1,0,-1
 190 563 l 1,1,-1
 260 698 l 1,2,-1
 380 698 l 1,3,-1
 273 563 l 1,0,-1
EndSplineSet
EndChar

StartChar: mu
Encoding: 181 181 120
Width: 392
GlyphClass: 2
Flags: W
LayerCount: 2
Fore
SplineSet
245 166 m 2,0,-1
 245 510 l 1,1,-1
 351 510 l 1,2,-1
 351 0 l 1,3,-1
 259 0 l 1,4,-1
 257 59 l 1,5,6
 228 -10 228 -10 155 -10 c 2,7,-1
 147 -10 l 1,8,-1
 147 -155 l 1,9,-1
 41 -155 l 1,10,-1
 41 510 l 1,11,-1
 147 510 l 1,12,-1
 147 151 l 2,13,14
 147 84 147 84 191 84 c 0,15,16
 245 84 245 84 245 166 c 2,0,-1
EndSplineSet
EndChar

StartChar: paragraph
Encoding: 182 182 121
Width: 451
GlyphClass: 2
Flags: W
LayerCount: 2
Fore
SplineSet
258 -97 m 1,0,-1
 176 -97 l 1,1,-1
 176 305 l 1,2,3
 28 305 28 305 28 466 c 2,4,-1
 28 527 l 2,5,6
 28 700 28 700 191 700 c 2,7,-1
 400 700 l 1,8,-1
 400 -97 l 1,9,-1
 318 -97 l 1,10,-1
 318 620 l 1,11,-1
 258 620 l 1,12,-1
 258 -97 l 1,0,-1
EndSplineSet
EndChar

StartChar: periodcentered
Encoding: 183 183 122
Width: 200
GlyphClass: 2
Flags: W
LayerCount: 2
Fore
SplineSet
155 245 m 1,0,-1
 45 245 l 1,1,-1
 45 355 l 1,2,-1
 155 355 l 1,3,-1
 155 245 l 1,0,-1
EndSplineSet
EndChar

StartChar: cedilla
Encoding: 184 184 123
Width: 500
GlyphClass: 4
Flags: W
AnchorPoint: "Anchor-12" 255 -155 basemark 0
LayerCount: 2
Fore
SplineSet
247 -155 m 0,0,1
 151 -155 151 -155 151 -93 c 2,2,-1
 151 -83 l 1,3,-1
 225 -83 l 1,4,-1
 225 -91 l 2,5,6
 225 -115 225 -115 247 -115 c 0,7,8
 273 -115 273 -115 273 -87 c 0,9,10
 273 -57 273 -57 236 -57 c 2,11,-1
 231 -57 l 1,12,-1
 231 14 l 1,13,-1
 280 14 l 1,14,-1
 280 -39 l 1,15,16
 316 -39 316 -39 332.5 -51 c 128,-1,17
 349 -63 349 -63 349 -90 c 0,18,19
 349 -128 349 -128 325.5 -141.5 c 128,-1,20
 302 -155 302 -155 247 -155 c 0,0,1
EndSplineSet
EndChar

StartChar: uni00B9
Encoding: 185 185 124
Width: 278
GlyphClass: 2
Flags: W
LayerCount: 2
Fore
SplineSet
196 351 m 1,0,-1
 126 351 l 1,1,-1
 126 690 l 1,2,-1
 52 690 l 1,3,-1
 52 739 l 1,4,5
 95 739 95 739 115.5 751 c 128,-1,6
 136 763 136 763 150 795 c 1,7,-1
 196 795 l 1,8,-1
 196 351 l 1,0,-1
EndSplineSet
EndChar

StartChar: ordmasculine
Encoding: 186 186 125
Width: 277
GlyphClass: 2
Flags: W
LayerCount: 2
Fore
SplineSet
29 451 m 2,0,-1
 29 592 l 2,1,2
 29 648 29 648 58 679 c 128,-1,3
 87 710 87 710 139 710 c 128,-1,4
 191 710 191 710 220 679 c 128,-1,5
 249 648 249 648 249 592 c 2,6,-1
 249 451 l 2,7,8
 249 394 249 394 220.5 363.5 c 128,-1,9
 192 333 192 333 139 333 c 128,-1,10
 86 333 86 333 57.5 363.5 c 128,-1,11
 29 394 29 394 29 451 c 2,0,-1
179 444 m 2,12,-1
 179 599 l 2,13,14
 179 647 179 647 139 647 c 128,-1,15
 99 647 99 647 99 599 c 2,16,-1
 99 444 l 2,17,18
 99 396 99 396 139 396 c 128,-1,19
 179 396 179 396 179 444 c 2,12,-1
245 219 m 1,20,-1
 33 219 l 1,21,-1
 33 282 l 1,22,-1
 245 282 l 1,23,-1
 245 219 l 1,20,-1
EndSplineSet
EndChar

StartChar: guillemotright
Encoding: 187 187 126
Width: 343
GlyphClass: 2
Flags: W
LayerCount: 2
Fore
SplineSet
101 184 m 1,0,-1
 21 184 l 1,1,-1
 77 300 l 1,2,-1
 21 410 l 1,3,-1
 101 410 l 1,4,-1
 177 300 l 1,5,-1
 101 184 l 1,0,-1
249 184 m 1,6,-1
 169 184 l 1,7,-1
 225 300 l 1,8,-1
 169 410 l 1,9,-1
 249 410 l 1,10,-1
 325 300 l 1,11,-1
 249 184 l 1,6,-1
EndSplineSet
EndChar

StartChar: onequarter
Encoding: 188 188 127
Width: 649
GlyphClass: 2
Flags: W
LayerCount: 2
Fore
SplineSet
196 256 m 1,0,-1
 126 256 l 1,1,-1
 126 595 l 1,2,-1
 52 595 l 1,3,-1
 52 644 l 1,4,5
 95 644 95 644 115.5 656 c 128,-1,6
 136 668 136 668 150 700 c 1,7,-1
 196 700 l 1,8,-1
 196 256 l 1,0,-1
224 0 m 1,9,-1
 154 0 l 1,10,-1
 425 700 l 1,11,-1
 495 700 l 1,12,-1
 224 0 l 1,9,-1
595 0 m 1,13,-1
 525 0 l 1,14,-1
 525 80 l 1,15,-1
 392 80 l 1,16,-1
 392 143 l 1,17,-1
 519 444 l 1,18,-1
 595 444 l 1,19,-1
 595 143 l 1,20,-1
 628 143 l 1,21,-1
 628 80 l 1,22,-1
 595 80 l 1,23,-1
 595 0 l 1,13,-1
526 323 m 1,24,-1
 455 143 l 1,25,-1
 526 143 l 1,26,-1
 526 323 l 1,24,-1
EndSplineSet
EndChar

StartChar: onehalf
Encoding: 189 189 128
Width: 649
GlyphClass: 2
Flags: W
LayerCount: 2
Fore
SplineSet
196 256 m 1,0,-1
 126 256 l 1,1,-1
 126 595 l 1,2,-1
 52 595 l 1,3,-1
 52 644 l 1,4,5
 95 644 95 644 115.5 656 c 128,-1,6
 136 668 136 668 150 700 c 1,7,-1
 196 700 l 1,8,-1
 196 256 l 1,0,-1
224 0 m 1,9,-1
 154 0 l 1,10,-1
 425 700 l 1,11,-1
 495 700 l 1,12,-1
 224 0 l 1,9,-1
610 0 m 1,13,-1
 408 0 l 1,14,-1
 408 50 l 2,15,16
 408 99 408 99 423 135 c 128,-1,17
 438 171 438 171 477 212 c 0,18,19
 516 251 516 251 531 280.5 c 128,-1,20
 546 310 546 310 546 344 c 0,21,22
 546 391 546 391 510 391 c 128,-1,23
 474 391 474 391 474 347 c 2,24,-1
 474 306 l 1,25,-1
 408 306 l 1,26,-1
 408 343 l 2,27,28
 408 454 408 454 512 454 c 0,29,30
 563 454 563 454 589.5 426 c 128,-1,31
 616 398 616 398 616 346 c 0,32,33
 616 304 616 304 596.5 265 c 128,-1,34
 577 226 577 226 530 176 c 0,35,36
 499 143 499 143 488 122 c 128,-1,37
 477 101 477 101 477 75 c 2,38,-1
 477 63 l 1,39,-1
 610 63 l 1,40,-1
 610 0 l 1,13,-1
EndSplineSet
EndChar

StartChar: threequarters
Encoding: 190 190 129
Width: 649
GlyphClass: 2
Flags: W
LayerCount: 2
Fore
SplineSet
32 358 m 2,0,-1
 32 395 l 1,1,-1
 98 395 l 1,2,-1
 98 353 l 2,3,4
 98 309 98 309 134 309 c 128,-1,5
 170 309 170 309 170 360 c 2,6,-1
 170 400 l 2,7,8
 170 431 170 431 159.5 443.5 c 128,-1,9
 149 456 149 456 125 456 c 2,10,-1
 101 456 l 1,11,-1
 101 519 l 1,12,-1
 128 519 l 2,13,14
 170 519 170 519 170 567 c 2,15,-1
 170 596 l 2,16,17
 170 647 170 647 134 647 c 128,-1,18
 98 647 98 647 98 603 c 2,19,-1
 98 576 l 1,20,-1
 32 576 l 1,21,-1
 32 598 l 2,22,23
 32 710 32 710 136 710 c 128,-1,24
 240 710 240 710 240 598 c 2,25,-1
 240 579 l 2,26,27
 240 512 240 512 191 490 c 1,28,-1
 191 488 l 1,29,30
 240 467 240 467 240 395 c 2,31,-1
 240 358 l 2,32,33
 240 246 240 246 136 246 c 128,-1,34
 32 246 32 246 32 358 c 2,0,-1
224 0 m 1,35,-1
 154 0 l 1,36,-1
 425 700 l 1,37,-1
 495 700 l 1,38,-1
 224 0 l 1,35,-1
595 0 m 1,39,-1
 525 0 l 1,40,-1
 525 80 l 1,41,-1
 392 80 l 1,42,-1
 392 143 l 1,43,-1
 519 444 l 1,44,-1
 595 444 l 1,45,-1
 595 143 l 1,46,-1
 628 143 l 1,47,-1
 628 80 l 1,48,-1
 595 80 l 1,49,-1
 595 0 l 1,39,-1
526 323 m 1,50,-1
 455 143 l 1,51,-1
 526 143 l 1,52,-1
 526 323 l 1,50,-1
EndSplineSet
EndChar

StartChar: questiondown
Encoding: 191 191 130
Width: 360
GlyphClass: 2
Flags: W
LayerCount: 2
Fore
SplineSet
251 400 m 1,0,-1
 141 400 l 1,1,-1
 141 510 l 1,2,-1
 251 510 l 1,3,-1
 251 400 l 1,0,-1
181 -200 m 0,4,5
 101 -200 101 -200 59.5 -154.5 c 128,-1,6
 18 -109 18 -109 18 -24 c 0,7,8
 18 63 18 63 91 160 c 0,9,10
 148 236 148 236 148 287 c 2,11,-1
 148 325 l 1,12,-1
 244 325 l 1,13,-1
 244 283 l 2,14,15
 244 208 244 208 190 131 c 0,16,17
 154 81 154 81 141 46 c 128,-1,18
 128 11 128 11 128 -31 c 0,19,20
 128 -100 128 -100 183 -100 c 128,-1,21
 238 -100 238 -100 238 -31 c 2,22,-1
 238 45 l 1,23,-1
 342 45 l 1,24,-1
 342 -24 l 2,25,26
 342 -109 342 -109 300.5 -154.5 c 128,-1,27
 259 -200 259 -200 181 -200 c 0,4,5
EndSplineSet
PairPos2: "'kern' Horizontal Kerning in Latin lookup 0 per glyph data 0" nine dx=0 dy=0 dh=0 dv=0 dx=0 dy=0 dh=0 dv=0
PairPos2: "'kern' Horizontal Kerning in Latin lookup 0 per glyph data 0" seven dx=0 dy=0 dh=0 dv=0 dx=0 dy=0 dh=0 dv=0
PairPos2: "'kern' Horizontal Kerning in Latin lookup 0 per glyph data 0" four dx=0 dy=0 dh=0 dv=0 dx=0 dy=0 dh=0 dv=0
PairPos2: "'kern' Horizontal Kerning in Latin lookup 0 per glyph data 0" one dx=0 dy=0 dh=0 dv=0 dx=0 dy=0 dh=0 dv=0
PairPos2: "'kern' Horizontal Kerning in Latin lookup 0 per glyph data 0" zero dx=0 dy=0 dh=0 dv=0 dx=0 dy=0 dh=0 dv=0
EndChar

StartChar: Agrave
Encoding: 192 192 131
Width: 399
GlyphClass: 2
Flags: W
AnchorPoint: "Anchor-11" 0 0 basechar 0
AnchorPoint: "Anchor-10" 0 0 basechar 0
AnchorPoint: "Anchor-9" 200 878 basechar 0
AnchorPoint: "Anchor-8" 388 0 basechar 0
AnchorPoint: "Anchor-7" 200 0 basechar 0
LayerCount: 2
Fore
SplineSet
190 878 m 1,0,-1
 260 743 l 1,1,-1
 177 743 l 1,2,-1
 70 878 l 1,3,-1
 190 878 l 1,0,-1
388 0 m 1,4,-1
 278 0 l 1,5,-1
 259 137 l 1,6,-1
 132 137 l 1,7,-1
 113 0 l 1,8,-1
 11 0 l 1,9,-1
 125 700 l 1,10,-1
 274 700 l 1,11,-1
 388 0 l 1,4,-1
195 585 m 1,12,-1
 146 232 l 1,13,-1
 245 232 l 1,14,-1
 195 585 l 1,12,-1
EndSplineSet
EndChar

StartChar: Aacute
Encoding: 193 193 132
Width: 399
GlyphClass: 2
Flags: W
AnchorPoint: "Anchor-11" 0 0 basechar 0
AnchorPoint: "Anchor-10" 0 0 basechar 0
AnchorPoint: "Anchor-9" 200 878 basechar 0
AnchorPoint: "Anchor-8" 388 0 basechar 0
AnchorPoint: "Anchor-7" 200 0 basechar 0
LayerCount: 2
Fore
SplineSet
210 878 m 1,0,-1
 330 878 l 1,1,-1
 223 743 l 1,2,-1
 140 743 l 1,3,-1
 210 878 l 1,0,-1
388 0 m 1,4,-1
 278 0 l 1,5,-1
 259 137 l 1,6,-1
 132 137 l 1,7,-1
 113 0 l 1,8,-1
 11 0 l 1,9,-1
 125 700 l 1,10,-1
 274 700 l 1,11,-1
 388 0 l 1,4,-1
195 585 m 1,12,-1
 146 232 l 1,13,-1
 245 232 l 1,14,-1
 195 585 l 1,12,-1
EndSplineSet
EndChar

StartChar: Acircumflex
Encoding: 194 194 133
Width: 399
GlyphClass: 2
Flags: W
AnchorPoint: "Anchor-11" 0 0 basechar 0
AnchorPoint: "Anchor-10" 0 0 basechar 0
AnchorPoint: "Anchor-9" 200 878 basechar 0
AnchorPoint: "Anchor-8" 388 0 basechar 0
AnchorPoint: "Anchor-7" 200 0 basechar 0
LayerCount: 2
Fore
SplineSet
251 743 m 1,0,-1
 200 818 l 1,1,-1
 149 743 l 1,2,-1
 66 743 l 1,3,-1
 148 878 l 1,4,-1
 252 878 l 1,5,-1
 334 743 l 1,6,-1
 251 743 l 1,0,-1
388 0 m 1,7,-1
 278 0 l 1,8,-1
 259 137 l 1,9,-1
 132 137 l 1,10,-1
 113 0 l 1,11,-1
 11 0 l 1,12,-1
 125 700 l 1,13,-1
 274 700 l 1,14,-1
 388 0 l 1,7,-1
195 585 m 1,15,-1
 146 232 l 1,16,-1
 245 232 l 1,17,-1
 195 585 l 1,15,-1
EndSplineSet
EndChar

StartChar: Atilde
Encoding: 195 195 134
Width: 399
GlyphClass: 2
Flags: W
AnchorPoint: "Anchor-11" 0 0 basechar 0
AnchorPoint: "Anchor-10" 0 0 basechar 0
AnchorPoint: "Anchor-9" 200 856 basechar 0
AnchorPoint: "Anchor-8" 388 0 basechar 0
AnchorPoint: "Anchor-7" 200 0 basechar 0
LayerCount: 2
Fore
SplineSet
157 791 m 0,0,1
 136 791 136 791 120 752 c 1,2,-1
 66 784 l 1,3,4
 104 868 104 868 157 868 c 0,5,6
 182 868 182 868 211 846 c 0,7,8
 232 831 232 831 243 831 c 0,9,10
 262 831 262 831 280 870 c 1,11,-1
 334 838 l 1,12,13
 296 754 296 754 243 754 c 0,14,15
 218 754 218 754 189 776 c 0,16,17
 168 791 168 791 157 791 c 0,0,1
388 0 m 1,18,-1
 278 0 l 1,19,-1
 259 137 l 1,20,-1
 132 137 l 1,21,-1
 113 0 l 1,22,-1
 11 0 l 1,23,-1
 125 700 l 1,24,-1
 274 700 l 1,25,-1
 388 0 l 1,18,-1
195 585 m 1,26,-1
 146 232 l 1,27,-1
 245 232 l 1,28,-1
 195 585 l 1,26,-1
EndSplineSet
EndChar

StartChar: Adieresis
Encoding: 196 196 135
Width: 399
GlyphClass: 2
Flags: W
AnchorPoint: "Anchor-11" 0 0 basechar 0
AnchorPoint: "Anchor-10" 0 0 basechar 0
AnchorPoint: "Anchor-9" 200 869 basechar 0
AnchorPoint: "Anchor-8" 388 0 basechar 0
AnchorPoint: "Anchor-7" 200 0 basechar 0
LayerCount: 2
Fore
SplineSet
82 869 m 1,0,-1
 177 869 l 1,1,-1
 177 753 l 1,2,-1
 82 753 l 1,3,-1
 82 869 l 1,0,-1
223 869 m 1,4,-1
 318 869 l 1,5,-1
 318 753 l 1,6,-1
 223 753 l 1,7,-1
 223 869 l 1,4,-1
388 0 m 1,8,-1
 278 0 l 1,9,-1
 259 137 l 1,10,-1
 132 137 l 1,11,-1
 113 0 l 1,12,-1
 11 0 l 1,13,-1
 125 700 l 1,14,-1
 274 700 l 1,15,-1
 388 0 l 1,8,-1
195 585 m 1,16,-1
 146 232 l 1,17,-1
 245 232 l 1,18,-1
 195 585 l 1,16,-1
EndSplineSet
EndChar

StartChar: Aring
Encoding: 197 197 136
Width: 399
GlyphClass: 2
Flags: W
AnchorPoint: "Anchor-11" 0 0 basechar 0
AnchorPoint: "Anchor-10" 0 0 basechar 0
AnchorPoint: "Anchor-9" 200 919 basechar 0
AnchorPoint: "Anchor-8" 388 0 basechar 0
AnchorPoint: "Anchor-7" 200 0 basechar 0
LayerCount: 2
Fore
SplineSet
263 768 m 0,0,1
 238 743 238 743 200 743 c 0,2,3
 161 743 161 743 136 768 c 0,4,5
 111 794 111 794 111 831 c 128,-1,6
 111 868 111 868 136 893 c 0,7,8
 162 919 162 919 200 919 c 0,9,10
 237 919 237 919 263 893 c 0,11,12
 289 868 289 868 289 831 c 128,-1,13
 289 794 289 794 263 768 c 0,0,1
223 856 m 0,14,15
 214 866 214 866 200 866 c 128,-1,16
 186 866 186 866 177 856 c 0,17,18
 168 847 168 847 168 831 c 128,-1,19
 168 815 168 815 177 805 c 0,20,21
 186 796 186 796 200 796 c 128,-1,22
 214 796 214 796 223 805 c 0,23,24
 232 815 232 815 232 831 c 128,-1,25
 232 847 232 847 223 856 c 0,14,15
388 0 m 1,26,-1
 278 0 l 1,27,-1
 259 137 l 1,28,-1
 132 137 l 1,29,-1
 113 0 l 1,30,-1
 11 0 l 1,31,-1
 125 700 l 1,32,-1
 274 700 l 1,33,-1
 388 0 l 1,26,-1
195 585 m 1,34,-1
 146 232 l 1,35,-1
 245 232 l 1,36,-1
 195 585 l 1,34,-1
EndSplineSet
EndChar

StartChar: AE
Encoding: 198 198 137
Width: 575
GlyphClass: 2
Flags: W
AnchorPoint: "Anchor-11" 0 0 basechar 0
AnchorPoint: "Anchor-10" 0 0 basechar 0
AnchorPoint: "Anchor-9" 287 690 basechar 0
AnchorPoint: "Anchor-8" 0 0 basechar 0
AnchorPoint: "Anchor-7" 287 0 basechar 0
LayerCount: 2
Fore
SplineSet
557 700 m 1,0,-1
 557 600 l 1,1,-1
 367 600 l 1,2,-1
 367 415 l 1,3,-1
 518 415 l 1,4,-1
 518 315 l 1,5,-1
 367 315 l 1,6,-1
 367 100 l 1,7,-1
 557 100 l 1,8,-1
 557 0 l 1,9,-1
 257 0 l 1,10,-1
 257 137 l 1,11,-1
 149 137 l 1,12,-1
 114 0 l 1,13,-1
 9 0 l 1,14,-1
 198 700 l 1,15,-1
 557 700 l 1,0,-1
257 565 m 1,16,-1
 173 232 l 1,17,-1
 257 232 l 1,18,-1
 257 565 l 1,16,-1
EndSplineSet
EndChar

StartChar: Ccedilla
Encoding: 199 199 138
Width: 381
GlyphClass: 2
Flags: W
AnchorPoint: "Anchor-11" 0 0 basechar 0
AnchorPoint: "Anchor-10" 0 0 basechar 0
AnchorPoint: "Anchor-9" 194 690 basechar 0
AnchorPoint: "Anchor-8" 0 0 basechar 0
AnchorPoint: "Anchor-7" 198 -155 basechar 0
LayerCount: 2
Fore
SplineSet
357 538 m 2,0,-1
 357 464 l 1,1,-1
 253 464 l 1,2,-1
 253 545 l 2,3,4
 253 610 253 610 198 610 c 128,-1,5
 143 610 143 610 143 545 c 2,6,-1
 143 154 l 2,7,8
 143 90 143 90 198 90 c 128,-1,9
 253 90 253 90 253 154 c 2,10,-1
 253 256 l 1,11,-1
 357 256 l 1,12,-1
 357 162 l 2,13,14
 357 87 357 87 322.5 43 c 128,-1,15
 288 -1 288 -1 223 -8 c 1,16,-1
 223 -39 l 1,17,18
 259 -39 259 -39 275.5 -51 c 128,-1,19
 292 -63 292 -63 292 -90 c 0,20,21
 292 -128 292 -128 268.5 -141.5 c 128,-1,22
 245 -155 245 -155 190 -155 c 0,23,24
 94 -155 94 -155 94 -93 c 2,25,-1
 94 -83 l 1,26,-1
 168 -83 l 1,27,-1
 168 -91 l 2,28,29
 168 -115 168 -115 190 -115 c 0,30,31
 216 -115 216 -115 216 -87 c 0,32,33
 216 -57 216 -57 179 -57 c 2,34,-1
 174 -57 l 1,35,-1
 174 -9 l 1,36,37
 105 -3 105 -3 69 41.5 c 128,-1,38
 33 86 33 86 33 162 c 2,39,-1
 33 538 l 2,40,41
 33 620 33 620 75 665 c 128,-1,42
 117 710 117 710 195 710 c 128,-1,43
 273 710 273 710 315 665 c 128,-1,44
 357 620 357 620 357 538 c 2,0,-1
EndSplineSet
EndChar

StartChar: Egrave
Encoding: 200 200 139
Width: 359
GlyphClass: 2
Flags: W
AnchorPoint: "Anchor-11" 0 0 basechar 0
AnchorPoint: "Anchor-10" 0 0 basechar 0
AnchorPoint: "Anchor-9" 191 878 basechar 0
AnchorPoint: "Anchor-8" 341 0 basechar 0
AnchorPoint: "Anchor-7" 191 0 basechar 0
LayerCount: 2
Fore
SplineSet
251 743 m 1,0,-1
 168 743 l 1,1,-1
 61 878 l 1,2,-1
 181 878 l 1,3,-1
 251 743 l 1,0,-1
341 0 m 1,4,-1
 41 0 l 1,5,-1
 41 700 l 1,6,-1
 341 700 l 1,7,-1
 341 600 l 1,8,-1
 151 600 l 1,9,-1
 151 415 l 1,10,-1
 302 415 l 1,11,-1
 302 315 l 1,12,-1
 151 315 l 1,13,-1
 151 100 l 1,14,-1
 341 100 l 1,15,-1
 341 0 l 1,4,-1
EndSplineSet
EndChar

StartChar: Eacute
Encoding: 201 201 140
Width: 359
GlyphClass: 2
Flags: W
AnchorPoint: "Anchor-11" 0 0 basechar 0
AnchorPoint: "Anchor-10" 0 0 basechar 0
AnchorPoint: "Anchor-9" 191 878 basechar 0
AnchorPoint: "Anchor-8" 341 0 basechar 0
AnchorPoint: "Anchor-7" 191 0 basechar 0
LayerCount: 2
Fore
SplineSet
214 743 m 1,0,-1
 131 743 l 1,1,-1
 201 878 l 1,2,-1
 321 878 l 1,3,-1
 214 743 l 1,0,-1
341 0 m 1,4,-1
 41 0 l 1,5,-1
 41 700 l 1,6,-1
 341 700 l 1,7,-1
 341 600 l 1,8,-1
 151 600 l 1,9,-1
 151 415 l 1,10,-1
 302 415 l 1,11,-1
 302 315 l 1,12,-1
 151 315 l 1,13,-1
 151 100 l 1,14,-1
 341 100 l 1,15,-1
 341 0 l 1,4,-1
EndSplineSet
EndChar

StartChar: Ecircumflex
Encoding: 202 202 141
Width: 359
GlyphClass: 2
Flags: W
AnchorPoint: "Anchor-11" 0 0 basechar 0
AnchorPoint: "Anchor-10" 0 0 basechar 0
AnchorPoint: "Anchor-9" 191 878 basechar 0
AnchorPoint: "Anchor-8" 341 0 basechar 0
AnchorPoint: "Anchor-7" 191 0 basechar 0
LayerCount: 2
Fore
SplineSet
140 743 m 1,0,-1
 57 743 l 1,1,-1
 139 878 l 1,2,-1
 243 878 l 1,3,-1
 325 743 l 1,4,-1
 242 743 l 1,5,-1
 191 818 l 1,6,-1
 140 743 l 1,0,-1
341 0 m 1,7,-1
 41 0 l 1,8,-1
 41 700 l 1,9,-1
 341 700 l 1,10,-1
 341 600 l 1,11,-1
 151 600 l 1,12,-1
 151 415 l 1,13,-1
 302 415 l 1,14,-1
 302 315 l 1,15,-1
 151 315 l 1,16,-1
 151 100 l 1,17,-1
 341 100 l 1,18,-1
 341 0 l 1,7,-1
EndSplineSet
EndChar

StartChar: Edieresis
Encoding: 203 203 142
Width: 359
GlyphClass: 2
Flags: W
AnchorPoint: "Anchor-11" 0 0 basechar 0
AnchorPoint: "Anchor-10" 0 0 basechar 0
AnchorPoint: "Anchor-9" 191 869 basechar 0
AnchorPoint: "Anchor-8" 341 0 basechar 0
AnchorPoint: "Anchor-7" 191 0 basechar 0
LayerCount: 2
Fore
SplineSet
168 753 m 1,0,-1
 73 753 l 1,1,-1
 73 869 l 1,2,-1
 168 869 l 1,3,-1
 168 753 l 1,0,-1
309 753 m 1,4,-1
 214 753 l 1,5,-1
 214 869 l 1,6,-1
 309 869 l 1,7,-1
 309 753 l 1,4,-1
341 0 m 1,8,-1
 41 0 l 1,9,-1
 41 700 l 1,10,-1
 341 700 l 1,11,-1
 341 600 l 1,12,-1
 151 600 l 1,13,-1
 151 415 l 1,14,-1
 302 415 l 1,15,-1
 302 315 l 1,16,-1
 151 315 l 1,17,-1
 151 100 l 1,18,-1
 341 100 l 1,19,-1
 341 0 l 1,8,-1
EndSplineSet
EndChar

StartChar: Igrave
Encoding: 204 204 143
Width: 192
GlyphClass: 2
Flags: W
AnchorPoint: "Anchor-11" 0 0 basechar 0
AnchorPoint: "Anchor-10" 0 0 basechar 0
AnchorPoint: "Anchor-9" 96 878 basechar 0
AnchorPoint: "Anchor-8" 173 0 basechar 0
AnchorPoint: "Anchor-7" 96 0 basechar 0
LayerCount: 2
Fore
SplineSet
156 743 m 1,0,-1
 73 743 l 1,1,-1
 -34 878 l 1,2,-1
 86 878 l 1,3,-1
 156 743 l 1,0,-1
151 0 m 1,4,-1
 41 0 l 1,5,-1
 41 700 l 1,6,-1
 151 700 l 1,7,-1
 151 0 l 1,4,-1
EndSplineSet
EndChar

StartChar: Iacute
Encoding: 205 205 144
Width: 192
GlyphClass: 2
Flags: W
AnchorPoint: "Anchor-11" 0 0 basechar 0
AnchorPoint: "Anchor-10" 0 0 basechar 0
AnchorPoint: "Anchor-9" 96 878 basechar 0
AnchorPoint: "Anchor-8" 173 0 basechar 0
AnchorPoint: "Anchor-7" 96 0 basechar 0
LayerCount: 2
Fore
SplineSet
119 743 m 1,0,-1
 36 743 l 1,1,-1
 106 878 l 1,2,-1
 226 878 l 1,3,-1
 119 743 l 1,0,-1
151 0 m 1,4,-1
 41 0 l 1,5,-1
 41 700 l 1,6,-1
 151 700 l 1,7,-1
 151 0 l 1,4,-1
EndSplineSet
EndChar

StartChar: Icircumflex
Encoding: 206 206 145
Width: 192
GlyphClass: 2
Flags: W
AnchorPoint: "Anchor-11" 0 0 basechar 0
AnchorPoint: "Anchor-10" 0 0 basechar 0
AnchorPoint: "Anchor-9" 96 878 basechar 0
AnchorPoint: "Anchor-8" 173 0 basechar 0
AnchorPoint: "Anchor-7" 96 0 basechar 0
LayerCount: 2
Fore
SplineSet
45 743 m 1,0,-1
 -38 743 l 1,1,-1
 44 878 l 1,2,-1
 148 878 l 1,3,-1
 230 743 l 1,4,-1
 147 743 l 1,5,-1
 96 818 l 1,6,-1
 45 743 l 1,0,-1
151 0 m 1,7,-1
 41 0 l 1,8,-1
 41 700 l 1,9,-1
 151 700 l 1,10,-1
 151 0 l 1,7,-1
EndSplineSet
EndChar

StartChar: Idieresis
Encoding: 207 207 146
Width: 192
GlyphClass: 2
Flags: W
AnchorPoint: "Anchor-11" 0 0 basechar 0
AnchorPoint: "Anchor-10" 0 0 basechar 0
AnchorPoint: "Anchor-9" 96 869 basechar 0
AnchorPoint: "Anchor-8" 173 0 basechar 0
AnchorPoint: "Anchor-7" 96 0 basechar 0
LayerCount: 2
Fore
SplineSet
73 753 m 1,0,-1
 -22 753 l 1,1,-1
 -22 869 l 1,2,-1
 73 869 l 1,3,-1
 73 753 l 1,0,-1
214 753 m 1,4,-1
 119 753 l 1,5,-1
 119 869 l 1,6,-1
 214 869 l 1,7,-1
 214 753 l 1,4,-1
151 0 m 1,8,-1
 41 0 l 1,9,-1
 41 700 l 1,10,-1
 151 700 l 1,11,-1
 151 0 l 1,8,-1
EndSplineSet
EndChar

StartChar: Eth
Encoding: 208 208 147
Width: 424
GlyphClass: 2
Flags: W
AnchorPoint: "Anchor-11" 0 0 basechar 0
AnchorPoint: "Anchor-10" 119 365 basechar 0
AnchorPoint: "Anchor-9" 212 690 basechar 0
AnchorPoint: "Anchor-8" 0 0 basechar 0
AnchorPoint: "Anchor-7" 212 0 basechar 0
LayerCount: 2
Fore
SplineSet
59 700 m 1,0,-1
 227 700 l 2,1,2
 391 700 391 700 391 527 c 2,3,-1
 391 173 l 2,4,5
 391 0 391 0 227 0 c 2,6,-1
 59 0 l 1,7,-1
 59 318 l 1,8,-1
 12 318 l 1,9,-1
 12 412 l 1,10,-1
 59 412 l 1,11,-1
 59 700 l 1,0,-1
281 168 m 2,12,-1
 281 532 l 2,13,14
 281 600 281 600 225 600 c 2,15,-1
 169 600 l 1,16,-1
 169 412 l 1,17,-1
 226 412 l 1,18,-1
 226 318 l 1,19,-1
 169 318 l 1,20,-1
 169 100 l 1,21,-1
 225 100 l 2,22,23
 281 100 281 100 281 168 c 2,12,-1
EndSplineSet
EndChar

StartChar: Ntilde
Encoding: 209 209 148
Width: 427
GlyphClass: 2
Flags: W
AnchorPoint: "Anchor-11" 0 0 basechar 0
AnchorPoint: "Anchor-10" 0 0 basechar 0
AnchorPoint: "Anchor-9" 214 856 basechar 0
AnchorPoint: "Anchor-8" 0 0 basechar 0
AnchorPoint: "Anchor-7" 214 0 basechar 0
LayerCount: 2
Fore
SplineSet
134 752 m 1,0,-1
 80 784 l 1,1,2
 118 868 118 868 171 868 c 0,3,4
 196 868 196 868 225 846 c 0,5,6
 246 831 246 831 257 831 c 0,7,8
 276 831 276 831 294 870 c 1,9,-1
 348 838 l 1,10,11
 310 754 310 754 257 754 c 0,12,13
 232 754 232 754 203 776 c 0,14,15
 182 791 182 791 171 791 c 0,16,17
 150 791 150 791 134 752 c 1,0,-1
139 0 m 1,18,-1
 41 0 l 1,19,-1
 41 700 l 1,20,-1
 177 700 l 1,21,-1
 288 281 l 1,22,-1
 288 700 l 1,23,-1
 386 700 l 1,24,-1
 386 0 l 1,25,-1
 275 0 l 1,26,-1
 139 511 l 1,27,-1
 139 0 l 1,18,-1
EndSplineSet
EndChar

StartChar: Ograve
Encoding: 210 210 149
Width: 400
GlyphClass: 2
Flags: W
AnchorPoint: "Anchor-11" 0 0 basechar 0
AnchorPoint: "Anchor-10" 200 350 basechar 0
AnchorPoint: "Anchor-9" 200 878 basechar 0
AnchorPoint: "Anchor-8" 359 10 basechar 0
AnchorPoint: "Anchor-7" 200 0 basechar 0
LayerCount: 2
Fore
SplineSet
260 743 m 1,0,-1
 177 743 l 1,1,-1
 70 878 l 1,2,-1
 190 878 l 1,3,-1
 260 743 l 1,0,-1
33 166 m 2,4,-1
 33 534 l 2,5,6
 33 618 33 618 76 664 c 128,-1,7
 119 710 119 710 200 710 c 128,-1,8
 281 710 281 710 324 664 c 128,-1,9
 367 618 367 618 367 534 c 2,10,-1
 367 166 l 2,11,12
 367 82 367 82 324 36 c 128,-1,13
 281 -10 281 -10 200 -10 c 128,-1,14
 119 -10 119 -10 76 36 c 128,-1,15
 33 82 33 82 33 166 c 2,4,-1
257 159 m 2,16,-1
 257 541 l 2,17,18
 257 610 257 610 200 610 c 128,-1,19
 143 610 143 610 143 541 c 2,20,-1
 143 159 l 2,21,22
 143 90 143 90 200 90 c 128,-1,23
 257 90 257 90 257 159 c 2,16,-1
EndSplineSet
EndChar

StartChar: Oacute
Encoding: 211 211 150
Width: 400
GlyphClass: 2
Flags: W
AnchorPoint: "Anchor-11" 0 0 basechar 0
AnchorPoint: "Anchor-10" 200 350 basechar 0
AnchorPoint: "Anchor-9" 200 878 basechar 0
AnchorPoint: "Anchor-8" 359 10 basechar 0
AnchorPoint: "Anchor-7" 200 0 basechar 0
LayerCount: 2
Fore
SplineSet
223 743 m 1,0,-1
 140 743 l 1,1,-1
 210 878 l 1,2,-1
 330 878 l 1,3,-1
 223 743 l 1,0,-1
33 166 m 2,4,-1
 33 534 l 2,5,6
 33 618 33 618 76 664 c 128,-1,7
 119 710 119 710 200 710 c 128,-1,8
 281 710 281 710 324 664 c 128,-1,9
 367 618 367 618 367 534 c 2,10,-1
 367 166 l 2,11,12
 367 82 367 82 324 36 c 128,-1,13
 281 -10 281 -10 200 -10 c 128,-1,14
 119 -10 119 -10 76 36 c 128,-1,15
 33 82 33 82 33 166 c 2,4,-1
257 159 m 2,16,-1
 257 541 l 2,17,18
 257 610 257 610 200 610 c 128,-1,19
 143 610 143 610 143 541 c 2,20,-1
 143 159 l 2,21,22
 143 90 143 90 200 90 c 128,-1,23
 257 90 257 90 257 159 c 2,16,-1
EndSplineSet
EndChar

StartChar: Ocircumflex
Encoding: 212 212 151
Width: 400
GlyphClass: 2
Flags: W
AnchorPoint: "Anchor-11" 0 0 basechar 0
AnchorPoint: "Anchor-10" 200 350 basechar 0
AnchorPoint: "Anchor-9" 200 878 basechar 0
AnchorPoint: "Anchor-8" 359 10 basechar 0
AnchorPoint: "Anchor-7" 200 0 basechar 0
LayerCount: 2
Fore
SplineSet
149 743 m 1,0,-1
 66 743 l 1,1,-1
 148 878 l 1,2,-1
 252 878 l 1,3,-1
 334 743 l 1,4,-1
 251 743 l 1,5,-1
 200 818 l 1,6,-1
 149 743 l 1,0,-1
33 166 m 2,7,-1
 33 534 l 2,8,9
 33 618 33 618 76 664 c 128,-1,10
 119 710 119 710 200 710 c 128,-1,11
 281 710 281 710 324 664 c 128,-1,12
 367 618 367 618 367 534 c 2,13,-1
 367 166 l 2,14,15
 367 82 367 82 324 36 c 128,-1,16
 281 -10 281 -10 200 -10 c 128,-1,17
 119 -10 119 -10 76 36 c 128,-1,18
 33 82 33 82 33 166 c 2,7,-1
257 159 m 2,19,-1
 257 541 l 2,20,21
 257 610 257 610 200 610 c 128,-1,22
 143 610 143 610 143 541 c 2,23,-1
 143 159 l 2,24,25
 143 90 143 90 200 90 c 128,-1,26
 257 90 257 90 257 159 c 2,19,-1
EndSplineSet
EndChar

StartChar: Otilde
Encoding: 213 213 152
Width: 400
GlyphClass: 2
Flags: W
AnchorPoint: "Anchor-11" 0 0 basechar 0
AnchorPoint: "Anchor-10" 200 350 basechar 0
AnchorPoint: "Anchor-9" 200 856 basechar 0
AnchorPoint: "Anchor-8" 359 10 basechar 0
AnchorPoint: "Anchor-7" 200 0 basechar 0
LayerCount: 2
Fore
SplineSet
120 752 m 1,0,-1
 66 784 l 1,1,2
 104 868 104 868 157 868 c 0,3,4
 182 868 182 868 211 846 c 0,5,6
 232 831 232 831 243 831 c 0,7,8
 262 831 262 831 280 870 c 1,9,-1
 334 838 l 1,10,11
 296 754 296 754 243 754 c 0,12,13
 218 754 218 754 189 776 c 0,14,15
 168 791 168 791 157 791 c 0,16,17
 136 791 136 791 120 752 c 1,0,-1
33 166 m 2,18,-1
 33 534 l 2,19,20
 33 618 33 618 76 664 c 128,-1,21
 119 710 119 710 200 710 c 128,-1,22
 281 710 281 710 324 664 c 128,-1,23
 367 618 367 618 367 534 c 2,24,-1
 367 166 l 2,25,26
 367 82 367 82 324 36 c 128,-1,27
 281 -10 281 -10 200 -10 c 128,-1,28
 119 -10 119 -10 76 36 c 128,-1,29
 33 82 33 82 33 166 c 2,18,-1
257 159 m 2,30,-1
 257 541 l 2,31,32
 257 610 257 610 200 610 c 128,-1,33
 143 610 143 610 143 541 c 2,34,-1
 143 159 l 2,35,36
 143 90 143 90 200 90 c 128,-1,37
 257 90 257 90 257 159 c 2,30,-1
EndSplineSet
EndChar

StartChar: Odieresis
Encoding: 214 214 153
Width: 400
GlyphClass: 2
Flags: W
AnchorPoint: "Anchor-11" 0 0 basechar 0
AnchorPoint: "Anchor-10" 200 350 basechar 0
AnchorPoint: "Anchor-9" 200 869 basechar 0
AnchorPoint: "Anchor-8" 359 10 basechar 0
AnchorPoint: "Anchor-7" 200 0 basechar 0
LayerCount: 2
Fore
SplineSet
177 753 m 1,0,-1
 82 753 l 1,1,-1
 82 869 l 1,2,-1
 177 869 l 1,3,-1
 177 753 l 1,0,-1
318 753 m 1,4,-1
 223 753 l 1,5,-1
 223 869 l 1,6,-1
 318 869 l 1,7,-1
 318 753 l 1,4,-1
33 166 m 2,8,-1
 33 534 l 2,9,10
 33 618 33 618 76 664 c 128,-1,11
 119 710 119 710 200 710 c 128,-1,12
 281 710 281 710 324 664 c 128,-1,13
 367 618 367 618 367 534 c 2,14,-1
 367 166 l 2,15,16
 367 82 367 82 324 36 c 128,-1,17
 281 -10 281 -10 200 -10 c 128,-1,18
 119 -10 119 -10 76 36 c 128,-1,19
 33 82 33 82 33 166 c 2,8,-1
257 159 m 2,20,-1
 257 541 l 2,21,22
 257 610 257 610 200 610 c 128,-1,23
 143 610 143 610 143 541 c 2,24,-1
 143 159 l 2,25,26
 143 90 143 90 200 90 c 128,-1,27
 257 90 257 90 257 159 c 2,20,-1
EndSplineSet
EndChar

StartChar: multiply
Encoding: 215 215 154
Width: 400
GlyphClass: 2
Flags: W
LayerCount: 2
Fore
SplineSet
202 247 m 1,0,-1
 95 137 l 1,1,-1
 42 190 l 1,2,-1
 148 300 l 1,3,-1
 43 409 l 1,4,-1
 96 462 l 1,5,-1
 202 353 l 1,6,-1
 308 463 l 1,7,-1
 361 410 l 1,8,-1
 255 300 l 1,9,-1
 361 190 l 1,10,-1
 308 137 l 1,11,-1
 202 247 l 1,0,-1
EndSplineSet
EndChar

StartChar: Oslash
Encoding: 216 216 155
Width: 400
GlyphClass: 2
Flags: W
AnchorPoint: "Anchor-11" 0 0 basechar 0
AnchorPoint: "Anchor-10" 200 350 basechar 0
AnchorPoint: "Anchor-9" 200 690 basechar 0
AnchorPoint: "Anchor-8" 359 10 basechar 0
AnchorPoint: "Anchor-7" 200 0 basechar 0
LayerCount: 2
Fore
SplineSet
317 726 m 1,0,-1
 377 700 l 1,1,-1
 348 629 l 1,2,3
 367 592 367 592 367 534 c 2,4,-1
 367 166 l 2,5,6
 367 82 367 82 324 36 c 128,-1,7
 281 -10 281 -10 200 -10 c 0,8,9
 141 -10 141 -10 100 16 c 1,10,-1
 83 -26 l 1,11,-1
 23 0 l 1,12,-1
 52 71 l 1,13,14
 33 108 33 108 33 166 c 2,15,-1
 33 534 l 2,16,17
 33 618 33 618 76 664 c 128,-1,18
 119 710 119 710 200 710 c 0,19,20
 259 710 259 710 300 684 c 1,21,-1
 317 726 l 1,0,-1
143 541 m 2,22,-1
 143 296 l 1,23,-1
 254 570 l 1,24,25
 244 610 244 610 200 610 c 0,26,27
 143 610 143 610 143 541 c 2,22,-1
257 159 m 2,28,-1
 257 404 l 1,29,-1
 146 130 l 1,30,31
 156 90 156 90 200 90 c 0,32,33
 257 90 257 90 257 159 c 2,28,-1
EndSplineSet
EndChar

StartChar: Ugrave
Encoding: 217 217 156
Width: 402
GlyphClass: 2
Flags: W
AnchorPoint: "Anchor-11" 0 0 basechar 0
AnchorPoint: "Anchor-10" 0 0 basechar 0
AnchorPoint: "Anchor-9" 201 878 basechar 0
AnchorPoint: "Anchor-8" 302 0 basechar 0
AnchorPoint: "Anchor-7" 201 0 basechar 0
LayerCount: 2
Fore
SplineSet
261 743 m 1,0,-1
 178 743 l 1,1,-1
 71 878 l 1,2,-1
 191 878 l 1,3,-1
 261 743 l 1,0,-1
37 166 m 2,4,-1
 37 700 l 1,5,-1
 147 700 l 1,6,-1
 147 158 l 2,7,8
 147 90 147 90 203 90 c 128,-1,9
 259 90 259 90 259 158 c 2,10,-1
 259 700 l 1,11,-1
 365 700 l 1,12,-1
 365 166 l 2,13,14
 365 81 365 81 323 35.5 c 128,-1,15
 281 -10 281 -10 201 -10 c 128,-1,16
 121 -10 121 -10 79 35.5 c 128,-1,17
 37 81 37 81 37 166 c 2,4,-1
EndSplineSet
EndChar

StartChar: Uacute
Encoding: 218 218 157
Width: 402
GlyphClass: 2
Flags: W
AnchorPoint: "Anchor-11" 0 0 basechar 0
AnchorPoint: "Anchor-10" 0 0 basechar 0
AnchorPoint: "Anchor-9" 201 878 basechar 0
AnchorPoint: "Anchor-8" 302 0 basechar 0
AnchorPoint: "Anchor-7" 201 0 basechar 0
LayerCount: 2
Fore
SplineSet
224 743 m 1,0,-1
 141 743 l 1,1,-1
 211 878 l 1,2,-1
 331 878 l 1,3,-1
 224 743 l 1,0,-1
37 166 m 2,4,-1
 37 700 l 1,5,-1
 147 700 l 1,6,-1
 147 158 l 2,7,8
 147 90 147 90 203 90 c 128,-1,9
 259 90 259 90 259 158 c 2,10,-1
 259 700 l 1,11,-1
 365 700 l 1,12,-1
 365 166 l 2,13,14
 365 81 365 81 323 35.5 c 128,-1,15
 281 -10 281 -10 201 -10 c 128,-1,16
 121 -10 121 -10 79 35.5 c 128,-1,17
 37 81 37 81 37 166 c 2,4,-1
EndSplineSet
EndChar

StartChar: Ucircumflex
Encoding: 219 219 158
Width: 402
GlyphClass: 2
Flags: W
AnchorPoint: "Anchor-11" 0 0 basechar 0
AnchorPoint: "Anchor-10" 0 0 basechar 0
AnchorPoint: "Anchor-9" 201 878 basechar 0
AnchorPoint: "Anchor-8" 302 0 basechar 0
AnchorPoint: "Anchor-7" 201 0 basechar 0
LayerCount: 2
Fore
SplineSet
150 743 m 1,0,-1
 67 743 l 1,1,-1
 149 878 l 1,2,-1
 253 878 l 1,3,-1
 335 743 l 1,4,-1
 252 743 l 1,5,-1
 201 818 l 1,6,-1
 150 743 l 1,0,-1
37 166 m 2,7,-1
 37 700 l 1,8,-1
 147 700 l 1,9,-1
 147 158 l 2,10,11
 147 90 147 90 203 90 c 128,-1,12
 259 90 259 90 259 158 c 2,13,-1
 259 700 l 1,14,-1
 365 700 l 1,15,-1
 365 166 l 2,16,17
 365 81 365 81 323 35.5 c 128,-1,18
 281 -10 281 -10 201 -10 c 128,-1,19
 121 -10 121 -10 79 35.5 c 128,-1,20
 37 81 37 81 37 166 c 2,7,-1
EndSplineSet
EndChar

StartChar: Udieresis
Encoding: 220 220 159
Width: 402
GlyphClass: 2
Flags: W
AnchorPoint: "Anchor-11" 0 0 basechar 0
AnchorPoint: "Anchor-10" 0 0 basechar 0
AnchorPoint: "Anchor-9" 201 869 basechar 0
AnchorPoint: "Anchor-8" 302 0 basechar 0
AnchorPoint: "Anchor-7" 201 0 basechar 0
LayerCount: 2
Fore
SplineSet
178 753 m 1,0,-1
 83 753 l 1,1,-1
 83 869 l 1,2,-1
 178 869 l 1,3,-1
 178 753 l 1,0,-1
319 753 m 1,4,-1
 224 753 l 1,5,-1
 224 869 l 1,6,-1
 319 869 l 1,7,-1
 319 753 l 1,4,-1
37 166 m 2,8,-1
 37 700 l 1,9,-1
 147 700 l 1,10,-1
 147 158 l 2,11,12
 147 90 147 90 203 90 c 128,-1,13
 259 90 259 90 259 158 c 2,14,-1
 259 700 l 1,15,-1
 365 700 l 1,16,-1
 365 166 l 2,17,18
 365 81 365 81 323 35.5 c 128,-1,19
 281 -10 281 -10 201 -10 c 128,-1,20
 121 -10 121 -10 79 35.5 c 128,-1,21
 37 81 37 81 37 166 c 2,8,-1
EndSplineSet
EndChar

StartChar: Yacute
Encoding: 221 221 160
Width: 392
GlyphClass: 2
Flags: W
AnchorPoint: "Anchor-11" 0 0 basechar 0
AnchorPoint: "Anchor-10" 0 0 basechar 0
AnchorPoint: "Anchor-9" 196 878 basechar 0
AnchorPoint: "Anchor-8" 0 0 basechar 0
AnchorPoint: "Anchor-7" 196 0 basechar 0
LayerCount: 2
Fore
SplineSet
219 743 m 1,0,-1
 136 743 l 1,1,-1
 206 878 l 1,2,-1
 326 878 l 1,3,-1
 219 743 l 1,0,-1
251 0 m 1,4,-1
 141 0 l 1,5,-1
 141 298 l 1,6,-1
 8 700 l 1,7,-1
 125 700 l 1,8,-1
 201 439 l 1,9,-1
 277 700 l 1,10,-1
 384 700 l 1,11,-1
 251 298 l 1,12,-1
 251 0 l 1,4,-1
EndSplineSet
EndChar

StartChar: Thorn
Encoding: 222 222 161
Width: 385
GlyphClass: 2
Flags: W
LayerCount: 2
Fore
SplineSet
151 0 m 1,0,-1
 41 0 l 1,1,-1
 41 700 l 1,2,-1
 151 700 l 1,3,-1
 151 601 l 1,4,-1
 203 601 l 2,5,6
 367 601 367 601 367 428 c 2,7,-1
 367 359 l 2,8,9
 367 186 367 186 203 186 c 2,10,-1
 151 186 l 1,11,-1
 151 0 l 1,0,-1
151 501 m 1,12,-1
 151 286 l 1,13,-1
 203 286 l 2,14,15
 231 286 231 286 244 301.5 c 128,-1,16
 257 317 257 317 257 352 c 2,17,-1
 257 435 l 2,18,19
 257 470 257 470 244 485.5 c 128,-1,20
 231 501 231 501 203 501 c 2,21,-1
 151 501 l 1,12,-1
EndSplineSet
EndChar

StartChar: germandbls
Encoding: 223 223 162
Width: 396
GlyphClass: 2
Flags: W
LayerCount: 2
Fore
SplineSet
243 -10 m 0,0,1
 211 -10 211 -10 187 0 c 1,2,-1
 187 90 l 1,3,4
 204 84 204 84 223 84 c 0,5,6
 276 84 276 84 276 142 c 0,7,8
 276 174 276 174 240 208 c 0,9,10
 219 227 219 227 210 239 c 0,11,12
 179 280 179 280 179 350 c 0,13,14
 179 394 179 394 206 444 c 0,15,16
 237 502 237 502 237 557 c 0,17,18
 237 617 237 617 192 617 c 128,-1,19
 147 617 147 617 147 558 c 2,20,-1
 147 0 l 1,21,-1
 41 0 l 1,22,-1
 41 551 l 2,23,24
 41 710 41 710 196 710 c 0,25,26
 263 710 263 710 303 671 c 128,-1,27
 343 632 343 632 343 557 c 0,28,29
 343 493 343 493 310 433 c 0,30,31
 285 389 285 389 285 350 c 0,32,33
 287 320 287 320 296.5 303.5 c 128,-1,34
 306 287 306 287 328 265 c 0,35,36
 346 247 346 247 354 235 c 0,37,38
 382 201 382 201 382 142 c 0,39,40
 382 73 382 73 344.5 31.5 c 128,-1,41
 307 -10 307 -10 243 -10 c 0,0,1
EndSplineSet
EndChar

StartChar: agrave
Encoding: 224 224 163
Width: 372
GlyphClass: 2
Flags: W
AnchorPoint: "Anchor-11" 0 0 basechar 0
AnchorPoint: "Anchor-10" 0 0 basechar 0
AnchorPoint: "Anchor-9" 181 698 basechar 0
AnchorPoint: "Anchor-8" 343 0 basechar 0
AnchorPoint: "Anchor-7" 0 0 basechar 0
LayerCount: 2
Fore
SplineSet
171 698 m 1,0,-1
 241 563 l 1,1,-1
 158 563 l 1,2,-1
 51 698 l 1,3,-1
 171 698 l 1,0,-1
344 0 m 1,4,-1
 247 0 l 1,5,6
 241 12 241 12 239 60 c 1,7,8
 209 -10 209 -10 131 -10 c 0,9,10
 80 -10 80 -10 50 24.5 c 128,-1,11
 20 59 20 59 20 118 c 0,12,13
 20 178 20 178 48 216.5 c 128,-1,14
 76 255 76 255 143 288 c 0,15,16
 198 315 198 315 212 327 c 0,17,18
 226 341 226 341 226 361 c 2,19,-1
 226 371 l 2,20,21
 226 429 226 429 183 429 c 0,22,23
 135 429 135 429 135 370 c 2,24,-1
 135 351 l 1,25,-1
 35 351 l 1,26,-1
 35 364 l 2,27,28
 35 439 35 439 73.5 479.5 c 128,-1,29
 112 520 112 520 184 520 c 0,30,31
 261 520 261 520 296.5 479.5 c 128,-1,32
 332 439 332 439 332 352 c 2,33,-1
 332 147 l 2,34,35
 332 50 332 50 344 0 c 1,4,-1
171 81 m 0,36,37
 226 81 226 81 226 166 c 2,38,-1
 226 253 l 1,39,40
 219 244 219 244 174 215 c 0,41,42
 126 185 126 185 126 136 c 0,43,44
 126 81 126 81 171 81 c 0,36,37
EndSplineSet
EndChar

StartChar: aacute
Encoding: 225 225 164
Width: 372
GlyphClass: 2
Flags: W
AnchorPoint: "Anchor-11" 0 0 basechar 0
AnchorPoint: "Anchor-10" 0 0 basechar 0
AnchorPoint: "Anchor-9" 181 698 basechar 0
AnchorPoint: "Anchor-8" 343 0 basechar 0
AnchorPoint: "Anchor-7" 0 0 basechar 0
LayerCount: 2
Fore
SplineSet
191 698 m 1,0,-1
 311 698 l 1,1,-1
 204 563 l 1,2,-1
 121 563 l 1,3,-1
 191 698 l 1,0,-1
344 0 m 1,4,-1
 247 0 l 1,5,6
 241 12 241 12 239 60 c 1,7,8
 209 -10 209 -10 131 -10 c 0,9,10
 80 -10 80 -10 50 24.5 c 128,-1,11
 20 59 20 59 20 118 c 0,12,13
 20 178 20 178 48 216.5 c 128,-1,14
 76 255 76 255 143 288 c 0,15,16
 198 315 198 315 212 327 c 0,17,18
 226 341 226 341 226 361 c 2,19,-1
 226 371 l 2,20,21
 226 429 226 429 183 429 c 0,22,23
 135 429 135 429 135 370 c 2,24,-1
 135 351 l 1,25,-1
 35 351 l 1,26,-1
 35 364 l 2,27,28
 35 439 35 439 73.5 479.5 c 128,-1,29
 112 520 112 520 184 520 c 0,30,31
 261 520 261 520 296.5 479.5 c 128,-1,32
 332 439 332 439 332 352 c 2,33,-1
 332 147 l 2,34,35
 332 50 332 50 344 0 c 1,4,-1
171 81 m 0,36,37
 226 81 226 81 226 166 c 2,38,-1
 226 253 l 1,39,40
 219 244 219 244 174 215 c 0,41,42
 126 185 126 185 126 136 c 0,43,44
 126 81 126 81 171 81 c 0,36,37
EndSplineSet
EndChar

StartChar: acircumflex
Encoding: 226 226 165
Width: 372
GlyphClass: 2
Flags: W
AnchorPoint: "Anchor-11" 0 0 basechar 0
AnchorPoint: "Anchor-10" 0 0 basechar 0
AnchorPoint: "Anchor-9" 181 698 basechar 0
AnchorPoint: "Anchor-8" 343 0 basechar 0
AnchorPoint: "Anchor-7" 0 0 basechar 0
LayerCount: 2
Fore
SplineSet
232 563 m 1,0,-1
 181 638 l 1,1,-1
 130 563 l 1,2,-1
 47 563 l 1,3,-1
 129 698 l 1,4,-1
 233 698 l 1,5,-1
 315 563 l 1,6,-1
 232 563 l 1,0,-1
344 0 m 1,7,-1
 247 0 l 1,8,9
 241 12 241 12 239 60 c 1,10,11
 209 -10 209 -10 131 -10 c 0,12,13
 80 -10 80 -10 50 24.5 c 128,-1,14
 20 59 20 59 20 118 c 0,15,16
 20 178 20 178 48 216.5 c 128,-1,17
 76 255 76 255 143 288 c 0,18,19
 198 315 198 315 212 327 c 0,20,21
 226 341 226 341 226 361 c 2,22,-1
 226 371 l 2,23,24
 226 429 226 429 183 429 c 0,25,26
 135 429 135 429 135 370 c 2,27,-1
 135 351 l 1,28,-1
 35 351 l 1,29,-1
 35 364 l 2,30,31
 35 439 35 439 73.5 479.5 c 128,-1,32
 112 520 112 520 184 520 c 0,33,34
 261 520 261 520 296.5 479.5 c 128,-1,35
 332 439 332 439 332 352 c 2,36,-1
 332 147 l 2,37,38
 332 50 332 50 344 0 c 1,7,-1
171 81 m 0,39,40
 226 81 226 81 226 166 c 2,41,-1
 226 253 l 1,42,43
 219 244 219 244 174 215 c 0,44,45
 126 185 126 185 126 136 c 0,46,47
 126 81 126 81 171 81 c 0,39,40
EndSplineSet
EndChar

StartChar: atilde
Encoding: 227 227 166
Width: 372
GlyphClass: 2
Flags: W
AnchorPoint: "Anchor-11" 0 0 basechar 0
AnchorPoint: "Anchor-10" 0 0 basechar 0
AnchorPoint: "Anchor-9" 181 676 basechar 0
AnchorPoint: "Anchor-8" 343 0 basechar 0
AnchorPoint: "Anchor-7" 0 0 basechar 0
LayerCount: 2
Fore
SplineSet
138 611 m 0,0,1
 118 611 118 611 101 572 c 1,2,-1
 47 604 l 1,3,4
 84 688 84 688 138 688 c 0,5,6
 163 688 163 688 192 666 c 0,7,8
 213 651 213 651 224 651 c 0,9,10
 243 651 243 651 261 690 c 1,11,-1
 315 658 l 1,12,13
 278 574 278 574 224 574 c 0,14,15
 199 574 199 574 170 596 c 0,16,17
 149 611 149 611 138 611 c 0,0,1
344 0 m 1,18,-1
 247 0 l 1,19,20
 241 12 241 12 239 60 c 1,21,22
 209 -10 209 -10 131 -10 c 0,23,24
 80 -10 80 -10 50 24.5 c 128,-1,25
 20 59 20 59 20 118 c 0,26,27
 20 178 20 178 48 216.5 c 128,-1,28
 76 255 76 255 143 288 c 0,29,30
 198 315 198 315 212 327 c 0,31,32
 226 341 226 341 226 361 c 2,33,-1
 226 371 l 2,34,35
 226 429 226 429 183 429 c 0,36,37
 135 429 135 429 135 370 c 2,38,-1
 135 351 l 1,39,-1
 35 351 l 1,40,-1
 35 364 l 2,41,42
 35 439 35 439 73.5 479.5 c 128,-1,43
 112 520 112 520 184 520 c 0,44,45
 261 520 261 520 296.5 479.5 c 128,-1,46
 332 439 332 439 332 352 c 2,47,-1
 332 147 l 2,48,49
 332 50 332 50 344 0 c 1,18,-1
171 81 m 0,50,51
 226 81 226 81 226 166 c 2,52,-1
 226 253 l 1,53,54
 219 244 219 244 174 215 c 0,55,56
 126 185 126 185 126 136 c 0,57,58
 126 81 126 81 171 81 c 0,50,51
EndSplineSet
EndChar

StartChar: adieresis
Encoding: 228 228 167
Width: 372
GlyphClass: 2
Flags: W
AnchorPoint: "Anchor-11" 0 0 basechar 0
AnchorPoint: "Anchor-10" 0 0 basechar 0
AnchorPoint: "Anchor-9" 181 689 basechar 0
AnchorPoint: "Anchor-8" 343 0 basechar 0
AnchorPoint: "Anchor-7" 0 0 basechar 0
LayerCount: 2
Fore
SplineSet
63 689 m 1,0,-1
 158 689 l 1,1,-1
 158 573 l 1,2,-1
 63 573 l 1,3,-1
 63 689 l 1,0,-1
204 689 m 1,4,-1
 299 689 l 1,5,-1
 299 573 l 1,6,-1
 204 573 l 1,7,-1
 204 689 l 1,4,-1
344 0 m 1,8,-1
 247 0 l 1,9,10
 241 12 241 12 239 60 c 1,11,12
 209 -10 209 -10 131 -10 c 0,13,14
 80 -10 80 -10 50 24.5 c 128,-1,15
 20 59 20 59 20 118 c 0,16,17
 20 178 20 178 48 216.5 c 128,-1,18
 76 255 76 255 143 288 c 0,19,20
 198 315 198 315 212 327 c 0,21,22
 226 341 226 341 226 361 c 2,23,-1
 226 371 l 2,24,25
 226 429 226 429 183 429 c 0,26,27
 135 429 135 429 135 370 c 2,28,-1
 135 351 l 1,29,-1
 35 351 l 1,30,-1
 35 364 l 2,31,32
 35 439 35 439 73.5 479.5 c 128,-1,33
 112 520 112 520 184 520 c 0,34,35
 261 520 261 520 296.5 479.5 c 128,-1,36
 332 439 332 439 332 352 c 2,37,-1
 332 147 l 2,38,39
 332 50 332 50 344 0 c 1,8,-1
171 81 m 0,40,41
 226 81 226 81 226 166 c 2,42,-1
 226 253 l 1,43,44
 219 244 219 244 174 215 c 0,45,46
 126 185 126 185 126 136 c 0,47,48
 126 81 126 81 171 81 c 0,40,41
EndSplineSet
EndChar

StartChar: aring
Encoding: 229 229 168
Width: 372
GlyphClass: 2
Flags: W
AnchorPoint: "Anchor-11" 0 0 basechar 0
AnchorPoint: "Anchor-10" 0 0 basechar 0
AnchorPoint: "Anchor-9" 181 739 basechar 0
AnchorPoint: "Anchor-8" 343 0 basechar 0
AnchorPoint: "Anchor-7" 0 0 basechar 0
LayerCount: 2
Fore
SplineSet
244 588 m 0,0,1
 219 563 219 563 181 563 c 0,2,3
 142 563 142 563 117 588 c 0,4,5
 92 614 92 614 92 651 c 128,-1,6
 92 688 92 688 117 713 c 0,7,8
 143 739 143 739 181 739 c 0,9,10
 218 739 218 739 244 713 c 0,11,12
 270 688 270 688 270 651 c 128,-1,13
 270 614 270 614 244 588 c 0,0,1
204 676 m 0,14,15
 195 686 195 686 181 686 c 128,-1,16
 167 686 167 686 158 676 c 0,17,18
 149 667 149 667 149 651 c 128,-1,19
 149 635 149 635 158 625 c 0,20,21
 167 616 167 616 181 616 c 128,-1,22
 195 616 195 616 204 625 c 0,23,24
 213 635 213 635 213 651 c 128,-1,25
 213 667 213 667 204 676 c 0,14,15
344 0 m 1,26,-1
 247 0 l 1,27,28
 241 12 241 12 239 60 c 1,29,30
 209 -10 209 -10 131 -10 c 0,31,32
 80 -10 80 -10 50 24.5 c 128,-1,33
 20 59 20 59 20 118 c 0,34,35
 20 178 20 178 48 216.5 c 128,-1,36
 76 255 76 255 143 288 c 0,37,38
 198 315 198 315 212 327 c 0,39,40
 226 341 226 341 226 361 c 2,41,-1
 226 371 l 2,42,43
 226 429 226 429 183 429 c 0,44,45
 135 429 135 429 135 370 c 2,46,-1
 135 351 l 1,47,-1
 35 351 l 1,48,-1
 35 364 l 2,49,50
 35 439 35 439 73.5 479.5 c 128,-1,51
 112 520 112 520 184 520 c 0,52,53
 261 520 261 520 296.5 479.5 c 128,-1,54
 332 439 332 439 332 352 c 2,55,-1
 332 147 l 2,56,57
 332 50 332 50 344 0 c 1,26,-1
171 81 m 0,58,59
 226 81 226 81 226 166 c 2,60,-1
 226 253 l 1,61,62
 219 244 219 244 174 215 c 0,63,64
 126 185 126 185 126 136 c 0,65,66
 126 81 126 81 171 81 c 0,58,59
EndSplineSet
EndChar

StartChar: ae
Encoding: 230 230 169
Width: 569
GlyphClass: 2
Flags: W
AnchorPoint: "Anchor-11" 0 0 basechar 0
AnchorPoint: "Anchor-10" 0 0 basechar 0
AnchorPoint: "Anchor-9" 285 510 basechar 0
AnchorPoint: "Anchor-8" 0 0 basechar 0
AnchorPoint: "Anchor-7" 285 0 basechar 0
LayerCount: 2
Fore
SplineSet
540 354 m 2,0,-1
 540 232 l 1,1,-1
 332 232 l 1,2,-1
 332 146 l 2,3,4
 332 84 332 84 385 84 c 128,-1,5
 438 84 438 84 438 146 c 2,6,-1
 438 165 l 1,7,-1
 540 165 l 1,8,-1
 540 156 l 2,9,10
 540 76 540 76 499.5 33 c 128,-1,11
 459 -10 459 -10 383 -10 c 0,12,13
 299 -10 299 -10 259 42 c 1,14,15
 225 -10 225 -10 146 -10 c 0,16,17
 87 -10 87 -10 53.5 24 c 128,-1,18
 20 58 20 58 20 118 c 128,-1,19
 20 178 20 178 47.5 216 c 128,-1,20
 75 254 75 254 143 288 c 0,21,22
 198 316 198 316 211 327 c 0,23,24
 226 340 226 340 226 361 c 2,25,-1
 226 371 l 2,26,27
 226 429 226 429 183 429 c 0,28,29
 135 429 135 429 135 370 c 2,30,-1
 135 351 l 1,31,-1
 35 351 l 1,32,-1
 35 364 l 2,33,34
 35 438 35 438 72 479 c 128,-1,35
 109 520 109 520 175 520 c 0,36,37
 255 520 255 520 282 468 c 1,38,39
 316 520 316 520 393 520 c 0,40,41
 462 520 462 520 501 476.5 c 128,-1,42
 540 433 540 433 540 354 c 2,0,-1
332 364 m 2,43,-1
 332 316 l 1,44,-1
 436 316 l 1,45,-1
 436 364 l 2,46,47
 436 426 436 426 384 426 c 128,-1,48
 332 426 332 426 332 364 c 2,43,-1
171 81 m 0,49,50
 226 81 226 81 226 166 c 2,51,-1
 226 253 l 1,52,53
 219 244 219 244 174 215 c 0,54,55
 126 185 126 185 126 136 c 0,56,57
 126 81 126 81 171 81 c 0,49,50
EndSplineSet
EndChar

StartChar: ccedilla
Encoding: 231 231 170
Width: 362
GlyphClass: 2
Flags: W
AnchorPoint: "Anchor-11" 0 0 basechar 0
AnchorPoint: "Anchor-10" 0 0 basechar 0
AnchorPoint: "Anchor-9" 184 510 basechar 0
AnchorPoint: "Anchor-8" 0 0 basechar 0
AnchorPoint: "Anchor-7" 186 -155 basechar 0
LayerCount: 2
Fore
SplineSet
337 356 m 2,0,-1
 337 325 l 1,1,-1
 235 325 l 1,2,-1
 235 366 l 2,3,4
 235 426 235 426 186 426 c 128,-1,5
 137 426 137 426 137 366 c 2,6,-1
 137 144 l 2,7,8
 137 84 137 84 186 84 c 128,-1,9
 235 84 235 84 235 144 c 2,10,-1
 235 195 l 1,11,-1
 337 195 l 1,12,-1
 337 154 l 2,13,14
 337 83 337 83 304.5 40.5 c 128,-1,15
 272 -2 272 -2 211 -9 c 1,16,-1
 211 -39 l 1,17,18
 247 -39 247 -39 263.5 -51 c 128,-1,19
 280 -63 280 -63 280 -90 c 0,20,21
 280 -128 280 -128 256.5 -141.5 c 128,-1,22
 233 -155 233 -155 178 -155 c 0,23,24
 82 -155 82 -155 82 -93 c 2,25,-1
 82 -83 l 1,26,-1
 156 -83 l 1,27,-1
 156 -91 l 2,28,29
 156 -115 156 -115 178 -115 c 0,30,31
 204 -115 204 -115 204 -87 c 0,32,33
 204 -57 204 -57 167 -57 c 2,34,-1
 162 -57 l 1,35,-1
 162 -9 l 1,36,37
 98 -2 98 -2 64.5 40 c 128,-1,38
 31 82 31 82 31 154 c 2,39,-1
 31 356 l 2,40,41
 31 435 31 435 71 477.5 c 128,-1,42
 111 520 111 520 186 520 c 0,43,44
 260 520 260 520 298.5 477 c 128,-1,45
 337 434 337 434 337 356 c 2,0,-1
EndSplineSet
EndChar

StartChar: egrave
Encoding: 232 232 171
Width: 374
GlyphClass: 2
Flags: W
AnchorPoint: "Anchor-11" 0 0 basechar 0
AnchorPoint: "Anchor-10" 0 0 basechar 0
AnchorPoint: "Anchor-9" 187 698 basechar 0
AnchorPoint: "Anchor-8" 329 0 basechar 0
AnchorPoint: "Anchor-7" 187 0 basechar 0
LayerCount: 2
Fore
SplineSet
177 698 m 1,0,-1
 247 563 l 1,1,-1
 164 563 l 1,2,-1
 57 698 l 1,3,-1
 177 698 l 1,0,-1
345 354 m 2,4,-1
 345 232 l 1,5,-1
 137 232 l 1,6,-1
 137 146 l 2,7,8
 137 84 137 84 190 84 c 128,-1,9
 243 84 243 84 243 146 c 2,10,-1
 243 165 l 1,11,-1
 345 165 l 1,12,-1
 345 156 l 2,13,14
 345 76 345 76 304.5 33 c 128,-1,15
 264 -10 264 -10 188 -10 c 128,-1,16
 112 -10 112 -10 71.5 33 c 128,-1,17
 31 76 31 76 31 156 c 2,18,-1
 31 354 l 2,19,20
 31 434 31 434 71.5 477 c 128,-1,21
 112 520 112 520 188 520 c 128,-1,22
 264 520 264 520 304.5 477 c 128,-1,23
 345 434 345 434 345 354 c 2,4,-1
137 364 m 2,24,-1
 137 316 l 1,25,-1
 241 316 l 1,26,-1
 241 364 l 2,27,28
 241 426 241 426 189 426 c 128,-1,29
 137 426 137 426 137 364 c 2,24,-1
EndSplineSet
EndChar

StartChar: eacute
Encoding: 233 233 172
Width: 374
GlyphClass: 2
Flags: W
AnchorPoint: "Anchor-11" 0 0 basechar 0
AnchorPoint: "Anchor-10" 0 0 basechar 0
AnchorPoint: "Anchor-9" 187 698 basechar 0
AnchorPoint: "Anchor-8" 329 0 basechar 0
AnchorPoint: "Anchor-7" 187 0 basechar 0
LayerCount: 2
Fore
SplineSet
197 698 m 1,0,-1
 317 698 l 1,1,-1
 210 563 l 1,2,-1
 127 563 l 1,3,-1
 197 698 l 1,0,-1
345 354 m 2,4,-1
 345 232 l 1,5,-1
 137 232 l 1,6,-1
 137 146 l 2,7,8
 137 84 137 84 190 84 c 128,-1,9
 243 84 243 84 243 146 c 2,10,-1
 243 165 l 1,11,-1
 345 165 l 1,12,-1
 345 156 l 2,13,14
 345 76 345 76 304.5 33 c 128,-1,15
 264 -10 264 -10 188 -10 c 128,-1,16
 112 -10 112 -10 71.5 33 c 128,-1,17
 31 76 31 76 31 156 c 2,18,-1
 31 354 l 2,19,20
 31 434 31 434 71.5 477 c 128,-1,21
 112 520 112 520 188 520 c 128,-1,22
 264 520 264 520 304.5 477 c 128,-1,23
 345 434 345 434 345 354 c 2,4,-1
137 364 m 2,24,-1
 137 316 l 1,25,-1
 241 316 l 1,26,-1
 241 364 l 2,27,28
 241 426 241 426 189 426 c 128,-1,29
 137 426 137 426 137 364 c 2,24,-1
EndSplineSet
EndChar

StartChar: ecircumflex
Encoding: 234 234 173
Width: 374
GlyphClass: 2
Flags: W
AnchorPoint: "Anchor-11" 0 0 basechar 0
AnchorPoint: "Anchor-10" 0 0 basechar 0
AnchorPoint: "Anchor-9" 187 698 basechar 0
AnchorPoint: "Anchor-8" 329 0 basechar 0
AnchorPoint: "Anchor-7" 187 0 basechar 0
LayerCount: 2
Fore
SplineSet
238 563 m 1,0,-1
 187 638 l 1,1,-1
 136 563 l 1,2,-1
 53 563 l 1,3,-1
 135 698 l 1,4,-1
 239 698 l 1,5,-1
 321 563 l 1,6,-1
 238 563 l 1,0,-1
345 354 m 2,7,-1
 345 232 l 1,8,-1
 137 232 l 1,9,-1
 137 146 l 2,10,11
 137 84 137 84 190 84 c 128,-1,12
 243 84 243 84 243 146 c 2,13,-1
 243 165 l 1,14,-1
 345 165 l 1,15,-1
 345 156 l 2,16,17
 345 76 345 76 304.5 33 c 128,-1,18
 264 -10 264 -10 188 -10 c 128,-1,19
 112 -10 112 -10 71.5 33 c 128,-1,20
 31 76 31 76 31 156 c 2,21,-1
 31 354 l 2,22,23
 31 434 31 434 71.5 477 c 128,-1,24
 112 520 112 520 188 520 c 128,-1,25
 264 520 264 520 304.5 477 c 128,-1,26
 345 434 345 434 345 354 c 2,7,-1
137 364 m 2,27,-1
 137 316 l 1,28,-1
 241 316 l 1,29,-1
 241 364 l 2,30,31
 241 426 241 426 189 426 c 128,-1,32
 137 426 137 426 137 364 c 2,27,-1
EndSplineSet
EndChar

StartChar: edieresis
Encoding: 235 235 174
Width: 374
GlyphClass: 2
Flags: W
AnchorPoint: "Anchor-11" 0 0 basechar 0
AnchorPoint: "Anchor-10" 0 0 basechar 0
AnchorPoint: "Anchor-9" 187 689 basechar 0
AnchorPoint: "Anchor-8" 329 0 basechar 0
AnchorPoint: "Anchor-7" 187 0 basechar 0
LayerCount: 2
Fore
SplineSet
69 689 m 1,0,-1
 164 689 l 1,1,-1
 164 573 l 1,2,-1
 69 573 l 1,3,-1
 69 689 l 1,0,-1
210 689 m 1,4,-1
 305 689 l 1,5,-1
 305 573 l 1,6,-1
 210 573 l 1,7,-1
 210 689 l 1,4,-1
345 354 m 2,8,-1
 345 232 l 1,9,-1
 137 232 l 1,10,-1
 137 146 l 2,11,12
 137 84 137 84 190 84 c 128,-1,13
 243 84 243 84 243 146 c 2,14,-1
 243 165 l 1,15,-1
 345 165 l 1,16,-1
 345 156 l 2,17,18
 345 76 345 76 304.5 33 c 128,-1,19
 264 -10 264 -10 188 -10 c 128,-1,20
 112 -10 112 -10 71.5 33 c 128,-1,21
 31 76 31 76 31 156 c 2,22,-1
 31 354 l 2,23,24
 31 434 31 434 71.5 477 c 128,-1,25
 112 520 112 520 188 520 c 128,-1,26
 264 520 264 520 304.5 477 c 128,-1,27
 345 434 345 434 345 354 c 2,8,-1
137 364 m 2,28,-1
 137 316 l 1,29,-1
 241 316 l 1,30,-1
 241 364 l 2,31,32
 241 426 241 426 189 426 c 128,-1,33
 137 426 137 426 137 364 c 2,28,-1
EndSplineSet
EndChar

StartChar: igrave
Encoding: 236 236 175
Width: 188
GlyphClass: 2
Flags: W
AnchorPoint: "Anchor-11" 0 0 basechar 0
AnchorPoint: "Anchor-10" 0 0 basechar 0
AnchorPoint: "Anchor-9" 94 698 basechar 0
AnchorPoint: "Anchor-8" 171 0 basechar 0
AnchorPoint: "Anchor-7" 94 0 basechar 0
LayerCount: 2
Fore
SplineSet
154 563 m 1,0,-1
 71 563 l 1,1,-1
 -36 698 l 1,2,-1
 84 698 l 1,3,-1
 154 563 l 1,0,-1
147 0 m 1,4,-1
 41 0 l 1,5,-1
 41 510 l 1,6,-1
 147 510 l 1,7,-1
 147 0 l 1,4,-1
EndSplineSet
EndChar

StartChar: iacute
Encoding: 237 237 176
Width: 188
GlyphClass: 2
Flags: W
AnchorPoint: "Anchor-11" 0 0 basechar 0
AnchorPoint: "Anchor-10" 0 0 basechar 0
AnchorPoint: "Anchor-9" 94 698 basechar 0
AnchorPoint: "Anchor-8" 171 0 basechar 0
AnchorPoint: "Anchor-7" 94 0 basechar 0
LayerCount: 2
Fore
SplineSet
117 563 m 1,0,-1
 34 563 l 1,1,-1
 104 698 l 1,2,-1
 224 698 l 1,3,-1
 117 563 l 1,0,-1
147 0 m 1,4,-1
 41 0 l 1,5,-1
 41 510 l 1,6,-1
 147 510 l 1,7,-1
 147 0 l 1,4,-1
EndSplineSet
EndChar

StartChar: icircumflex
Encoding: 238 238 177
Width: 188
GlyphClass: 2
Flags: W
AnchorPoint: "Anchor-11" 0 0 basechar 0
AnchorPoint: "Anchor-10" 0 0 basechar 0
AnchorPoint: "Anchor-9" 94 698 basechar 0
AnchorPoint: "Anchor-8" 171 0 basechar 0
AnchorPoint: "Anchor-7" 94 0 basechar 0
LayerCount: 2
Fore
SplineSet
43 563 m 1,0,-1
 -40 563 l 1,1,-1
 42 698 l 1,2,-1
 146 698 l 1,3,-1
 228 563 l 1,4,-1
 145 563 l 1,5,-1
 94 638 l 1,6,-1
 43 563 l 1,0,-1
147 0 m 1,7,-1
 41 0 l 1,8,-1
 41 510 l 1,9,-1
 147 510 l 1,10,-1
 147 0 l 1,7,-1
EndSplineSet
EndChar

StartChar: idieresis
Encoding: 239 239 178
Width: 188
GlyphClass: 2
Flags: W
AnchorPoint: "Anchor-11" 0 0 basechar 0
AnchorPoint: "Anchor-10" 0 0 basechar 0
AnchorPoint: "Anchor-9" 94 689 basechar 0
AnchorPoint: "Anchor-8" 171 0 basechar 0
AnchorPoint: "Anchor-7" 94 0 basechar 0
LayerCount: 2
Fore
SplineSet
71 573 m 1,0,-1
 -24 573 l 1,1,-1
 -24 689 l 1,2,-1
 71 689 l 1,3,-1
 71 573 l 1,0,-1
212 573 m 1,4,-1
 117 573 l 1,5,-1
 117 689 l 1,6,-1
 212 689 l 1,7,-1
 212 573 l 1,4,-1
147 0 m 1,8,-1
 41 0 l 1,9,-1
 41 510 l 1,10,-1
 147 510 l 1,11,-1
 147 0 l 1,8,-1
EndSplineSet
EndChar

StartChar: eth
Encoding: 240 240 179
Width: 376
GlyphClass: 2
Flags: W
LayerCount: 2
Fore
SplineSet
255 700 m 1,0,-1
 346 700 l 1,1,-1
 266 623 l 1,2,3
 342 519 342 519 342 311 c 2,4,-1
 342 156 l 2,5,6
 342 76 342 76 301.5 33 c 128,-1,7
 261 -10 261 -10 186 -10 c 128,-1,8
 111 -10 111 -10 70.5 33 c 128,-1,9
 30 76 30 76 30 156 c 2,10,-1
 30 331 l 2,11,12
 30 480 30 480 146 480 c 0,13,14
 202 480 202 480 233 437 c 1,15,16
 226 498 226 498 194 554 c 1,17,-1
 155 516 l 1,18,-1
 64 516 l 1,19,-1
 157 606 l 1,20,21
 112 657 112 657 44 700 c 1,22,-1
 182 700 l 1,23,24
 207 686 207 686 223 670 c 1,25,-1
 255 700 l 1,0,-1
236 146 m 2,26,-1
 236 304 l 2,27,28
 236 386 236 386 181 386 c 0,29,30
 136 386 136 386 136 324 c 2,31,-1
 136 146 l 2,32,33
 136 84 136 84 186 84 c 128,-1,34
 236 84 236 84 236 146 c 2,26,-1
EndSplineSet
EndChar

StartChar: ntilde
Encoding: 241 241 180
Width: 389
GlyphClass: 2
Flags: W
AnchorPoint: "Anchor-11" 0 0 basechar 0
AnchorPoint: "Anchor-10" 0 0 basechar 0
AnchorPoint: "Anchor-9" 195 676 basechar 0
AnchorPoint: "Anchor-8" 0 0 basechar 0
AnchorPoint: "Anchor-7" 195 0 basechar 0
LayerCount: 2
Fore
SplineSet
152 611 m 0,0,1
 132 611 132 611 115 572 c 1,2,-1
 61 604 l 1,3,4
 98 688 98 688 152 688 c 0,5,6
 177 688 177 688 206 666 c 0,7,8
 227 651 227 651 238 651 c 0,9,10
 257 651 257 651 275 690 c 1,11,-1
 329 658 l 1,12,13
 292 574 292 574 238 574 c 0,14,15
 213 574 213 574 184 596 c 0,16,17
 163 611 163 611 152 611 c 0,0,1
237 520 m 0,18,19
 351 520 351 520 351 371 c 2,20,-1
 351 0 l 1,21,-1
 245 0 l 1,22,-1
 245 359 l 2,23,24
 245 426 245 426 201 426 c 0,25,26
 147 426 147 426 147 344 c 2,27,-1
 147 0 l 1,28,-1
 41 0 l 1,29,-1
 41 510 l 1,30,-1
 133 510 l 1,31,-1
 135 451 l 1,32,33
 164 520 164 520 237 520 c 0,18,19
EndSplineSet
EndChar

StartChar: ograve
Encoding: 242 242 181
Width: 374
GlyphClass: 2
Flags: W
AnchorPoint: "Anchor-11" 354 510 basechar 0
AnchorPoint: "Anchor-10" 187 255 basechar 0
AnchorPoint: "Anchor-9" 187 698 basechar 0
AnchorPoint: "Anchor-8" 337 10 basechar 0
AnchorPoint: "Anchor-7" 187 0 basechar 0
LayerCount: 2
Fore
SplineSet
247 563 m 1,0,-1
 164 563 l 1,1,-1
 57 698 l 1,2,-1
 177 698 l 1,3,-1
 247 563 l 1,0,-1
31 156 m 2,4,-1
 31 354 l 2,5,6
 31 434 31 434 71.5 477 c 128,-1,7
 112 520 112 520 187 520 c 128,-1,8
 262 520 262 520 302.5 477 c 128,-1,9
 343 434 343 434 343 354 c 2,10,-1
 343 156 l 2,11,12
 343 76 343 76 302.5 33 c 128,-1,13
 262 -10 262 -10 187 -10 c 128,-1,14
 112 -10 112 -10 71.5 33 c 128,-1,15
 31 76 31 76 31 156 c 2,4,-1
237 146 m 2,16,-1
 237 364 l 2,17,18
 237 426 237 426 187 426 c 128,-1,19
 137 426 137 426 137 364 c 2,20,-1
 137 146 l 2,21,22
 137 84 137 84 187 84 c 128,-1,23
 237 84 237 84 237 146 c 2,16,-1
EndSplineSet
EndChar

StartChar: oacute
Encoding: 243 243 182
Width: 374
GlyphClass: 2
Flags: W
AnchorPoint: "Anchor-11" 354 510 basechar 0
AnchorPoint: "Anchor-10" 187 255 basechar 0
AnchorPoint: "Anchor-9" 187 698 basechar 0
AnchorPoint: "Anchor-8" 337 10 basechar 0
AnchorPoint: "Anchor-7" 187 0 basechar 0
LayerCount: 2
Fore
SplineSet
210 563 m 1,0,-1
 127 563 l 1,1,-1
 197 698 l 1,2,-1
 317 698 l 1,3,-1
 210 563 l 1,0,-1
31 156 m 2,4,-1
 31 354 l 2,5,6
 31 434 31 434 71.5 477 c 128,-1,7
 112 520 112 520 187 520 c 128,-1,8
 262 520 262 520 302.5 477 c 128,-1,9
 343 434 343 434 343 354 c 2,10,-1
 343 156 l 2,11,12
 343 76 343 76 302.5 33 c 128,-1,13
 262 -10 262 -10 187 -10 c 128,-1,14
 112 -10 112 -10 71.5 33 c 128,-1,15
 31 76 31 76 31 156 c 2,4,-1
237 146 m 2,16,-1
 237 364 l 2,17,18
 237 426 237 426 187 426 c 128,-1,19
 137 426 137 426 137 364 c 2,20,-1
 137 146 l 2,21,22
 137 84 137 84 187 84 c 128,-1,23
 237 84 237 84 237 146 c 2,16,-1
EndSplineSet
EndChar

StartChar: ocircumflex
Encoding: 244 244 183
Width: 374
GlyphClass: 2
Flags: W
AnchorPoint: "Anchor-11" 354 510 basechar 0
AnchorPoint: "Anchor-10" 187 255 basechar 0
AnchorPoint: "Anchor-9" 187 698 basechar 0
AnchorPoint: "Anchor-8" 337 10 basechar 0
AnchorPoint: "Anchor-7" 187 0 basechar 0
LayerCount: 2
Fore
SplineSet
136 563 m 1,0,-1
 53 563 l 1,1,-1
 135 698 l 1,2,-1
 239 698 l 1,3,-1
 321 563 l 1,4,-1
 238 563 l 1,5,-1
 187 638 l 1,6,-1
 136 563 l 1,0,-1
31 156 m 2,7,-1
 31 354 l 2,8,9
 31 434 31 434 71.5 477 c 128,-1,10
 112 520 112 520 187 520 c 128,-1,11
 262 520 262 520 302.5 477 c 128,-1,12
 343 434 343 434 343 354 c 2,13,-1
 343 156 l 2,14,15
 343 76 343 76 302.5 33 c 128,-1,16
 262 -10 262 -10 187 -10 c 128,-1,17
 112 -10 112 -10 71.5 33 c 128,-1,18
 31 76 31 76 31 156 c 2,7,-1
237 146 m 2,19,-1
 237 364 l 2,20,21
 237 426 237 426 187 426 c 128,-1,22
 137 426 137 426 137 364 c 2,23,-1
 137 146 l 2,24,25
 137 84 137 84 187 84 c 128,-1,26
 237 84 237 84 237 146 c 2,19,-1
EndSplineSet
EndChar

StartChar: otilde
Encoding: 245 245 184
Width: 374
GlyphClass: 2
Flags: W
AnchorPoint: "Anchor-11" 354 510 basechar 0
AnchorPoint: "Anchor-10" 187 255 basechar 0
AnchorPoint: "Anchor-9" 187 676 basechar 0
AnchorPoint: "Anchor-8" 337 10 basechar 0
AnchorPoint: "Anchor-7" 187 0 basechar 0
LayerCount: 2
Fore
SplineSet
107 572 m 1,0,-1
 53 604 l 1,1,2
 90 688 90 688 144 688 c 0,3,4
 169 688 169 688 198 666 c 0,5,6
 219 651 219 651 230 651 c 0,7,8
 249 651 249 651 267 690 c 1,9,-1
 321 658 l 1,10,11
 284 574 284 574 230 574 c 0,12,13
 205 574 205 574 176 596 c 0,14,15
 155 611 155 611 144 611 c 0,16,17
 124 611 124 611 107 572 c 1,0,-1
31 156 m 2,18,-1
 31 354 l 2,19,20
 31 434 31 434 71.5 477 c 128,-1,21
 112 520 112 520 187 520 c 128,-1,22
 262 520 262 520 302.5 477 c 128,-1,23
 343 434 343 434 343 354 c 2,24,-1
 343 156 l 2,25,26
 343 76 343 76 302.5 33 c 128,-1,27
 262 -10 262 -10 187 -10 c 128,-1,28
 112 -10 112 -10 71.5 33 c 128,-1,29
 31 76 31 76 31 156 c 2,18,-1
237 146 m 2,30,-1
 237 364 l 2,31,32
 237 426 237 426 187 426 c 128,-1,33
 137 426 137 426 137 364 c 2,34,-1
 137 146 l 2,35,36
 137 84 137 84 187 84 c 128,-1,37
 237 84 237 84 237 146 c 2,30,-1
EndSplineSet
EndChar

StartChar: odieresis
Encoding: 246 246 185
Width: 374
GlyphClass: 2
Flags: W
AnchorPoint: "Anchor-11" 354 510 basechar 0
AnchorPoint: "Anchor-10" 187 255 basechar 0
AnchorPoint: "Anchor-9" 187 689 basechar 0
AnchorPoint: "Anchor-8" 337 10 basechar 0
AnchorPoint: "Anchor-7" 187 0 basechar 0
LayerCount: 2
Fore
SplineSet
164 573 m 1,0,-1
 69 573 l 1,1,-1
 69 689 l 1,2,-1
 164 689 l 1,3,-1
 164 573 l 1,0,-1
305 573 m 1,4,-1
 210 573 l 1,5,-1
 210 689 l 1,6,-1
 305 689 l 1,7,-1
 305 573 l 1,4,-1
31 156 m 2,8,-1
 31 354 l 2,9,10
 31 434 31 434 71.5 477 c 128,-1,11
 112 520 112 520 187 520 c 128,-1,12
 262 520 262 520 302.5 477 c 128,-1,13
 343 434 343 434 343 354 c 2,14,-1
 343 156 l 2,15,16
 343 76 343 76 302.5 33 c 128,-1,17
 262 -10 262 -10 187 -10 c 128,-1,18
 112 -10 112 -10 71.5 33 c 128,-1,19
 31 76 31 76 31 156 c 2,8,-1
237 146 m 2,20,-1
 237 364 l 2,21,22
 237 426 237 426 187 426 c 128,-1,23
 137 426 137 426 137 364 c 2,24,-1
 137 146 l 2,25,26
 137 84 137 84 187 84 c 128,-1,27
 237 84 237 84 237 146 c 2,20,-1
EndSplineSet
EndChar

StartChar: divide
Encoding: 247 247 186
Width: 400
GlyphClass: 2
Flags: W
LayerCount: 2
Fore
SplineSet
252 399 m 1,0,-1
 146 399 l 1,1,-1
 146 505 l 1,2,-1
 252 505 l 1,3,-1
 252 399 l 1,0,-1
372 261 m 1,4,-1
 26 261 l 1,5,-1
 26 339 l 1,6,-1
 372 339 l 1,7,-1
 372 261 l 1,4,-1
252 95 m 1,8,-1
 146 95 l 1,9,-1
 146 201 l 1,10,-1
 252 201 l 1,11,-1
 252 95 l 1,8,-1
EndSplineSet
EndChar

StartChar: oslash
Encoding: 248 248 187
Width: 374
GlyphClass: 2
Flags: W
AnchorPoint: "Anchor-11" 354 510 basechar 0
AnchorPoint: "Anchor-10" 187 255 basechar 0
AnchorPoint: "Anchor-9" 187 510 basechar 0
AnchorPoint: "Anchor-8" 337 10 basechar 0
AnchorPoint: "Anchor-7" 187 0 basechar 0
LayerCount: 2
Fore
SplineSet
339 512 m 1,0,-1
 315 461 l 1,1,2
 343 420 343 420 343 354 c 2,3,-1
 343 156 l 2,4,5
 343 76 343 76 302.5 33 c 128,-1,6
 262 -10 262 -10 187 -10 c 0,7,8
 138 -10 138 -10 104 8 c 1,9,-1
 87 -28 l 1,10,-1
 35 -2 l 1,11,-1
 59 49 l 1,12,13
 31 90 31 90 31 156 c 2,14,-1
 31 354 l 2,15,16
 31 434 31 434 71.5 477 c 128,-1,17
 112 520 112 520 187 520 c 0,18,19
 236 520 236 520 270 502 c 1,20,-1
 287 538 l 1,21,-1
 339 512 l 1,0,-1
137 364 m 2,22,-1
 137 217 l 1,23,-1
 226 408 l 1,24,25
 216 426 216 426 187 426 c 0,26,27
 137 426 137 426 137 364 c 2,22,-1
187 84 m 0,28,29
 237 84 237 84 237 146 c 2,30,-1
 237 293 l 1,31,-1
 148 102 l 1,32,33
 158 84 158 84 187 84 c 0,28,29
EndSplineSet
EndChar

StartChar: ugrave
Encoding: 249 249 188
Width: 389
GlyphClass: 2
Flags: W
AnchorPoint: "Anchor-11" 369 510 basechar 0
AnchorPoint: "Anchor-10" 0 0 basechar 0
AnchorPoint: "Anchor-9" 193 698 basechar 0
AnchorPoint: "Anchor-8" 348 0 basechar 0
AnchorPoint: "Anchor-7" 195 0 basechar 0
LayerCount: 2
Fore
SplineSet
183 698 m 1,0,-1
 253 563 l 1,1,-1
 170 563 l 1,2,-1
 63 698 l 1,3,-1
 183 698 l 1,0,-1
242 166 m 2,4,-1
 242 510 l 1,5,-1
 348 510 l 1,6,-1
 348 0 l 1,7,-1
 256 0 l 1,8,-1
 254 59 l 1,9,10
 226 -10 226 -10 152 -10 c 0,11,12
 38 -10 38 -10 38 139 c 2,13,-1
 38 510 l 1,14,-1
 144 510 l 1,15,-1
 144 151 l 2,16,17
 144 84 144 84 188 84 c 0,18,19
 242 84 242 84 242 166 c 2,4,-1
EndSplineSet
EndChar

StartChar: uacute
Encoding: 250 250 189
Width: 389
GlyphClass: 2
Flags: W
AnchorPoint: "Anchor-11" 369 510 basechar 0
AnchorPoint: "Anchor-10" 0 0 basechar 0
AnchorPoint: "Anchor-9" 193 698 basechar 0
AnchorPoint: "Anchor-8" 348 0 basechar 0
AnchorPoint: "Anchor-7" 195 0 basechar 0
LayerCount: 2
Fore
SplineSet
203 698 m 1,0,-1
 323 698 l 1,1,-1
 216 563 l 1,2,-1
 133 563 l 1,3,-1
 203 698 l 1,0,-1
242 166 m 2,4,-1
 242 510 l 1,5,-1
 348 510 l 1,6,-1
 348 0 l 1,7,-1
 256 0 l 1,8,-1
 254 59 l 1,9,10
 226 -10 226 -10 152 -10 c 0,11,12
 38 -10 38 -10 38 139 c 2,13,-1
 38 510 l 1,14,-1
 144 510 l 1,15,-1
 144 151 l 2,16,17
 144 84 144 84 188 84 c 0,18,19
 242 84 242 84 242 166 c 2,4,-1
EndSplineSet
EndChar

StartChar: ucircumflex
Encoding: 251 251 190
Width: 389
GlyphClass: 2
Flags: W
AnchorPoint: "Anchor-11" 369 510 basechar 0
AnchorPoint: "Anchor-10" 0 0 basechar 0
AnchorPoint: "Anchor-9" 193 698 basechar 0
AnchorPoint: "Anchor-8" 348 0 basechar 0
AnchorPoint: "Anchor-7" 195 0 basechar 0
LayerCount: 2
Fore
SplineSet
244 563 m 1,0,-1
 193 638 l 1,1,-1
 142 563 l 1,2,-1
 59 563 l 1,3,-1
 141 698 l 1,4,-1
 245 698 l 1,5,-1
 327 563 l 1,6,-1
 244 563 l 1,0,-1
242 166 m 2,7,-1
 242 510 l 1,8,-1
 348 510 l 1,9,-1
 348 0 l 1,10,-1
 256 0 l 1,11,-1
 254 59 l 1,12,13
 226 -10 226 -10 152 -10 c 0,14,15
 38 -10 38 -10 38 139 c 2,16,-1
 38 510 l 1,17,-1
 144 510 l 1,18,-1
 144 151 l 2,19,20
 144 84 144 84 188 84 c 0,21,22
 242 84 242 84 242 166 c 2,7,-1
EndSplineSet
EndChar

StartChar: udieresis
Encoding: 252 252 191
Width: 389
GlyphClass: 2
Flags: W
AnchorPoint: "Anchor-11" 369 510 basechar 0
AnchorPoint: "Anchor-10" 0 0 basechar 0
AnchorPoint: "Anchor-9" 193 689 basechar 0
AnchorPoint: "Anchor-8" 348 0 basechar 0
AnchorPoint: "Anchor-7" 195 0 basechar 0
LayerCount: 2
Fore
SplineSet
75 689 m 1,0,-1
 170 689 l 1,1,-1
 170 573 l 1,2,-1
 75 573 l 1,3,-1
 75 689 l 1,0,-1
216 689 m 1,4,-1
 311 689 l 1,5,-1
 311 573 l 1,6,-1
 216 573 l 1,7,-1
 216 689 l 1,4,-1
242 166 m 2,8,-1
 242 510 l 1,9,-1
 348 510 l 1,10,-1
 348 0 l 1,11,-1
 256 0 l 1,12,-1
 254 59 l 1,13,14
 226 -10 226 -10 152 -10 c 0,15,16
 38 -10 38 -10 38 139 c 2,17,-1
 38 510 l 1,18,-1
 144 510 l 1,19,-1
 144 151 l 2,20,21
 144 84 144 84 188 84 c 0,22,23
 242 84 242 84 242 166 c 2,8,-1
EndSplineSet
EndChar

StartChar: yacute
Encoding: 253 253 192
Width: 359
GlyphClass: 2
Flags: W
AnchorPoint: "Anchor-11" 0 0 basechar 0
AnchorPoint: "Anchor-10" 0 0 basechar 0
AnchorPoint: "Anchor-9" 180 698 basechar 0
AnchorPoint: "Anchor-8" 0 0 basechar 0
AnchorPoint: "Anchor-7" 180 0 basechar 0
LayerCount: 2
Fore
SplineSet
203 563 m 1,0,-1
 120 563 l 1,1,-1
 190 698 l 1,2,-1
 310 698 l 1,3,-1
 203 563 l 1,0,-1
94 -165 m 0,4,5
 58 -165 58 -165 37 -155 c 1,6,-1
 37 -65 l 1,7,8
 55 -71 55 -71 76 -71 c 0,9,10
 103 -71 103 -71 115 -62 c 128,-1,11
 127 -53 127 -53 132 -28 c 2,12,-1
 134 -21 l 1,13,-1
 11 510 l 1,14,-1
 119 510 l 1,15,-1
 187 159 l 1,16,-1
 248 510 l 1,17,-1
 347 510 l 1,18,-1
 234 -44 l 2,19,20
 221 -109 221 -109 188.5 -137 c 128,-1,21
 156 -165 156 -165 94 -165 c 0,4,5
EndSplineSet
EndChar

StartChar: thorn
Encoding: 254 254 193
Width: 387
GlyphClass: 2
Flags: W
LayerCount: 2
Fore
SplineSet
237 520 m 0,0,1
 353 520 353 520 353 371 c 2,2,-1
 353 139 l 2,3,4
 353 -10 353 -10 237 -10 c 0,5,6
 180 -10 180 -10 147 37 c 1,7,-1
 147 -155 l 1,8,-1
 41 -155 l 1,9,-1
 41 700 l 1,10,-1
 147 700 l 1,11,-1
 147 473 l 1,12,13
 180 520 180 520 237 520 c 0,0,1
247 146 m 2,14,-1
 247 364 l 2,15,16
 247 426 247 426 202 426 c 0,17,18
 147 426 147 426 147 344 c 2,19,-1
 147 166 l 2,20,21
 147 84 147 84 202 84 c 0,22,23
 247 84 247 84 247 146 c 2,14,-1
EndSplineSet
EndChar

StartChar: ydieresis
Encoding: 255 255 194
Width: 359
GlyphClass: 2
Flags: W
AnchorPoint: "Anchor-11" 0 0 basechar 0
AnchorPoint: "Anchor-10" 0 0 basechar 0
AnchorPoint: "Anchor-9" 180 689 basechar 0
AnchorPoint: "Anchor-8" 0 0 basechar 0
AnchorPoint: "Anchor-7" 180 0 basechar 0
LayerCount: 2
Fore
SplineSet
157 573 m 1,0,-1
 62 573 l 1,1,-1
 62 689 l 1,2,-1
 157 689 l 1,3,-1
 157 573 l 1,0,-1
298 573 m 1,4,-1
 203 573 l 1,5,-1
 203 689 l 1,6,-1
 298 689 l 1,7,-1
 298 573 l 1,4,-1
94 -165 m 0,8,9
 58 -165 58 -165 37 -155 c 1,10,-1
 37 -65 l 1,11,12
 55 -71 55 -71 76 -71 c 0,13,14
 103 -71 103 -71 115 -62 c 128,-1,15
 127 -53 127 -53 132 -28 c 2,16,-1
 134 -21 l 1,17,-1
 11 510 l 1,18,-1
 119 510 l 1,19,-1
 187 159 l 1,20,-1
 248 510 l 1,21,-1
 347 510 l 1,22,-1
 234 -44 l 2,23,24
 221 -109 221 -109 188.5 -137 c 128,-1,25
 156 -165 156 -165 94 -165 c 0,8,9
EndSplineSet
EndChar

StartChar: Amacron
Encoding: 256 256 195
Width: 399
GlyphClass: 2
Flags: W
AnchorPoint: "Anchor-11" 0 0 basechar 0
AnchorPoint: "Anchor-10" 0 0 basechar 0
AnchorPoint: "Anchor-9" 200 850 basechar 0
AnchorPoint: "Anchor-8" 388 0 basechar 0
AnchorPoint: "Anchor-7" 200 0 basechar 0
LayerCount: 2
Fore
SplineSet
85 850 m 1,0,-1
 315 850 l 1,1,-1
 315 772 l 1,2,-1
 85 772 l 1,3,-1
 85 850 l 1,0,-1
388 0 m 1,4,-1
 278 0 l 1,5,-1
 259 137 l 1,6,-1
 132 137 l 1,7,-1
 113 0 l 1,8,-1
 11 0 l 1,9,-1
 125 700 l 1,10,-1
 274 700 l 1,11,-1
 388 0 l 1,4,-1
195 585 m 1,12,-1
 146 232 l 1,13,-1
 245 232 l 1,14,-1
 195 585 l 1,12,-1
EndSplineSet
EndChar

StartChar: amacron
Encoding: 257 257 196
Width: 372
GlyphClass: 2
Flags: W
AnchorPoint: "Anchor-11" 0 0 basechar 0
AnchorPoint: "Anchor-10" 0 0 basechar 0
AnchorPoint: "Anchor-9" 181 670 basechar 0
AnchorPoint: "Anchor-8" 343 0 basechar 0
AnchorPoint: "Anchor-7" 0 0 basechar 0
LayerCount: 2
Fore
SplineSet
66 670 m 1,0,-1
 296 670 l 1,1,-1
 296 592 l 1,2,-1
 66 592 l 1,3,-1
 66 670 l 1,0,-1
344 0 m 1,4,-1
 247 0 l 1,5,6
 241 12 241 12 239 60 c 1,7,8
 209 -10 209 -10 131 -10 c 0,9,10
 80 -10 80 -10 50 24.5 c 128,-1,11
 20 59 20 59 20 118 c 0,12,13
 20 178 20 178 48 216.5 c 128,-1,14
 76 255 76 255 143 288 c 0,15,16
 198 315 198 315 212 327 c 0,17,18
 226 341 226 341 226 361 c 2,19,-1
 226 371 l 2,20,21
 226 429 226 429 183 429 c 0,22,23
 135 429 135 429 135 370 c 2,24,-1
 135 351 l 1,25,-1
 35 351 l 1,26,-1
 35 364 l 2,27,28
 35 439 35 439 73.5 479.5 c 128,-1,29
 112 520 112 520 184 520 c 0,30,31
 261 520 261 520 296.5 479.5 c 128,-1,32
 332 439 332 439 332 352 c 2,33,-1
 332 147 l 2,34,35
 332 50 332 50 344 0 c 1,4,-1
171 81 m 0,36,37
 226 81 226 81 226 166 c 2,38,-1
 226 253 l 1,39,40
 219 244 219 244 174 215 c 0,41,42
 126 185 126 185 126 136 c 0,43,44
 126 81 126 81 171 81 c 0,36,37
EndSplineSet
EndChar

StartChar: Abreve
Encoding: 258 258 197
Width: 399
GlyphClass: 2
Flags: W
AnchorPoint: "Anchor-11" 0 0 basechar 0
AnchorPoint: "Anchor-10" 0 0 basechar 0
AnchorPoint: "Anchor-9" 200 870 basechar 0
AnchorPoint: "Anchor-8" 388 0 basechar 0
AnchorPoint: "Anchor-7" 200 0 basechar 0
LayerCount: 2
Fore
SplineSet
200 751 m 0,0,1
 145 751 145 751 115 782 c 128,-1,2
 85 813 85 813 83 870 c 1,3,-1
 148 870 l 1,4,5
 154 822 154 822 200 822 c 0,6,7
 248 822 248 822 254 870 c 1,8,-1
 319 870 l 1,9,10
 317 813 317 813 286.5 782 c 128,-1,11
 256 751 256 751 200 751 c 0,0,1
388 0 m 1,12,-1
 278 0 l 1,13,-1
 259 137 l 1,14,-1
 132 137 l 1,15,-1
 113 0 l 1,16,-1
 11 0 l 1,17,-1
 125 700 l 1,18,-1
 274 700 l 1,19,-1
 388 0 l 1,12,-1
195 585 m 1,20,-1
 146 232 l 1,21,-1
 245 232 l 1,22,-1
 195 585 l 1,20,-1
EndSplineSet
EndChar

StartChar: abreve
Encoding: 259 259 198
Width: 372
GlyphClass: 2
Flags: W
AnchorPoint: "Anchor-11" 0 0 basechar 0
AnchorPoint: "Anchor-10" 0 0 basechar 0
AnchorPoint: "Anchor-9" 181 690 basechar 0
AnchorPoint: "Anchor-8" 343 0 basechar 0
AnchorPoint: "Anchor-7" 0 0 basechar 0
LayerCount: 2
Fore
SplineSet
181 571 m 0,0,1
 126 571 126 571 96 602 c 128,-1,2
 66 633 66 633 64 690 c 1,3,-1
 129 690 l 1,4,5
 135 642 135 642 181 642 c 0,6,7
 229 642 229 642 235 690 c 1,8,-1
 300 690 l 1,9,10
 298 633 298 633 267.5 602 c 128,-1,11
 237 571 237 571 181 571 c 0,0,1
344 0 m 1,12,-1
 247 0 l 1,13,14
 241 12 241 12 239 60 c 1,15,16
 209 -10 209 -10 131 -10 c 0,17,18
 80 -10 80 -10 50 24.5 c 128,-1,19
 20 59 20 59 20 118 c 0,20,21
 20 178 20 178 48 216.5 c 128,-1,22
 76 255 76 255 143 288 c 0,23,24
 198 315 198 315 212 327 c 0,25,26
 226 341 226 341 226 361 c 2,27,-1
 226 371 l 2,28,29
 226 429 226 429 183 429 c 0,30,31
 135 429 135 429 135 370 c 2,32,-1
 135 351 l 1,33,-1
 35 351 l 1,34,-1
 35 364 l 2,35,36
 35 439 35 439 73.5 479.5 c 128,-1,37
 112 520 112 520 184 520 c 0,38,39
 261 520 261 520 296.5 479.5 c 128,-1,40
 332 439 332 439 332 352 c 2,41,-1
 332 147 l 2,42,43
 332 50 332 50 344 0 c 1,12,-1
171 81 m 0,44,45
 226 81 226 81 226 166 c 2,46,-1
 226 253 l 1,47,48
 219 244 219 244 174 215 c 0,49,50
 126 185 126 185 126 136 c 0,51,52
 126 81 126 81 171 81 c 0,44,45
EndSplineSet
EndChar

StartChar: Aogonek
Encoding: 260 260 199
Width: 399
GlyphClass: 2
Flags: W
AnchorPoint: "Anchor-11" 0 0 basechar 0
AnchorPoint: "Anchor-10" 0 0 basechar 0
AnchorPoint: "Anchor-9" 200 690 basechar 0
AnchorPoint: "Anchor-8" 388 0 basechar 0
AnchorPoint: "Anchor-7" 200 0 basechar 0
LayerCount: 2
Fore
SplineSet
317 -59 m 0,0,1
 317 -94 317 -94 356 -94 c 0,2,3
 366 -94 366 -94 388 -88 c 1,4,-1
 388 -144 l 1,5,6
 358 -155 358 -155 327 -155 c 0,7,8
 232 -155 232 -155 232 -89 c 0,9,10
 232 -35 232 -35 300 0 c 1,11,-1
 278 0 l 1,12,-1
 259 137 l 1,13,-1
 132 137 l 1,14,-1
 113 0 l 1,15,-1
 11 0 l 1,16,-1
 125 700 l 1,17,-1
 274 700 l 1,18,-1
 388 0 l 1,19,-1
 347 0 l 1,20,21
 317 -26 317 -26 317 -59 c 0,0,1
195 585 m 1,22,-1
 146 232 l 1,23,-1
 245 232 l 1,24,-1
 195 585 l 1,22,-1
EndSplineSet
EndChar

StartChar: aogonek
Encoding: 261 261 200
Width: 372
GlyphClass: 2
Flags: W
AnchorPoint: "Anchor-11" 0 0 basechar 0
AnchorPoint: "Anchor-10" 0 0 basechar 0
AnchorPoint: "Anchor-9" 181 510 basechar 0
AnchorPoint: "Anchor-8" 343 0 basechar 0
AnchorPoint: "Anchor-7" 0 0 basechar 0
LayerCount: 2
Fore
SplineSet
272 -59 m 0,0,1
 272 -94 272 -94 311 -94 c 0,2,3
 320 -94 320 -94 343 -88 c 1,4,-1
 343 -144 l 1,5,6
 313 -155 313 -155 282 -155 c 0,7,8
 187 -155 187 -155 187 -89 c 0,9,10
 187 -35 187 -35 255 0 c 1,11,-1
 247 0 l 1,12,13
 241 12 241 12 239 60 c 1,14,15
 209 -10 209 -10 131 -10 c 0,16,17
 80 -10 80 -10 50 24.5 c 128,-1,18
 20 59 20 59 20 118 c 0,19,20
 20 178 20 178 48 216.5 c 128,-1,21
 76 255 76 255 143 288 c 0,22,23
 198 315 198 315 212 327 c 0,24,25
 226 341 226 341 226 361 c 2,26,-1
 226 371 l 2,27,28
 226 429 226 429 183 429 c 0,29,30
 135 429 135 429 135 370 c 2,31,-1
 135 351 l 1,32,-1
 35 351 l 1,33,-1
 35 364 l 2,34,35
 35 439 35 439 73.5 479.5 c 128,-1,36
 112 520 112 520 184 520 c 0,37,38
 261 520 261 520 296.5 479.5 c 128,-1,39
 332 439 332 439 332 352 c 2,40,-1
 332 147 l 2,41,42
 332 50 332 50 344 0 c 1,43,-1
 302 0 l 1,44,45
 272 -26 272 -26 272 -59 c 0,0,1
171 81 m 0,46,47
 226 81 226 81 226 166 c 2,48,-1
 226 253 l 1,49,50
 219 244 219 244 174 215 c 0,51,52
 126 185 126 185 126 136 c 0,53,54
 126 81 126 81 171 81 c 0,46,47
EndSplineSet
EndChar

StartChar: Cacute
Encoding: 262 262 201
Width: 381
GlyphClass: 2
Flags: W
AnchorPoint: "Anchor-11" 0 0 basechar 0
AnchorPoint: "Anchor-10" 0 0 basechar 0
AnchorPoint: "Anchor-9" 194 878 basechar 0
AnchorPoint: "Anchor-8" 0 0 basechar 0
AnchorPoint: "Anchor-7" 198 0 basechar 0
LayerCount: 2
Fore
SplineSet
217 743 m 1,0,-1
 134 743 l 1,1,-1
 204 878 l 1,2,-1
 324 878 l 1,3,-1
 217 743 l 1,0,-1
33 162 m 2,4,-1
 33 538 l 2,5,6
 33 620 33 620 75 665 c 128,-1,7
 117 710 117 710 195 710 c 128,-1,8
 273 710 273 710 315 665 c 128,-1,9
 357 620 357 620 357 538 c 2,10,-1
 357 464 l 1,11,-1
 253 464 l 1,12,-1
 253 545 l 2,13,14
 253 610 253 610 198 610 c 128,-1,15
 143 610 143 610 143 545 c 2,16,-1
 143 154 l 2,17,18
 143 90 143 90 198 90 c 128,-1,19
 253 90 253 90 253 154 c 2,20,-1
 253 256 l 1,21,-1
 357 256 l 1,22,-1
 357 162 l 2,23,24
 357 80 357 80 315 35 c 128,-1,25
 273 -10 273 -10 195 -10 c 128,-1,26
 117 -10 117 -10 75 35 c 128,-1,27
 33 80 33 80 33 162 c 2,4,-1
EndSplineSet
EndChar

StartChar: cacute
Encoding: 263 263 202
Width: 362
GlyphClass: 2
Flags: W
AnchorPoint: "Anchor-11" 0 0 basechar 0
AnchorPoint: "Anchor-10" 0 0 basechar 0
AnchorPoint: "Anchor-9" 184 698 basechar 0
AnchorPoint: "Anchor-8" 0 0 basechar 0
AnchorPoint: "Anchor-7" 186 0 basechar 0
LayerCount: 2
Fore
SplineSet
207 563 m 1,0,-1
 124 563 l 1,1,-1
 194 698 l 1,2,-1
 314 698 l 1,3,-1
 207 563 l 1,0,-1
31 154 m 2,4,-1
 31 356 l 2,5,6
 31 435 31 435 71 477.5 c 128,-1,7
 111 520 111 520 186 520 c 0,8,9
 260 520 260 520 298.5 477 c 128,-1,10
 337 434 337 434 337 356 c 2,11,-1
 337 325 l 1,12,-1
 235 325 l 1,13,-1
 235 366 l 2,14,15
 235 426 235 426 186 426 c 128,-1,16
 137 426 137 426 137 366 c 2,17,-1
 137 144 l 2,18,19
 137 84 137 84 186 84 c 128,-1,20
 235 84 235 84 235 144 c 2,21,-1
 235 195 l 1,22,-1
 337 195 l 1,23,-1
 337 154 l 2,24,25
 337 76 337 76 298.5 33 c 128,-1,26
 260 -10 260 -10 186 -10 c 0,27,28
 111 -10 111 -10 71 32.5 c 128,-1,29
 31 75 31 75 31 154 c 2,4,-1
EndSplineSet
EndChar

StartChar: Ccircumflex
Encoding: 264 264 203
Width: 381
GlyphClass: 2
Flags: W
AnchorPoint: "Anchor-11" 0 0 basechar 0
AnchorPoint: "Anchor-10" 0 0 basechar 0
AnchorPoint: "Anchor-9" 194 878 basechar 0
AnchorPoint: "Anchor-8" 0 0 basechar 0
AnchorPoint: "Anchor-7" 198 0 basechar 0
LayerCount: 2
Fore
SplineSet
143 743 m 1,0,-1
 60 743 l 1,1,-1
 142 878 l 1,2,-1
 246 878 l 1,3,-1
 328 743 l 1,4,-1
 245 743 l 1,5,-1
 194 818 l 1,6,-1
 143 743 l 1,0,-1
33 162 m 2,7,-1
 33 538 l 2,8,9
 33 620 33 620 75 665 c 128,-1,10
 117 710 117 710 195 710 c 128,-1,11
 273 710 273 710 315 665 c 128,-1,12
 357 620 357 620 357 538 c 2,13,-1
 357 464 l 1,14,-1
 253 464 l 1,15,-1
 253 545 l 2,16,17
 253 610 253 610 198 610 c 128,-1,18
 143 610 143 610 143 545 c 2,19,-1
 143 154 l 2,20,21
 143 90 143 90 198 90 c 128,-1,22
 253 90 253 90 253 154 c 2,23,-1
 253 256 l 1,24,-1
 357 256 l 1,25,-1
 357 162 l 2,26,27
 357 80 357 80 315 35 c 128,-1,28
 273 -10 273 -10 195 -10 c 128,-1,29
 117 -10 117 -10 75 35 c 128,-1,30
 33 80 33 80 33 162 c 2,7,-1
EndSplineSet
EndChar

StartChar: ccircumflex
Encoding: 265 265 204
Width: 362
GlyphClass: 2
Flags: W
AnchorPoint: "Anchor-11" 0 0 basechar 0
AnchorPoint: "Anchor-10" 0 0 basechar 0
AnchorPoint: "Anchor-9" 184 698 basechar 0
AnchorPoint: "Anchor-8" 0 0 basechar 0
AnchorPoint: "Anchor-7" 186 0 basechar 0
LayerCount: 2
Fore
SplineSet
133 563 m 1,0,-1
 50 563 l 1,1,-1
 132 698 l 1,2,-1
 236 698 l 1,3,-1
 318 563 l 1,4,-1
 235 563 l 1,5,-1
 184 638 l 1,6,-1
 133 563 l 1,0,-1
31 154 m 2,7,-1
 31 356 l 2,8,9
 31 435 31 435 71 477.5 c 128,-1,10
 111 520 111 520 186 520 c 0,11,12
 260 520 260 520 298.5 477 c 128,-1,13
 337 434 337 434 337 356 c 2,14,-1
 337 325 l 1,15,-1
 235 325 l 1,16,-1
 235 366 l 2,17,18
 235 426 235 426 186 426 c 128,-1,19
 137 426 137 426 137 366 c 2,20,-1
 137 144 l 2,21,22
 137 84 137 84 186 84 c 128,-1,23
 235 84 235 84 235 144 c 2,24,-1
 235 195 l 1,25,-1
 337 195 l 1,26,-1
 337 154 l 2,27,28
 337 76 337 76 298.5 33 c 128,-1,29
 260 -10 260 -10 186 -10 c 0,30,31
 111 -10 111 -10 71 32.5 c 128,-1,32
 31 75 31 75 31 154 c 2,7,-1
EndSplineSet
EndChar

StartChar: Cdotaccent
Encoding: 266 266 205
Width: 381
GlyphClass: 2
Flags: W
AnchorPoint: "Anchor-11" 0 0 basechar 0
AnchorPoint: "Anchor-10" 0 0 basechar 0
AnchorPoint: "Anchor-9" 194 869 basechar 0
AnchorPoint: "Anchor-8" 0 0 basechar 0
AnchorPoint: "Anchor-7" 198 0 basechar 0
LayerCount: 2
Fore
SplineSet
247 753 m 1,0,-1
 141 753 l 1,1,-1
 141 869 l 1,2,-1
 247 869 l 1,3,-1
 247 753 l 1,0,-1
33 162 m 2,4,-1
 33 538 l 2,5,6
 33 620 33 620 75 665 c 128,-1,7
 117 710 117 710 195 710 c 128,-1,8
 273 710 273 710 315 665 c 128,-1,9
 357 620 357 620 357 538 c 2,10,-1
 357 464 l 1,11,-1
 253 464 l 1,12,-1
 253 545 l 2,13,14
 253 610 253 610 198 610 c 128,-1,15
 143 610 143 610 143 545 c 2,16,-1
 143 154 l 2,17,18
 143 90 143 90 198 90 c 128,-1,19
 253 90 253 90 253 154 c 2,20,-1
 253 256 l 1,21,-1
 357 256 l 1,22,-1
 357 162 l 2,23,24
 357 80 357 80 315 35 c 128,-1,25
 273 -10 273 -10 195 -10 c 128,-1,26
 117 -10 117 -10 75 35 c 128,-1,27
 33 80 33 80 33 162 c 2,4,-1
EndSplineSet
EndChar

StartChar: cdotaccent
Encoding: 267 267 206
Width: 362
GlyphClass: 2
Flags: W
AnchorPoint: "Anchor-11" 0 0 basechar 0
AnchorPoint: "Anchor-10" 0 0 basechar 0
AnchorPoint: "Anchor-9" 184 689 basechar 0
AnchorPoint: "Anchor-8" 0 0 basechar 0
AnchorPoint: "Anchor-7" 186 0 basechar 0
LayerCount: 2
Fore
SplineSet
237 573 m 1,0,-1
 131 573 l 1,1,-1
 131 689 l 1,2,-1
 237 689 l 1,3,-1
 237 573 l 1,0,-1
31 154 m 2,4,-1
 31 356 l 2,5,6
 31 435 31 435 71 477.5 c 128,-1,7
 111 520 111 520 186 520 c 0,8,9
 260 520 260 520 298.5 477 c 128,-1,10
 337 434 337 434 337 356 c 2,11,-1
 337 325 l 1,12,-1
 235 325 l 1,13,-1
 235 366 l 2,14,15
 235 426 235 426 186 426 c 128,-1,16
 137 426 137 426 137 366 c 2,17,-1
 137 144 l 2,18,19
 137 84 137 84 186 84 c 128,-1,20
 235 84 235 84 235 144 c 2,21,-1
 235 195 l 1,22,-1
 337 195 l 1,23,-1
 337 154 l 2,24,25
 337 76 337 76 298.5 33 c 128,-1,26
 260 -10 260 -10 186 -10 c 0,27,28
 111 -10 111 -10 71 32.5 c 128,-1,29
 31 75 31 75 31 154 c 2,4,-1
EndSplineSet
EndChar

StartChar: Ccaron
Encoding: 268 268 207
Width: 381
GlyphClass: 2
Flags: W
AnchorPoint: "Anchor-11" 0 0 basechar 0
AnchorPoint: "Anchor-10" 0 0 basechar 0
AnchorPoint: "Anchor-9" 194 878 basechar 0
AnchorPoint: "Anchor-8" 0 0 basechar 0
AnchorPoint: "Anchor-7" 198 0 basechar 0
LayerCount: 2
Fore
SplineSet
246 743 m 1,0,-1
 142 743 l 1,1,-1
 60 878 l 1,2,-1
 143 878 l 1,3,-1
 194 803 l 1,4,-1
 245 878 l 1,5,-1
 328 878 l 1,6,-1
 246 743 l 1,0,-1
33 162 m 2,7,-1
 33 538 l 2,8,9
 33 620 33 620 75 665 c 128,-1,10
 117 710 117 710 195 710 c 128,-1,11
 273 710 273 710 315 665 c 128,-1,12
 357 620 357 620 357 538 c 2,13,-1
 357 464 l 1,14,-1
 253 464 l 1,15,-1
 253 545 l 2,16,17
 253 610 253 610 198 610 c 128,-1,18
 143 610 143 610 143 545 c 2,19,-1
 143 154 l 2,20,21
 143 90 143 90 198 90 c 128,-1,22
 253 90 253 90 253 154 c 2,23,-1
 253 256 l 1,24,-1
 357 256 l 1,25,-1
 357 162 l 2,26,27
 357 80 357 80 315 35 c 128,-1,28
 273 -10 273 -10 195 -10 c 128,-1,29
 117 -10 117 -10 75 35 c 128,-1,30
 33 80 33 80 33 162 c 2,7,-1
EndSplineSet
EndChar

StartChar: ccaron
Encoding: 269 269 208
Width: 362
GlyphClass: 2
Flags: W
AnchorPoint: "Anchor-11" 0 0 basechar 0
AnchorPoint: "Anchor-10" 0 0 basechar 0
AnchorPoint: "Anchor-9" 184 698 basechar 0
AnchorPoint: "Anchor-8" 0 0 basechar 0
AnchorPoint: "Anchor-7" 186 0 basechar 0
LayerCount: 2
Fore
SplineSet
236 563 m 1,0,-1
 132 563 l 1,1,-1
 50 698 l 1,2,-1
 133 698 l 1,3,-1
 184 623 l 1,4,-1
 235 698 l 1,5,-1
 318 698 l 1,6,-1
 236 563 l 1,0,-1
31 154 m 2,7,-1
 31 356 l 2,8,9
 31 435 31 435 71 477.5 c 128,-1,10
 111 520 111 520 186 520 c 0,11,12
 260 520 260 520 298.5 477 c 128,-1,13
 337 434 337 434 337 356 c 2,14,-1
 337 325 l 1,15,-1
 235 325 l 1,16,-1
 235 366 l 2,17,18
 235 426 235 426 186 426 c 128,-1,19
 137 426 137 426 137 366 c 2,20,-1
 137 144 l 2,21,22
 137 84 137 84 186 84 c 128,-1,23
 235 84 235 84 235 144 c 2,24,-1
 235 195 l 1,25,-1
 337 195 l 1,26,-1
 337 154 l 2,27,28
 337 76 337 76 298.5 33 c 128,-1,29
 260 -10 260 -10 186 -10 c 0,30,31
 111 -10 111 -10 71 32.5 c 128,-1,32
 31 75 31 75 31 154 c 2,7,-1
EndSplineSet
EndChar

StartChar: Dcaron
Encoding: 270 270 209
Width: 406
GlyphClass: 2
Flags: W
AnchorPoint: "Anchor-11" 0 0 basechar 0
AnchorPoint: "Anchor-10" 101 365 basechar 0
AnchorPoint: "Anchor-9" 194 878 basechar 0
AnchorPoint: "Anchor-8" 0 0 basechar 0
AnchorPoint: "Anchor-7" 194 0 basechar 0
LayerCount: 2
Fore
SplineSet
246 743 m 1,0,-1
 142 743 l 1,1,-1
 60 878 l 1,2,-1
 143 878 l 1,3,-1
 194 803 l 1,4,-1
 245 878 l 1,5,-1
 328 878 l 1,6,-1
 246 743 l 1,0,-1
209 0 m 2,7,-1
 41 0 l 1,8,-1
 41 700 l 1,9,-1
 209 700 l 2,10,11
 373 700 373 700 373 527 c 2,12,-1
 373 173 l 2,13,14
 373 0 373 0 209 0 c 2,7,-1
151 600 m 1,15,-1
 151 100 l 1,16,-1
 207 100 l 2,17,18
 263 100 263 100 263 168 c 2,19,-1
 263 532 l 2,20,21
 263 600 263 600 207 600 c 2,22,-1
 151 600 l 1,15,-1
EndSplineSet
EndChar

StartChar: dcaron
Encoding: 271 271 210
Width: 468
GlyphClass: 2
Flags: W
AnchorPoint: "Anchor-11" 0 0 basechar 0
AnchorPoint: "Anchor-10" 280 601 basechar 0
AnchorPoint: "Anchor-9" 293 690 basechar 0
AnchorPoint: "Anchor-8" 0 0 basechar 0
AnchorPoint: "Anchor-7" 182 0 basechar 0
LayerCount: 2
Fore
SplineSet
240 700 m 1,0,-1
 346 700 l 1,1,-1
 346 147 l 2,2,3
 346 50 346 50 358 0 c 1,4,-1
 261 0 l 1,5,6
 255 12 255 12 252 60 c 1,7,8
 224 -10 224 -10 149 -10 c 0,9,10
 34 -10 34 -10 34 139 c 2,11,-1
 34 371 l 2,12,13
 34 520 34 520 149 520 c 0,14,15
 207 520 207 520 240 473 c 1,16,-1
 240 700 l 1,0,-1
376 598 m 1,17,-1
 376 700 l 1,18,-1
 478 700 l 1,19,-1
 478 609 l 1,20,-1
 432 494 l 1,21,-1
 387 494 l 1,22,-1
 416 598 l 1,23,-1
 376 598 l 1,17,-1
185 84 m 0,24,25
 240 84 240 84 240 166 c 2,26,-1
 240 344 l 2,27,28
 240 426 240 426 185 426 c 0,29,30
 140 426 140 426 140 364 c 2,31,-1
 140 146 l 2,32,33
 140 84 140 84 185 84 c 0,24,25
EndSplineSet
EndChar

StartChar: Dcroat
Encoding: 272 272 211
Width: 424
GlyphClass: 2
Flags: W
AnchorPoint: "Anchor-11" 0 0 basechar 0
AnchorPoint: "Anchor-10" 119 365 basechar 0
AnchorPoint: "Anchor-9" 212 690 basechar 0
AnchorPoint: "Anchor-8" 0 0 basechar 0
AnchorPoint: "Anchor-7" 212 0 basechar 0
LayerCount: 2
Fore
SplineSet
59 700 m 1,0,-1
 227 700 l 2,1,2
 391 700 391 700 391 527 c 2,3,-1
 391 173 l 2,4,5
 391 0 391 0 227 0 c 2,6,-1
 59 0 l 1,7,-1
 59 318 l 1,8,-1
 12 318 l 1,9,-1
 12 412 l 1,10,-1
 59 412 l 1,11,-1
 59 700 l 1,0,-1
281 168 m 2,12,-1
 281 532 l 2,13,14
 281 600 281 600 225 600 c 2,15,-1
 169 600 l 1,16,-1
 169 412 l 1,17,-1
 226 412 l 1,18,-1
 226 318 l 1,19,-1
 169 318 l 1,20,-1
 169 100 l 1,21,-1
 225 100 l 2,22,23
 281 100 281 100 281 168 c 2,12,-1
EndSplineSet
EndChar

StartChar: dcroat
Encoding: 273 273 212
Width: 387
GlyphClass: 2
Flags: W
AnchorPoint: "Anchor-11" 0 0 basechar 0
AnchorPoint: "Anchor-10" 280 601 basechar 0
AnchorPoint: "Anchor-9" 293 690 basechar 0
AnchorPoint: "Anchor-8" 0 0 basechar 0
AnchorPoint: "Anchor-7" 182 0 basechar 0
LayerCount: 2
Fore
SplineSet
387 639 m 1,0,-1
 387 563 l 1,1,-1
 346 563 l 1,2,-1
 346 147 l 2,3,4
 346 50 346 50 358 0 c 1,5,-1
 261 0 l 1,6,7
 255 12 255 12 252 60 c 1,8,9
 224 -10 224 -10 149 -10 c 0,10,11
 34 -10 34 -10 34 139 c 2,12,-1
 34 371 l 2,13,14
 34 520 34 520 149 520 c 0,15,16
 207 520 207 520 240 473 c 1,17,-1
 240 563 l 1,18,-1
 173 563 l 1,19,-1
 173 639 l 1,20,-1
 240 639 l 1,21,-1
 240 700 l 1,22,-1
 346 700 l 1,23,-1
 346 639 l 1,24,-1
 387 639 l 1,0,-1
185 84 m 0,25,26
 240 84 240 84 240 166 c 2,27,-1
 240 344 l 2,28,29
 240 426 240 426 185 426 c 0,30,31
 140 426 140 426 140 364 c 2,32,-1
 140 146 l 2,33,34
 140 84 140 84 185 84 c 0,25,26
EndSplineSet
EndChar

StartChar: Emacron
Encoding: 274 274 213
Width: 359
GlyphClass: 2
Flags: W
AnchorPoint: "Anchor-11" 0 0 basechar 0
AnchorPoint: "Anchor-10" 0 0 basechar 0
AnchorPoint: "Anchor-9" 191 850 basechar 0
AnchorPoint: "Anchor-8" 341 0 basechar 0
AnchorPoint: "Anchor-7" 191 0 basechar 0
LayerCount: 2
Fore
SplineSet
306 772 m 1,0,-1
 76 772 l 1,1,-1
 76 850 l 1,2,-1
 306 850 l 1,3,-1
 306 772 l 1,0,-1
341 0 m 1,4,-1
 41 0 l 1,5,-1
 41 700 l 1,6,-1
 341 700 l 1,7,-1
 341 600 l 1,8,-1
 151 600 l 1,9,-1
 151 415 l 1,10,-1
 302 415 l 1,11,-1
 302 315 l 1,12,-1
 151 315 l 1,13,-1
 151 100 l 1,14,-1
 341 100 l 1,15,-1
 341 0 l 1,4,-1
EndSplineSet
EndChar

StartChar: emacron
Encoding: 275 275 214
Width: 374
GlyphClass: 2
Flags: W
AnchorPoint: "Anchor-11" 0 0 basechar 0
AnchorPoint: "Anchor-10" 0 0 basechar 0
AnchorPoint: "Anchor-9" 187 670 basechar 0
AnchorPoint: "Anchor-8" 329 0 basechar 0
AnchorPoint: "Anchor-7" 187 0 basechar 0
LayerCount: 2
Fore
SplineSet
72 670 m 1,0,-1
 302 670 l 1,1,-1
 302 592 l 1,2,-1
 72 592 l 1,3,-1
 72 670 l 1,0,-1
345 354 m 2,4,-1
 345 232 l 1,5,-1
 137 232 l 1,6,-1
 137 146 l 2,7,8
 137 84 137 84 190 84 c 128,-1,9
 243 84 243 84 243 146 c 2,10,-1
 243 165 l 1,11,-1
 345 165 l 1,12,-1
 345 156 l 2,13,14
 345 76 345 76 304.5 33 c 128,-1,15
 264 -10 264 -10 188 -10 c 128,-1,16
 112 -10 112 -10 71.5 33 c 128,-1,17
 31 76 31 76 31 156 c 2,18,-1
 31 354 l 2,19,20
 31 434 31 434 71.5 477 c 128,-1,21
 112 520 112 520 188 520 c 128,-1,22
 264 520 264 520 304.5 477 c 128,-1,23
 345 434 345 434 345 354 c 2,4,-1
137 364 m 2,24,-1
 137 316 l 1,25,-1
 241 316 l 1,26,-1
 241 364 l 2,27,28
 241 426 241 426 189 426 c 128,-1,29
 137 426 137 426 137 364 c 2,24,-1
EndSplineSet
EndChar

StartChar: Ebreve
Encoding: 276 276 215
Width: 359
GlyphClass: 2
Flags: W
AnchorPoint: "Anchor-11" 0 0 basechar 0
AnchorPoint: "Anchor-10" 0 0 basechar 0
AnchorPoint: "Anchor-9" 191 870 basechar 0
AnchorPoint: "Anchor-8" 341 0 basechar 0
AnchorPoint: "Anchor-7" 191 0 basechar 0
LayerCount: 2
Fore
SplineSet
191 751 m 0,0,1
 136 751 136 751 106 782 c 128,-1,2
 76 813 76 813 74 870 c 1,3,-1
 139 870 l 1,4,5
 145 822 145 822 191 822 c 0,6,7
 239 822 239 822 245 870 c 1,8,-1
 310 870 l 1,9,10
 308 813 308 813 277.5 782 c 128,-1,11
 247 751 247 751 191 751 c 0,0,1
341 0 m 1,12,-1
 41 0 l 1,13,-1
 41 700 l 1,14,-1
 341 700 l 1,15,-1
 341 600 l 1,16,-1
 151 600 l 1,17,-1
 151 415 l 1,18,-1
 302 415 l 1,19,-1
 302 315 l 1,20,-1
 151 315 l 1,21,-1
 151 100 l 1,22,-1
 341 100 l 1,23,-1
 341 0 l 1,12,-1
EndSplineSet
EndChar

StartChar: ebreve
Encoding: 277 277 216
Width: 374
GlyphClass: 2
Flags: W
AnchorPoint: "Anchor-11" 0 0 basechar 0
AnchorPoint: "Anchor-10" 0 0 basechar 0
AnchorPoint: "Anchor-9" 187 690 basechar 0
AnchorPoint: "Anchor-8" 329 0 basechar 0
AnchorPoint: "Anchor-7" 187 0 basechar 0
LayerCount: 2
Fore
SplineSet
187 571 m 0,0,1
 132 571 132 571 102 602 c 128,-1,2
 72 633 72 633 70 690 c 1,3,-1
 135 690 l 1,4,5
 141 642 141 642 187 642 c 0,6,7
 235 642 235 642 241 690 c 1,8,-1
 306 690 l 1,9,10
 304 633 304 633 273.5 602 c 128,-1,11
 243 571 243 571 187 571 c 0,0,1
345 354 m 2,12,-1
 345 232 l 1,13,-1
 137 232 l 1,14,-1
 137 146 l 2,15,16
 137 84 137 84 190 84 c 128,-1,17
 243 84 243 84 243 146 c 2,18,-1
 243 165 l 1,19,-1
 345 165 l 1,20,-1
 345 156 l 2,21,22
 345 76 345 76 304.5 33 c 128,-1,23
 264 -10 264 -10 188 -10 c 128,-1,24
 112 -10 112 -10 71.5 33 c 128,-1,25
 31 76 31 76 31 156 c 2,26,-1
 31 354 l 2,27,28
 31 434 31 434 71.5 477 c 128,-1,29
 112 520 112 520 188 520 c 128,-1,30
 264 520 264 520 304.5 477 c 128,-1,31
 345 434 345 434 345 354 c 2,12,-1
137 364 m 2,32,-1
 137 316 l 1,33,-1
 241 316 l 1,34,-1
 241 364 l 2,35,36
 241 426 241 426 189 426 c 128,-1,37
 137 426 137 426 137 364 c 2,32,-1
EndSplineSet
EndChar

StartChar: Edotaccent
Encoding: 278 278 217
Width: 359
GlyphClass: 2
Flags: W
AnchorPoint: "Anchor-11" 0 0 basechar 0
AnchorPoint: "Anchor-10" 0 0 basechar 0
AnchorPoint: "Anchor-9" 191 869 basechar 0
AnchorPoint: "Anchor-8" 341 0 basechar 0
AnchorPoint: "Anchor-7" 191 0 basechar 0
LayerCount: 2
Fore
SplineSet
244 753 m 1,0,-1
 138 753 l 1,1,-1
 138 869 l 1,2,-1
 244 869 l 1,3,-1
 244 753 l 1,0,-1
341 0 m 1,4,-1
 41 0 l 1,5,-1
 41 700 l 1,6,-1
 341 700 l 1,7,-1
 341 600 l 1,8,-1
 151 600 l 1,9,-1
 151 415 l 1,10,-1
 302 415 l 1,11,-1
 302 315 l 1,12,-1
 151 315 l 1,13,-1
 151 100 l 1,14,-1
 341 100 l 1,15,-1
 341 0 l 1,4,-1
EndSplineSet
EndChar

StartChar: edotaccent
Encoding: 279 279 218
Width: 374
GlyphClass: 2
Flags: W
AnchorPoint: "Anchor-11" 0 0 basechar 0
AnchorPoint: "Anchor-10" 0 0 basechar 0
AnchorPoint: "Anchor-9" 187 689 basechar 0
AnchorPoint: "Anchor-8" 329 0 basechar 0
AnchorPoint: "Anchor-7" 187 0 basechar 0
LayerCount: 2
Fore
SplineSet
134 689 m 1,0,-1
 240 689 l 1,1,-1
 240 573 l 1,2,-1
 134 573 l 1,3,-1
 134 689 l 1,0,-1
345 354 m 2,4,-1
 345 232 l 1,5,-1
 137 232 l 1,6,-1
 137 146 l 2,7,8
 137 84 137 84 190 84 c 128,-1,9
 243 84 243 84 243 146 c 2,10,-1
 243 165 l 1,11,-1
 345 165 l 1,12,-1
 345 156 l 2,13,14
 345 76 345 76 304.5 33 c 128,-1,15
 264 -10 264 -10 188 -10 c 128,-1,16
 112 -10 112 -10 71.5 33 c 128,-1,17
 31 76 31 76 31 156 c 2,18,-1
 31 354 l 2,19,20
 31 434 31 434 71.5 477 c 128,-1,21
 112 520 112 520 188 520 c 128,-1,22
 264 520 264 520 304.5 477 c 128,-1,23
 345 434 345 434 345 354 c 2,4,-1
137 364 m 2,24,-1
 137 316 l 1,25,-1
 241 316 l 1,26,-1
 241 364 l 2,27,28
 241 426 241 426 189 426 c 128,-1,29
 137 426 137 426 137 364 c 2,24,-1
EndSplineSet
EndChar

StartChar: Eogonek
Encoding: 280 280 219
Width: 359
GlyphClass: 2
Flags: W
AnchorPoint: "Anchor-11" 0 0 basechar 0
AnchorPoint: "Anchor-10" 0 0 basechar 0
AnchorPoint: "Anchor-9" 191 690 basechar 0
AnchorPoint: "Anchor-8" 341 0 basechar 0
AnchorPoint: "Anchor-7" 191 0 basechar 0
LayerCount: 2
Fore
SplineSet
341 700 m 1,0,-1
 341 600 l 1,1,-1
 151 600 l 1,2,-1
 151 415 l 1,3,-1
 302 415 l 1,4,-1
 302 315 l 1,5,-1
 151 315 l 1,6,-1
 151 100 l 1,7,-1
 341 100 l 1,8,-1
 341 0 l 1,9,-1
 300 0 l 1,10,11
 270 -26 270 -26 270 -59 c 0,12,13
 270 -94 270 -94 309 -94 c 0,14,15
 318 -94 318 -94 341 -88 c 1,16,-1
 341 -144 l 1,17,18
 311 -155 311 -155 280 -155 c 0,19,20
 185 -155 185 -155 185 -89 c 0,21,22
 185 -35 185 -35 253 0 c 1,23,-1
 41 0 l 1,24,-1
 41 700 l 1,25,-1
 341 700 l 1,0,-1
EndSplineSet
EndChar

StartChar: eogonek
Encoding: 281 281 220
Width: 374
GlyphClass: 2
Flags: W
AnchorPoint: "Anchor-11" 0 0 basechar 0
AnchorPoint: "Anchor-10" 0 0 basechar 0
AnchorPoint: "Anchor-9" 187 510 basechar 0
AnchorPoint: "Anchor-8" 329 0 basechar 0
AnchorPoint: "Anchor-7" 187 0 basechar 0
LayerCount: 2
Fore
SplineSet
345 354 m 2,0,-1
 345 232 l 1,1,-1
 137 232 l 1,2,-1
 137 146 l 2,3,4
 137 84 137 84 190 84 c 128,-1,5
 243 84 243 84 243 146 c 2,6,-1
 243 165 l 1,7,-1
 345 165 l 1,8,-1
 345 156 l 2,9,10
 345 65 345 65 293 22 c 1,11,12
 258 -15 258 -15 258 -59 c 0,13,14
 258 -94 258 -94 297 -94 c 0,15,16
 306 -94 306 -94 329 -88 c 1,17,-1
 329 -144 l 1,18,19
 299 -155 299 -155 268 -155 c 0,20,21
 173 -155 173 -155 173 -89 c 0,22,23
 173 -39 173 -39 229 -6 c 1,24,25
 214 -10 214 -10 188 -10 c 0,26,27
 112 -10 112 -10 71.5 33 c 128,-1,28
 31 76 31 76 31 156 c 2,29,-1
 31 354 l 2,30,31
 31 434 31 434 71.5 477 c 128,-1,32
 112 520 112 520 188 520 c 128,-1,33
 264 520 264 520 304.5 477 c 128,-1,34
 345 434 345 434 345 354 c 2,0,-1
137 364 m 2,35,-1
 137 316 l 1,36,-1
 241 316 l 1,37,-1
 241 364 l 2,38,39
 241 426 241 426 189 426 c 128,-1,40
 137 426 137 426 137 364 c 2,35,-1
EndSplineSet
EndChar

StartChar: Ecaron
Encoding: 282 282 221
Width: 359
GlyphClass: 2
Flags: W
AnchorPoint: "Anchor-11" 0 0 basechar 0
AnchorPoint: "Anchor-10" 0 0 basechar 0
AnchorPoint: "Anchor-9" 191 878 basechar 0
AnchorPoint: "Anchor-8" 341 0 basechar 0
AnchorPoint: "Anchor-7" 191 0 basechar 0
LayerCount: 2
Fore
SplineSet
243 743 m 1,0,-1
 139 743 l 1,1,-1
 57 878 l 1,2,-1
 140 878 l 1,3,-1
 191 803 l 1,4,-1
 242 878 l 1,5,-1
 325 878 l 1,6,-1
 243 743 l 1,0,-1
341 0 m 1,7,-1
 41 0 l 1,8,-1
 41 700 l 1,9,-1
 341 700 l 1,10,-1
 341 600 l 1,11,-1
 151 600 l 1,12,-1
 151 415 l 1,13,-1
 302 415 l 1,14,-1
 302 315 l 1,15,-1
 151 315 l 1,16,-1
 151 100 l 1,17,-1
 341 100 l 1,18,-1
 341 0 l 1,7,-1
EndSplineSet
EndChar

StartChar: ecaron
Encoding: 283 283 222
Width: 374
GlyphClass: 2
Flags: W
AnchorPoint: "Anchor-11" 0 0 basechar 0
AnchorPoint: "Anchor-10" 0 0 basechar 0
AnchorPoint: "Anchor-9" 187 698 basechar 0
AnchorPoint: "Anchor-8" 329 0 basechar 0
AnchorPoint: "Anchor-7" 187 0 basechar 0
LayerCount: 2
Fore
SplineSet
321 698 m 1,0,-1
 239 563 l 1,1,-1
 135 563 l 1,2,-1
 53 698 l 1,3,-1
 136 698 l 1,4,-1
 187 623 l 1,5,-1
 238 698 l 1,6,-1
 321 698 l 1,0,-1
345 354 m 2,7,-1
 345 232 l 1,8,-1
 137 232 l 1,9,-1
 137 146 l 2,10,11
 137 84 137 84 190 84 c 128,-1,12
 243 84 243 84 243 146 c 2,13,-1
 243 165 l 1,14,-1
 345 165 l 1,15,-1
 345 156 l 2,16,17
 345 76 345 76 304.5 33 c 128,-1,18
 264 -10 264 -10 188 -10 c 128,-1,19
 112 -10 112 -10 71.5 33 c 128,-1,20
 31 76 31 76 31 156 c 2,21,-1
 31 354 l 2,22,23
 31 434 31 434 71.5 477 c 128,-1,24
 112 520 112 520 188 520 c 128,-1,25
 264 520 264 520 304.5 477 c 128,-1,26
 345 434 345 434 345 354 c 2,7,-1
137 364 m 2,27,-1
 137 316 l 1,28,-1
 241 316 l 1,29,-1
 241 364 l 2,30,31
 241 426 241 426 189 426 c 128,-1,32
 137 426 137 426 137 364 c 2,27,-1
EndSplineSet
EndChar

StartChar: Gcircumflex
Encoding: 284 284 223
Width: 392
GlyphClass: 2
Flags: W
AnchorPoint: "Anchor-11" 0 0 basechar 0
AnchorPoint: "Anchor-10" 0 0 basechar 0
AnchorPoint: "Anchor-9" 196 878 basechar 0
AnchorPoint: "Anchor-8" 0 0 basechar 0
AnchorPoint: "Anchor-7" 197 0 basechar 0
LayerCount: 2
Fore
SplineSet
145 743 m 1,0,-1
 62 743 l 1,1,-1
 144 878 l 1,2,-1
 248 878 l 1,3,-1
 330 743 l 1,4,-1
 247 743 l 1,5,-1
 196 818 l 1,6,-1
 145 743 l 1,0,-1
33 166 m 2,7,-1
 33 534 l 2,8,9
 33 619 33 619 75 664.5 c 128,-1,10
 117 710 117 710 197 710 c 128,-1,11
 277 710 277 710 319 664.5 c 128,-1,12
 361 619 361 619 361 534 c 2,13,-1
 361 474 l 1,14,-1
 257 474 l 1,15,-1
 257 541 l 2,16,17
 257 610 257 610 200 610 c 128,-1,18
 143 610 143 610 143 541 c 2,19,-1
 143 158 l 2,20,21
 143 90 143 90 200 90 c 128,-1,22
 257 90 257 90 257 158 c 2,23,-1
 257 295 l 1,24,-1
 202 295 l 1,25,-1
 202 395 l 1,26,-1
 361 395 l 1,27,-1
 361 166 l 2,28,29
 361 81 361 81 319 35.5 c 128,-1,30
 277 -10 277 -10 197 -10 c 128,-1,31
 117 -10 117 -10 75 35.5 c 128,-1,32
 33 81 33 81 33 166 c 2,7,-1
EndSplineSet
EndChar

StartChar: gcircumflex
Encoding: 285 285 224
Width: 385
GlyphClass: 2
Flags: W
AnchorPoint: "Anchor-11" 0 0 basechar 0
AnchorPoint: "Anchor-10" 0 0 basechar 0
AnchorPoint: "Anchor-9" 183 698 basechar 0
AnchorPoint: "Anchor-8" 0 0 basechar 0
AnchorPoint: "Anchor-7" 193 -155 basechar 0
LayerCount: 2
Fore
SplineSet
234 563 m 1,0,-1
 183 638 l 1,1,-1
 132 563 l 1,2,-1
 49 563 l 1,3,-1
 131 698 l 1,4,-1
 235 698 l 1,5,-1
 317 563 l 1,6,-1
 234 563 l 1,0,-1
250 450 m 1,7,-1
 252 510 l 1,8,-1
 344 510 l 1,9,-1
 344 -7 l 2,10,11
 344 -87 344 -87 307 -126 c 128,-1,12
 270 -165 270 -165 187 -165 c 0,13,14
 112 -165 112 -165 73.5 -130 c 128,-1,15
 35 -95 35 -95 35 -28 c 2,16,-1
 35 -25 l 1,17,-1
 137 -25 l 1,18,-1
 137 -33 l 2,19,20
 137 -78 137 -78 185 -78 c 0,21,22
 238 -78 238 -78 238 -15 c 2,23,-1
 238 62 l 1,24,25
 205 15 205 15 148 15 c 0,26,27
 32 15 32 15 32 164 c 2,28,-1
 32 371 l 2,29,30
 32 520 32 520 148 520 c 0,31,32
 222 520 222 520 250 450 c 1,7,-1
183 109 m 0,33,34
 238 109 238 109 238 191 c 2,35,-1
 238 344 l 2,36,37
 238 426 238 426 183 426 c 0,38,39
 138 426 138 426 138 364 c 2,40,-1
 138 171 l 2,41,42
 138 109 138 109 183 109 c 0,33,34
EndSplineSet
EndChar

StartChar: Gbreve
Encoding: 286 286 225
Width: 392
GlyphClass: 2
Flags: W
AnchorPoint: "Anchor-11" 0 0 basechar 0
AnchorPoint: "Anchor-10" 0 0 basechar 0
AnchorPoint: "Anchor-9" 196 870 basechar 0
AnchorPoint: "Anchor-8" 0 0 basechar 0
AnchorPoint: "Anchor-7" 197 0 basechar 0
LayerCount: 2
Fore
SplineSet
196 751 m 0,0,1
 141 751 141 751 111 782 c 128,-1,2
 81 813 81 813 79 870 c 1,3,-1
 144 870 l 1,4,5
 150 822 150 822 196 822 c 0,6,7
 244 822 244 822 250 870 c 1,8,-1
 315 870 l 1,9,10
 313 813 313 813 282.5 782 c 128,-1,11
 252 751 252 751 196 751 c 0,0,1
33 166 m 2,12,-1
 33 534 l 2,13,14
 33 619 33 619 75 664.5 c 128,-1,15
 117 710 117 710 197 710 c 128,-1,16
 277 710 277 710 319 664.5 c 128,-1,17
 361 619 361 619 361 534 c 2,18,-1
 361 474 l 1,19,-1
 257 474 l 1,20,-1
 257 541 l 2,21,22
 257 610 257 610 200 610 c 128,-1,23
 143 610 143 610 143 541 c 2,24,-1
 143 158 l 2,25,26
 143 90 143 90 200 90 c 128,-1,27
 257 90 257 90 257 158 c 2,28,-1
 257 295 l 1,29,-1
 202 295 l 1,30,-1
 202 395 l 1,31,-1
 361 395 l 1,32,-1
 361 166 l 2,33,34
 361 81 361 81 319 35.5 c 128,-1,35
 277 -10 277 -10 197 -10 c 128,-1,36
 117 -10 117 -10 75 35.5 c 128,-1,37
 33 81 33 81 33 166 c 2,12,-1
EndSplineSet
EndChar

StartChar: gbreve
Encoding: 287 287 226
Width: 385
GlyphClass: 2
Flags: W
AnchorPoint: "Anchor-11" 0 0 basechar 0
AnchorPoint: "Anchor-10" 0 0 basechar 0
AnchorPoint: "Anchor-9" 183 690 basechar 0
AnchorPoint: "Anchor-8" 0 0 basechar 0
AnchorPoint: "Anchor-7" 193 -155 basechar 0
LayerCount: 2
Fore
SplineSet
183 571 m 0,0,1
 128 571 128 571 98 602 c 128,-1,2
 68 633 68 633 66 690 c 1,3,-1
 131 690 l 1,4,5
 137 642 137 642 183 642 c 0,6,7
 231 642 231 642 237 690 c 1,8,-1
 302 690 l 1,9,10
 300 633 300 633 269.5 602 c 128,-1,11
 239 571 239 571 183 571 c 0,0,1
250 450 m 1,12,-1
 252 510 l 1,13,-1
 344 510 l 1,14,-1
 344 -7 l 2,15,16
 344 -87 344 -87 307 -126 c 128,-1,17
 270 -165 270 -165 187 -165 c 0,18,19
 112 -165 112 -165 73.5 -130 c 128,-1,20
 35 -95 35 -95 35 -28 c 2,21,-1
 35 -25 l 1,22,-1
 137 -25 l 1,23,-1
 137 -33 l 2,24,25
 137 -78 137 -78 185 -78 c 0,26,27
 238 -78 238 -78 238 -15 c 2,28,-1
 238 62 l 1,29,30
 205 15 205 15 148 15 c 0,31,32
 32 15 32 15 32 164 c 2,33,-1
 32 371 l 2,34,35
 32 520 32 520 148 520 c 0,36,37
 222 520 222 520 250 450 c 1,12,-1
183 109 m 0,38,39
 238 109 238 109 238 191 c 2,40,-1
 238 344 l 2,41,42
 238 426 238 426 183 426 c 0,43,44
 138 426 138 426 138 364 c 2,45,-1
 138 171 l 2,46,47
 138 109 138 109 183 109 c 0,38,39
EndSplineSet
EndChar

StartChar: Gdotaccent
Encoding: 288 288 227
Width: 392
GlyphClass: 2
Flags: W
AnchorPoint: "Anchor-11" 0 0 basechar 0
AnchorPoint: "Anchor-10" 0 0 basechar 0
AnchorPoint: "Anchor-9" 196 869 basechar 0
AnchorPoint: "Anchor-8" 0 0 basechar 0
AnchorPoint: "Anchor-7" 197 0 basechar 0
LayerCount: 2
Fore
SplineSet
249 753 m 1,0,-1
 143 753 l 1,1,-1
 143 869 l 1,2,-1
 249 869 l 1,3,-1
 249 753 l 1,0,-1
33 166 m 2,4,-1
 33 534 l 2,5,6
 33 619 33 619 75 664.5 c 128,-1,7
 117 710 117 710 197 710 c 128,-1,8
 277 710 277 710 319 664.5 c 128,-1,9
 361 619 361 619 361 534 c 2,10,-1
 361 474 l 1,11,-1
 257 474 l 1,12,-1
 257 541 l 2,13,14
 257 610 257 610 200 610 c 128,-1,15
 143 610 143 610 143 541 c 2,16,-1
 143 158 l 2,17,18
 143 90 143 90 200 90 c 128,-1,19
 257 90 257 90 257 158 c 2,20,-1
 257 295 l 1,21,-1
 202 295 l 1,22,-1
 202 395 l 1,23,-1
 361 395 l 1,24,-1
 361 166 l 2,25,26
 361 81 361 81 319 35.5 c 128,-1,27
 277 -10 277 -10 197 -10 c 128,-1,28
 117 -10 117 -10 75 35.5 c 128,-1,29
 33 81 33 81 33 166 c 2,4,-1
EndSplineSet
EndChar

StartChar: gdotaccent
Encoding: 289 289 228
Width: 385
GlyphClass: 2
Flags: W
AnchorPoint: "Anchor-11" 0 0 basechar 0
AnchorPoint: "Anchor-10" 0 0 basechar 0
AnchorPoint: "Anchor-9" 183 689 basechar 0
AnchorPoint: "Anchor-8" 0 0 basechar 0
AnchorPoint: "Anchor-7" 193 -155 basechar 0
LayerCount: 2
Fore
SplineSet
130 689 m 1,0,-1
 236 689 l 1,1,-1
 236 573 l 1,2,-1
 130 573 l 1,3,-1
 130 689 l 1,0,-1
250 450 m 1,4,-1
 252 510 l 1,5,-1
 344 510 l 1,6,-1
 344 -7 l 2,7,8
 344 -87 344 -87 307 -126 c 128,-1,9
 270 -165 270 -165 187 -165 c 0,10,11
 112 -165 112 -165 73.5 -130 c 128,-1,12
 35 -95 35 -95 35 -28 c 2,13,-1
 35 -25 l 1,14,-1
 137 -25 l 1,15,-1
 137 -33 l 2,16,17
 137 -78 137 -78 185 -78 c 0,18,19
 238 -78 238 -78 238 -15 c 2,20,-1
 238 62 l 1,21,22
 205 15 205 15 148 15 c 0,23,24
 32 15 32 15 32 164 c 2,25,-1
 32 371 l 2,26,27
 32 520 32 520 148 520 c 0,28,29
 222 520 222 520 250 450 c 1,4,-1
183 109 m 0,30,31
 238 109 238 109 238 191 c 2,32,-1
 238 344 l 2,33,34
 238 426 238 426 183 426 c 0,35,36
 138 426 138 426 138 364 c 2,37,-1
 138 171 l 2,38,39
 138 109 138 109 183 109 c 0,30,31
EndSplineSet
EndChar

StartChar: uni0122
Encoding: 290 290 229
Width: 392
GlyphClass: 2
Flags: W
AnchorPoint: "Anchor-11" 0 0 basechar 0
AnchorPoint: "Anchor-10" 0 0 basechar 0
AnchorPoint: "Anchor-9" 196 690 basechar 0
AnchorPoint: "Anchor-8" 0 0 basechar 0
AnchorPoint: "Anchor-7" 197 -189 basechar 0
LayerCount: 2
Fore
SplineSet
33 166 m 2,0,-1
 33 534 l 2,1,2
 33 619 33 619 75 664.5 c 128,-1,3
 117 710 117 710 197 710 c 128,-1,4
 277 710 277 710 319 664.5 c 128,-1,5
 361 619 361 619 361 534 c 2,6,-1
 361 474 l 1,7,-1
 257 474 l 1,8,-1
 257 541 l 2,9,10
 257 610 257 610 200 610 c 128,-1,11
 143 610 143 610 143 541 c 2,12,-1
 143 158 l 2,13,14
 143 90 143 90 200 90 c 128,-1,15
 257 90 257 90 257 158 c 2,16,-1
 257 295 l 1,17,-1
 202 295 l 1,18,-1
 202 395 l 1,19,-1
 361 395 l 1,20,-1
 361 166 l 2,21,22
 361 81 361 81 319 35.5 c 128,-1,23
 277 -10 277 -10 197 -10 c 128,-1,24
 117 -10 117 -10 75 35.5 c 128,-1,25
 33 81 33 81 33 166 c 2,0,-1
193 -189 m 1,26,-1
 154 -189 l 1,27,-1
 194 -135 l 1,28,-1
 144 -135 l 1,29,-1
 144 -43 l 1,30,-1
 250 -43 l 1,31,-1
 250 -125 l 1,32,-1
 193 -189 l 1,26,-1
EndSplineSet
EndChar

StartChar: uni0123
Encoding: 291 291 230
Width: 385
GlyphClass: 2
Flags: W
AnchorPoint: "Anchor-11" 0 0 basechar 0
AnchorPoint: "Anchor-10" 0 0 basechar 0
AnchorPoint: "Anchor-9" 183 719 basechar 0
AnchorPoint: "Anchor-8" 0 0 basechar 0
AnchorPoint: "Anchor-7" 193 -155 basechar 0
LayerCount: 2
Fore
SplineSet
186 665 m 1,0,-1
 236 665 l 1,1,-1
 236 573 l 1,2,-1
 130 573 l 1,3,-1
 130 655 l 1,4,-1
 180 719 l 1,5,-1
 219 719 l 1,6,-1
 186 665 l 1,0,-1
250 450 m 1,7,-1
 252 510 l 1,8,-1
 344 510 l 1,9,-1
 344 -7 l 2,10,11
 344 -87 344 -87 307 -126 c 128,-1,12
 270 -165 270 -165 187 -165 c 0,13,14
 112 -165 112 -165 73.5 -130 c 128,-1,15
 35 -95 35 -95 35 -28 c 2,16,-1
 35 -25 l 1,17,-1
 137 -25 l 1,18,-1
 137 -33 l 2,19,20
 137 -78 137 -78 185 -78 c 0,21,22
 238 -78 238 -78 238 -15 c 2,23,-1
 238 62 l 1,24,25
 205 15 205 15 148 15 c 0,26,27
 32 15 32 15 32 164 c 2,28,-1
 32 371 l 2,29,30
 32 520 32 520 148 520 c 0,31,32
 222 520 222 520 250 450 c 1,7,-1
183 109 m 0,33,34
 238 109 238 109 238 191 c 2,35,-1
 238 344 l 2,36,37
 238 426 238 426 183 426 c 0,38,39
 138 426 138 426 138 364 c 2,40,-1
 138 171 l 2,41,42
 138 109 138 109 183 109 c 0,33,34
EndSplineSet
EndChar

StartChar: Hcircumflex
Encoding: 292 292 231
Width: 420
GlyphClass: 2
Flags: W
AnchorPoint: "Anchor-11" 0 0 basechar 0
AnchorPoint: "Anchor-10" 210 542 basechar 0
AnchorPoint: "Anchor-9" 210 878 basechar 0
AnchorPoint: "Anchor-8" 0 0 basechar 0
AnchorPoint: "Anchor-7" 210 0 basechar 0
LayerCount: 2
Fore
SplineSet
159 743 m 1,0,-1
 76 743 l 1,1,-1
 158 878 l 1,2,-1
 262 878 l 1,3,-1
 344 743 l 1,4,-1
 261 743 l 1,5,-1
 210 818 l 1,6,-1
 159 743 l 1,0,-1
151 0 m 1,7,-1
 41 0 l 1,8,-1
 41 700 l 1,9,-1
 151 700 l 1,10,-1
 151 415 l 1,11,-1
 269 415 l 1,12,-1
 269 700 l 1,13,-1
 379 700 l 1,14,-1
 379 0 l 1,15,-1
 269 0 l 1,16,-1
 269 315 l 1,17,-1
 151 315 l 1,18,-1
 151 0 l 1,7,-1
EndSplineSet
EndChar

StartChar: hcircumflex
Encoding: 293 293 232
Width: 389
GlyphClass: 2
Flags: W
AnchorPoint: "Anchor-11" 0 0 basechar 0
AnchorPoint: "Anchor-10" 107 601 basechar 0
AnchorPoint: "Anchor-9" 94 878 basechar 0
AnchorPoint: "Anchor-8" 0 0 basechar 0
AnchorPoint: "Anchor-7" 195 0 basechar 0
LayerCount: 2
Fore
SplineSet
145 743 m 1,0,-1
 94 818 l 1,1,-1
 43 743 l 1,2,-1
 -40 743 l 1,3,-1
 42 878 l 1,4,-1
 146 878 l 1,5,-1
 228 743 l 1,6,-1
 145 743 l 1,0,-1
237 520 m 0,7,8
 351 520 351 520 351 371 c 2,9,-1
 351 0 l 1,10,-1
 245 0 l 1,11,-1
 245 359 l 2,12,13
 245 426 245 426 201 426 c 0,14,15
 147 426 147 426 147 344 c 2,16,-1
 147 0 l 1,17,-1
 41 0 l 1,18,-1
 41 700 l 1,19,-1
 147 700 l 1,20,-1
 147 474 l 1,21,22
 178 520 178 520 237 520 c 0,7,8
EndSplineSet
EndChar

StartChar: Hbar
Encoding: 294 294 233
Width: 442
GlyphClass: 2
Flags: W
AnchorPoint: "Anchor-11" 0 0 basechar 0
AnchorPoint: "Anchor-10" 221 542 basechar 0
AnchorPoint: "Anchor-9" 221 690 basechar 0
AnchorPoint: "Anchor-8" 0 0 basechar 0
AnchorPoint: "Anchor-7" 221 0 basechar 0
LayerCount: 2
Fore
SplineSet
390 603 m 1,0,-1
 430 603 l 1,1,-1
 430 513 l 1,2,-1
 390 513 l 1,3,-1
 390 0 l 1,4,-1
 280 0 l 1,5,-1
 280 315 l 1,6,-1
 162 315 l 1,7,-1
 162 0 l 1,8,-1
 52 0 l 1,9,-1
 52 513 l 1,10,-1
 12 513 l 1,11,-1
 12 603 l 1,12,-1
 52 603 l 1,13,-1
 52 700 l 1,14,-1
 162 700 l 1,15,-1
 162 603 l 1,16,-1
 280 603 l 1,17,-1
 280 700 l 1,18,-1
 390 700 l 1,19,-1
 390 603 l 1,0,-1
162 415 m 1,20,-1
 280 415 l 1,21,-1
 280 513 l 1,22,-1
 162 513 l 1,23,-1
 162 415 l 1,20,-1
EndSplineSet
EndChar

StartChar: hbar
Encoding: 295 295 234
Width: 389
GlyphClass: 2
Flags: W
AnchorPoint: "Anchor-11" 0 0 basechar 0
AnchorPoint: "Anchor-10" 107 601 basechar 0
AnchorPoint: "Anchor-9" 94 690 basechar 0
AnchorPoint: "Anchor-8" 0 0 basechar 0
AnchorPoint: "Anchor-7" 195 0 basechar 0
LayerCount: 2
Fore
SplineSet
237 520 m 0,0,1
 351 520 351 520 351 371 c 2,2,-1
 351 0 l 1,3,-1
 245 0 l 1,4,-1
 245 359 l 2,5,6
 245 426 245 426 201 426 c 0,7,8
 147 426 147 426 147 344 c 2,9,-1
 147 0 l 1,10,-1
 41 0 l 1,11,-1
 41 563 l 1,12,-1
 0 563 l 1,13,-1
 0 639 l 1,14,-1
 41 639 l 1,15,-1
 41 700 l 1,16,-1
 147 700 l 1,17,-1
 147 639 l 1,18,-1
 214 639 l 1,19,-1
 214 563 l 1,20,-1
 147 563 l 1,21,-1
 147 474 l 1,22,23
 178 520 178 520 237 520 c 0,0,1
EndSplineSet
EndChar

StartChar: Itilde
Encoding: 296 296 235
Width: 192
GlyphClass: 2
Flags: W
AnchorPoint: "Anchor-11" 0 0 basechar 0
AnchorPoint: "Anchor-10" 0 0 basechar 0
AnchorPoint: "Anchor-9" 96 856 basechar 0
AnchorPoint: "Anchor-8" 173 0 basechar 0
AnchorPoint: "Anchor-7" 96 0 basechar 0
LayerCount: 2
Fore
SplineSet
16 752 m 1,0,-1
 -38 784 l 1,1,2
 -1 868 -1 868 53 868 c 0,3,4
 78 868 78 868 107 846 c 0,5,6
 128 831 128 831 139 831 c 0,7,8
 158 831 158 831 176 870 c 1,9,-1
 230 838 l 1,10,11
 192 754 192 754 139 754 c 0,12,13
 114 754 114 754 85 776 c 0,14,15
 64 791 64 791 53 791 c 0,16,17
 32 791 32 791 16 752 c 1,0,-1
151 0 m 1,18,-1
 41 0 l 1,19,-1
 41 700 l 1,20,-1
 151 700 l 1,21,-1
 151 0 l 1,18,-1
EndSplineSet
EndChar

StartChar: itilde
Encoding: 297 297 236
Width: 188
GlyphClass: 2
Flags: W
AnchorPoint: "Anchor-11" 0 0 basechar 0
AnchorPoint: "Anchor-10" 0 0 basechar 0
AnchorPoint: "Anchor-9" 94 676 basechar 0
AnchorPoint: "Anchor-8" 171 0 basechar 0
AnchorPoint: "Anchor-7" 94 0 basechar 0
LayerCount: 2
Fore
SplineSet
14 572 m 1,0,-1
 -40 604 l 1,1,2
 -3 688 -3 688 51 688 c 0,3,4
 76 688 76 688 105 666 c 0,5,6
 126 651 126 651 137 651 c 0,7,8
 156 651 156 651 174 690 c 1,9,-1
 228 658 l 1,10,11
 190 574 190 574 137 574 c 0,12,13
 112 574 112 574 83 596 c 0,14,15
 62 611 62 611 51 611 c 0,16,17
 30 611 30 611 14 572 c 1,0,-1
147 0 m 1,18,-1
 41 0 l 1,19,-1
 41 510 l 1,20,-1
 147 510 l 1,21,-1
 147 0 l 1,18,-1
EndSplineSet
EndChar

StartChar: Imacron
Encoding: 298 298 237
Width: 192
GlyphClass: 2
Flags: W
AnchorPoint: "Anchor-11" 0 0 basechar 0
AnchorPoint: "Anchor-10" 0 0 basechar 0
AnchorPoint: "Anchor-9" 96 850 basechar 0
AnchorPoint: "Anchor-8" 173 0 basechar 0
AnchorPoint: "Anchor-7" 96 0 basechar 0
LayerCount: 2
Fore
SplineSet
211 772 m 1,0,-1
 -19 772 l 1,1,-1
 -19 850 l 1,2,-1
 211 850 l 1,3,-1
 211 772 l 1,0,-1
151 0 m 1,4,-1
 41 0 l 1,5,-1
 41 700 l 1,6,-1
 151 700 l 1,7,-1
 151 0 l 1,4,-1
EndSplineSet
EndChar

StartChar: imacron
Encoding: 299 299 238
Width: 188
GlyphClass: 2
Flags: W
AnchorPoint: "Anchor-11" 0 0 basechar 0
AnchorPoint: "Anchor-10" 0 0 basechar 0
AnchorPoint: "Anchor-9" 94 670 basechar 0
AnchorPoint: "Anchor-8" 171 0 basechar 0
AnchorPoint: "Anchor-7" 94 0 basechar 0
LayerCount: 2
Fore
SplineSet
209 592 m 1,0,-1
 -21 592 l 1,1,-1
 -21 670 l 1,2,-1
 209 670 l 1,3,-1
 209 592 l 1,0,-1
147 0 m 1,4,-1
 41 0 l 1,5,-1
 41 510 l 1,6,-1
 147 510 l 1,7,-1
 147 0 l 1,4,-1
EndSplineSet
EndChar

StartChar: Ibreve
Encoding: 300 300 239
Width: 192
GlyphClass: 2
Flags: W
AnchorPoint: "Anchor-11" 0 0 basechar 0
AnchorPoint: "Anchor-10" 0 0 basechar 0
AnchorPoint: "Anchor-9" 96 870 basechar 0
AnchorPoint: "Anchor-8" 173 0 basechar 0
AnchorPoint: "Anchor-7" 96 0 basechar 0
LayerCount: 2
Fore
SplineSet
96 751 m 0,0,1
 41 751 41 751 11 782 c 128,-1,2
 -19 813 -19 813 -21 870 c 1,3,-1
 44 870 l 1,4,5
 50 822 50 822 96 822 c 0,6,7
 144 822 144 822 150 870 c 1,8,-1
 215 870 l 1,9,10
 213 813 213 813 182.5 782 c 128,-1,11
 152 751 152 751 96 751 c 0,0,1
151 0 m 1,12,-1
 41 0 l 1,13,-1
 41 700 l 1,14,-1
 151 700 l 1,15,-1
 151 0 l 1,12,-1
EndSplineSet
EndChar

StartChar: ibreve
Encoding: 301 301 240
Width: 188
GlyphClass: 2
Flags: W
AnchorPoint: "Anchor-11" 0 0 basechar 0
AnchorPoint: "Anchor-10" 0 0 basechar 0
AnchorPoint: "Anchor-9" 94 690 basechar 0
AnchorPoint: "Anchor-8" 171 0 basechar 0
AnchorPoint: "Anchor-7" 94 0 basechar 0
LayerCount: 2
Fore
SplineSet
94 571 m 0,0,1
 39 571 39 571 9 602 c 128,-1,2
 -21 633 -21 633 -23 690 c 1,3,-1
 42 690 l 1,4,5
 48 642 48 642 94 642 c 0,6,7
 142 642 142 642 148 690 c 1,8,-1
 213 690 l 1,9,10
 211 633 211 633 180.5 602 c 128,-1,11
 150 571 150 571 94 571 c 0,0,1
147 0 m 1,12,-1
 41 0 l 1,13,-1
 41 510 l 1,14,-1
 147 510 l 1,15,-1
 147 0 l 1,12,-1
EndSplineSet
EndChar

